<?xml version="1.0" standalone="no"?>
<!DOCTYPE svg PUBLIC "-//W3C//DTD SVG 1.1//EN" "http://www.w3.org/Graphics/SVG/1.1/DTD/svg11.dtd" >
<svg xmlns="http://www.w3.org/2000/svg" xmlns:xlink="http://www.w3.org/1999/xlink" version="1.1">
<metadata>
Created by FontForge 20170812 at Wed Oct 26 16:52:36 2022
 By www-data
</metadata>
<defs>
<font id="ThunderRegular" horiz-adv-x="0" >
  <font-face 
    font-family="Thunder"
    font-weight="400"
    font-stretch="normal"
    units-per-em="1000"
    panose-1="0 0 0 0 0 0 0 0 0 0"
    ascent="800"
    descent="-200"
    x-height="214.682"
    cap-height="687.249"
    bbox="-161.998 -520.238 1213.79 914.22"
    underline-thickness="50"
    underline-position="-100"
    unicode-range="U+000A-20AC"
  />
<missing-glyph horiz-adv-x="527" 
d="M50 700h427v-700h-427v700zM78 680l185 -309l186 309h-371zM251 350l-180 300v-601zM264 329l-185 -308h370zM276 350l181 -303v605z" />
    <glyph glyph-name=".notdef" horiz-adv-x="527" 
d="M50 700h427v-700h-427v700zM78 680l185 -309l186 309h-371zM251 350l-180 300v-601zM264 329l-185 -308h370zM276 350l181 -303v605z" />
    <glyph glyph-name=".null" 
 />
    <glyph glyph-name=".null" 
 />
    <glyph glyph-name="controlLF" unicode="&#xa;" 
 />
    <glyph glyph-name="controlCR" unicode="&#xd;" 
 />
    <glyph glyph-name="space" unicode=" " horiz-adv-x="372" 
 />
    <glyph glyph-name="exclam" unicode="!" horiz-adv-x="177" 
d="M126.1 326.22c0.728516 -82.7041 0.673828 -165.392 0.494141 -248.1c-0.0820312 -36.8076 -76.9756 -60.5332 -76.5918 -20.4121c0.806641 84.3613 1.76953 168.694 3.5 253.044c0.876953 42.8652 1.61719 85.7344 2.29102 128.604
c0.646484 40.9473 -1.21387 83.292 4.28809 123.918c3.39844 25.0918 58.5986 42.4814 62.832 10.3291c5.30176 -40.2734 2.23926 -82.8848 2.40332 -123.476c0.164062 -41.3037 0.418945 -82.6035 0.783203 -123.907zM68.6396 -16.5439
c3.39453 22.2607 46.3662 34.4316 52.7295 8.66602c4.10352 -16.6338 2.74902 -35.833 0.015625 -52.5254c-3.42188 -20.8906 -52.2588 -37.2158 -54.2246 -8.91309c-1.19043 17.1279 -1.1123 35.7627 1.47949 52.7725z" />
    <glyph glyph-name="quotedbl" unicode="&#x22;" horiz-adv-x="185" 
d="M87.7715 545.023c2.24023 -11.1992 2.98535 -22.6328 4.61426 -33.9258c2.97949 -20.5967 -41.335 -32.9043 -41.8516 -11.1562c-0.399414 16.916 -3.67676 44.6787 12.624 55.1846c11.0186 7.09961 22.0605 2.66309 24.6133 -10.1025zM133.019 535.685
c1.27246 -7.4043 1.60059 -15.0947 2.37598 -22.5703c1.3623 -13.1924 -25.8291 -22.4336 -27.8848 -7.43262c-0.826172 6.04199 -1.65625 12.0801 -2.48242 18.1182c-1.13574 8.27441 0 13.8232 6.66895 19.3604c3.83398 3.18359 9.45703 4.01758 14.1016 2.43945
c4.75781 -1.61328 6.41406 -5.23535 7.2207 -9.91504z" />
    <glyph glyph-name="quotedbl" unicode="&#x201d;" horiz-adv-x="185" 
d="M87.7715 545.023c2.24023 -11.1992 2.98535 -22.6328 4.61426 -33.9258c2.97949 -20.5967 -41.335 -32.9043 -41.8516 -11.1562c-0.399414 16.916 -3.67676 44.6787 12.624 55.1846c11.0186 7.09961 22.0605 2.66309 24.6133 -10.1025zM133.019 535.685
c1.27246 -7.4043 1.60059 -15.0947 2.37598 -22.5703c1.3623 -13.1924 -25.8291 -22.4336 -27.8848 -7.43262c-0.826172 6.04199 -1.65625 12.0801 -2.48242 18.1182c-1.13574 8.27441 0 13.8232 6.66895 19.3604c3.83398 3.18359 9.45703 4.01758 14.1016 2.43945
c4.75781 -1.61328 6.41406 -5.23535 7.2207 -9.91504z" />
    <glyph glyph-name="quotedbl" unicode="&#x201c;" horiz-adv-x="185" 
d="M87.7715 545.023c2.24023 -11.1992 2.98535 -22.6328 4.61426 -33.9258c2.97949 -20.5967 -41.335 -32.9043 -41.8516 -11.1562c-0.399414 16.916 -3.67676 44.6787 12.624 55.1846c11.0186 7.09961 22.0605 2.66309 24.6133 -10.1025zM133.019 535.685
c1.27246 -7.4043 1.60059 -15.0947 2.37598 -22.5703c1.3623 -13.1924 -25.8291 -22.4336 -27.8848 -7.43262c-0.826172 6.04199 -1.65625 12.0801 -2.48242 18.1182c-1.13574 8.27441 0 13.8232 6.66895 19.3604c3.83398 3.18359 9.45703 4.01758 14.1016 2.43945
c4.75781 -1.61328 6.41406 -5.23535 7.2207 -9.91504z" />
    <glyph glyph-name="numbersign" unicode="#" horiz-adv-x="453" 
d="M396.033 319.285c15.4473 -1.2998 0.698242 -20.21 -10.5518 -19.3252c-11.3672 0.892578 -22.7422 1.65234 -34.125 2.33008c-3.49316 -23.917 -6.75098 -47.8779 -9.67969 -71.9092c-1.44922 -11.8965 -2.82715 -23.8086 -4.24512 -35.7129
c12.3389 -0.171875 24.6777 -0.438477 37.0205 -0.837891c14.4883 -0.46582 6.99316 -17.5068 -4.1084 -17.1504c-11.6494 0.379883 -23.3027 0.623047 -34.9561 0.794922c-4.14258 -35.1279 -8.20703 -70.2676 -12.1465 -105.411
c-2.95996 -26.3809 -5.10938 -52.8516 -7.41211 -79.291c-2.27539 -26.1572 -2.21289 -54.0254 -9.22949 -79.4072c-4.66016 -16.8613 -42.6582 -32.7002 -46.3623 -7.62402c-3.91992 26.5332 0.833984 55.3496 2.50586 82.0234
c1.64453 26.2861 3.55176 52.5605 4.90625 78.8623c1.90723 37.0156 4.40137 73.918 7.58887 110.793c-24.8809 -0.364258 -49.75 -1.18652 -74.5957 -2.4707c-1.98535 -27.7705 -3.73145 -55.5566 -5.47754 -83.335c-3.34375 -53.2578 -2.3457 -108.908 -15.0205 -160.788
c-4.03711 -16.5166 -38.75 -33.8477 -48.3945 -13.0703c-22.0732 47.5449 -16.4033 108.748 -16.0625 160.209c0.204102 30.3818 1.40625 60.7441 3.17578 91.083c-19.2461 -1.78125 -38.4766 -3.74316 -57.6758 -6.07324c-14.3984 -1.75 -6.60645 15.8516 4.10742 17.1514
c18.1807 2.20801 36.3887 4.08008 54.6084 5.79102c1.1123 17.0332 2.36523 34.0508 3.72754 51.0566c1.73047 21.5879 3.61816 43.2031 5.7168 64.8145c-23.5176 -1.48828 -47.0078 -3.39941 -70.4473 -5.78418c-16.3135 -1.66016 -7.44043 17.9814 4.62012 19.3008
c22.582 2.47461 45.1797 4.46777 67.7891 6.03418c8.42285 81.0947 20.374 161.99 40.2539 240.936c8.77539 34.8428 83.9111 52.1738 77.5049 4.6875c-10.8896 -80.7354 -23.8076 -161.087 -33.8672 -241.885c25.417 0.512695 50.8418 0.481445 76.2666 -0.133789
c9.60938 72.0967 22.1006 143.876 40.207 214.215c7.45215 28.9453 72.0264 41.7148 63.7764 3.85742c-15.9609 -73.2441 -29.7871 -146.743 -41.084 -220.724c13.8887 -0.837891 27.7773 -1.83984 41.666 -3.00684zM279.522 222.891
c2.83496 27.3281 5.90527 54.6855 9.35156 82.0176c-25.3467 0.619141 -50.7012 0.701172 -76.0518 0.254883c-2.1416 -18.1377 -4.18164 -36.2949 -5.93555 -54.4951c-1.8877 -19.5557 -3.46973 -39.1309 -4.9541 -58.7178
c24.9355 1.32324 49.8945 2.18457 74.8652 2.58398c0.876953 9.45215 1.74609 18.9043 2.72461 28.3564z" />
    <glyph glyph-name="dollar" unicode="$" horiz-adv-x="355" 
d="M301.422 113.176c7.74512 -34.748 3.20117 -71.9033 -9.13379 -105.104c-16.8418 -45.3291 -61.0742 -69.8613 -105.232 -64.6377c1.05762 -13.2119 2.29883 -26.4277 3.81836 -39.6475c1.33887 -11.6611 -23.0957 -19.6416 -24.4854 -6.52734
c-1.85645 17.4951 -3.24609 34.9824 -4.30762 52.458c-5.95215 2.32617 -11.8066 5.21582 -17.4844 8.76367c-59.6758 37.2979 -66.168 117.27 -20.209 167.994c6.2334 6.87988 21.8809 3.28516 13.7441 -6.27734c-30.2959 -35.582 -32.25 -88.8555 -2.62695 -125.616
c6.98926 -8.67383 15.71 -16.1133 25.3896 -21.9004c-2.82324 66.5361 -0.512695 132.932 4.49902 199.245c-57.2949 45.54 -119.445 105.956 -115.185 184.185c4.22461 77.5518 55.9795 145.808 129.388 171.361c7.83105 2.72559 16.2305 4.91406 24.8213 6.26855
c2.31836 23.4785 4.4209 46.9648 6.1709 70.4551c0.646484 8.68945 19.0742 14.4648 18.4434 4.91797c-1.625 -24.626 -3.64551 -49.2441 -5.89746 -73.8623c19.7197 0.0195312 39.0439 -5.3291 53.5713 -19.5234c27.1045 -26.4785 24.7236 -67.1279 18.4268 -101.387
c-2.41992 -13.165 -35.0615 -23.7529 -34.7559 -5.71289c0.387695 22.915 3.16406 48.3281 -9.38965 68.8193c-7.78418 12.707 -19.2969 17.6914 -31.7021 17.7852c-7.58105 -75.1357 -16.8066 -150.275 -24.0781 -225.462
c16.6143 -18.6309 34.1689 -36.541 49.1895 -54.9102c24.9121 -30.4648 48.3242 -62.6562 57.0254 -101.685zM135.04 405.119c-3.68066 -45.0039 15.8086 -80.9775 41.7461 -113.615c7.4043 66.8379 16.0068 133.629 23.2822 200.436
c-2.40039 -0.802734 -4.78906 -1.71484 -7.13477 -2.75684c-33.5811 -14.915 -54.9219 -47.7334 -57.8936 -84.0635zM256.856 -18.7607c56.7588 62.5303 -19.9512 134.02 -70.6797 174.395c-3.71582 -64.418 -4.62012 -128.895 -0.461914 -193.461
c25.0098 -6.55469 51.9307 -2.09863 71.1416 19.0664z" />
    <glyph glyph-name="percent" unicode="%" horiz-adv-x="542" 
d="M470.808 615.656c18.2939 -3.18359 27.0996 -20.6777 18.1094 -37.1201c-135.99 -248.493 -266.639 -498.847 -379.134 -759.04c-12.1895 -28.1895 -72.5781 -28.8203 -57.1152 9.42871c105.35 260.608 223.777 518.405 365.86 761.232
c10.0635 17.2021 32.2422 28.9883 52.2793 25.499zM117.743 318.636c-52.0127 11.6729 -70.9326 67.9785 -67.3105 115.739c0.904297 11.9785 10.7051 23.4199 22.6289 30.3896c25.2881 29.1094 66.0469 48.2061 104.335 35.8359
c43.5938 -14.085 53.1133 -68.999 43.4492 -108.392c-11.2266 -45.7598 -53.7168 -84.6592 -103.103 -73.5732zM167.49 459.913c-14.6367 15.0088 -36.2227 11.8887 -52.2461 1.08496c1.35059 -2.39648 2.41992 -5.2002 3.09375 -8.52441
c4.87891 -24.0664 3.38281 -51.7393 20.083 -71.627c4.08398 -4.85938 14.1162 -14.3438 21.5518 -13.9561c-2.41602 0.164062 5.56836 4.98828 7.1582 6.69922c4.13086 4.43652 7.24414 9.64453 9.73047 15.1543c9.85547 21.8418 8.17969 53.168 -9.37109 71.1689z
M431.374 147.774c45.0977 -20.3896 60.3018 -79.1562 44.0557 -123.714c-16.9512 -46.4717 -77.1475 -72.0615 -122.527 -53.2383c-49.3857 20.4873 -65.4521 77.873 -47.1934 125.159c0.30957 0.802734 0.654297 1.58594 1.00684 2.36523
c-1.66797 4.01758 -1.56641 9.43652 1.22168 16.4766c17.8711 45.1562 84.917 50.3643 123.437 32.9512zM420.871 26.7432c8.04688 21.1494 1.85547 56.7227 -15.5654 71.4541c-7.00098 5.9209 -24.9189 13.29 -36.8506 12.8672
c1.38965 -3.22266 1.69141 -6.98145 0.282227 -11.2695c-8.0625 -24.5518 -7.90234 -53.9434 12.7256 -72.4648c11.4414 -10.2705 32.3125 -19.2373 39.4082 -0.586914z" />
    <glyph glyph-name="ampersand" unicode="&#x26;" horiz-adv-x="537" 
d="M388.44 168.599c35.4883 -4.28418 77.999 -21.7725 90.5488 -58.416c25.4561 -74.3018 -81.3574 -129.65 -136.39 -147.921c-16.6963 -5.54492 -34.8145 -9.8252 -53.5391 -12.5195c2.2168 -43.8838 6.40625 -87.748 13.3525 -131.585
c1.76953 -11.1758 -21.7754 -19.0508 -23.7295 -6.32422c-6.93066 45.1289 -10.9365 90.2773 -12.8906 135.438c-53.3008 -3.64551 -108.822 6.4375 -149.119 38.3818c-28.6201 22.6875 -45.3604 57.6553 -41.0801 94.2793c4.59668 39.3145 30.2217 71.6895 58.5791 97.4551
c21.3604 19.4062 44.7373 36.5137 69.1367 51.9688c-22.5938 0.43457 -45.1094 2.75293 -66.1992 8.34863c-31.6318 8.39551 -63.8467 25.3428 -78.4482 56.3438c-14.915 31.6709 -9.13184 68.4316 6.45703 98.6221c31.5801 61.1602 98.1396 101.273 160.709 124.65
c22.5117 8.41113 46.7266 15.1777 71.5137 19.4619c1.21387 27.3438 2.0166 54.6836 2.18848 82.0234c0.0625 9.51953 19.9697 15.8438 19.9541 5.31836c-0.046875 -28.1504 -0.763672 -56.3125 -1.91504 -84.4707c36.0283 4.12305 72.6016 2.61523 106.355 -7.27246
c25.3623 -7.42773 53.0781 -22.1074 61.125 -49.2744c8.9043 -30.0615 -11.5322 -56.7666 -28.0762 -79.8184c-13.627 -18.9834 -52.4277 -6.24121 -32.708 14.9316c11.5049 12.3506 25.625 28.0059 21.4316 46.5c-3.25391 14.3672 -17.3154 23.6826 -29.9512 29.0703
c-30.5469 13.0273 -66.4775 12.5498 -98.8369 8.08984c-0.379883 -0.0507812 -0.759766 -0.121094 -1.13574 -0.175781c-3.5791 -66.082 -9.21777 -132.176 -14.5664 -198.258c11.4414 1.12793 22.8477 2.52539 34.2148 4.34668
c19.6689 3.15625 36.8594 7.63574 56.2109 1.13965c15.2402 -5.11426 12.9766 -23.123 6.06934 -33.4102c-0.763672 -1.13574 -1.62891 -2.22852 -2.5332 -3.29395c0.0507812 -0.0234375 0.105469 -0.046875 0.15625 -0.0703125
c-0.27832 -0.258789 -0.583984 -0.490234 -0.866211 -0.749023c-3.21875 -3.5752 -7.19336 -6.68848 -11.5908 -9.15918c-22.8057 -15.3574 -52.624 -22.4062 -81.3457 -26.3926c-1.92285 -0.865234 -3.85352 -1.71094 -5.76855 -2.5957
c-2.00879 -27.4766 -3.81738 -54.9492 -5.25879 -82.418c29.7793 16.0469 63.4941 21.9131 97.9453 17.7549zM267.797 135.792c1.5625 28.9023 3.55078 57.8037 5.77539 86.7139c-4.62402 -2.35352 -9.22461 -4.74609 -13.79 -7.20898
c-29.4307 -15.8936 -57.417 -34.5869 -83.2764 -55.8145c-21.5488 -17.6914 -41.915 -39.126 -48.0508 -67.2178c-6.15527 -28.1934 6.34375 -54.8867 27.54 -73.3223c28.6357 -24.9121 69.0381 -34.9131 108.642 -35.2305
c-0.873047 45.0078 0.136719 90.0312 2.29395 135.062c-4.55762 3.95117 -5.47363 10.8662 0.866211 17.0176zM280.076 301.67c5.61133 65.4756 11.4561 130.962 15.2695 196.449c-51.6836 -10.8975 -102.385 -35.2852 -139.999 -72.0537
c-20.957 -20.4873 -36.8389 -47.0205 -26.3057 -76.9873c8.81836 -25.0801 35.7549 -39.2236 60.3145 -44.1729c29.5996 -5.96777 60.6592 -5.37695 90.7207 -3.23535zM324.589 -9.51562c39.4043 9.52344 142.264 51.0996 113.013 108.215
c-12.6006 24.6025 -44.4902 34.9561 -70.1465 37.3877c-26.8193 2.54102 -54.3545 -4.31934 -78.4365 -16.1406c-1.87598 -45.1328 -2.53027 -90.2461 -1.30078 -135.344c12.7891 1.08887 25.2451 3.07422 36.8711 5.88184z" />
    <glyph glyph-name="quotesingle" unicode="'" horiz-adv-x="126" 
d="M72.6553 541.245c2.21289 -13.8066 3.33594 -27.6631 3.37109 -41.6426c0.0351562 -11.7979 -24.5127 -18.8027 -24.1055 -6.4248c0.46582 14.0732 -0.15332 28.0645 -1.86426 42.0439c-1.30371 10.6748 20.6562 18.1543 22.5986 6.02344z" />
    <glyph glyph-name="quotesingle" unicode="&#x2019;" horiz-adv-x="126" 
d="M72.6553 541.245c2.21289 -13.8066 3.33594 -27.6631 3.37109 -41.6426c0.0351562 -11.7979 -24.5127 -18.8027 -24.1055 -6.4248c0.46582 14.0732 -0.15332 28.0645 -1.86426 42.0439c-1.30371 10.6748 20.6562 18.1543 22.5986 6.02344z" />
    <glyph glyph-name="quotesingle" unicode="&#x2018;" horiz-adv-x="126" 
d="M72.6553 541.245c2.21289 -13.8066 3.33594 -27.6631 3.37109 -41.6426c0.0351562 -11.7979 -24.5127 -18.8027 -24.1055 -6.4248c0.46582 14.0732 -0.15332 28.0645 -1.86426 42.0439c-1.30371 10.6748 20.6562 18.1543 22.5986 6.02344z" />
    <glyph glyph-name="parenleft" unicode="(" horiz-adv-x="363" 
d="M284.258 -88.0469c12.6123 8.39551 39.4814 1.50391 23.54 -15.459c-25.3779 -27.0146 -61.0117 -37.4814 -97.4004 -34.2822c-37.7832 3.32031 -69.0352 24.4453 -91.9658 53.8877c-45.3682 58.2588 -58.0674 135.904 -63.7959 207.586
c-6.5 81.291 -7.59277 163.983 6.18262 244.601c12.9453 75.7695 39.1729 148.571 82.9551 212.108c19.5557 28.377 42.9209 55.4697 76.3887 67.2363c21.29 7.4873 66.5361 11.8809 69.9785 -19.5625c0.810547 -7.42383 -8.08203 -11.7666 -13.9521 -12.6084
c-13.7324 -1.96582 -28.5967 -0.293945 -41.4053 -6.61035c-10.7178 -5.28613 -18.5176 -15.8193 -24.8496 -25.6162c-16.3994 -25.3779 -28.7031 -54.0371 -38.0576 -82.6807c-38.374 -117.512 -39.3525 -241.691 -26.6377 -363.679
c5.70898 -54.75 13.8613 -113.709 37.7627 -163.897c15.2754 -32.0742 59.6523 -88.7119 101.257 -61.0234z" />
    <glyph glyph-name="parenright" unicode=")" horiz-adv-x="363" 
d="M236.9 564.481c81.8779 -133.958 84.707 -303.173 66.8828 -454.692c-8.40332 -71.4824 -27.4922 -150.529 -80.5195 -202.883c-43.751 -43.1943 -123.425 -68.9014 -170.257 -15.3145c-11.7041 13.3916 13.6973 31.8584 26.1807 24.1289
c51.7344 -32.043 93.5234 17.4053 109.358 62.8398c19.3594 55.5332 27.3203 115.573 31.6514 173.969c4.82812 65.0879 5.4707 130.599 -1.04883 195.604c-5.88574 58.6816 -19.3242 117.309 -41.9805 171.858c-9.90332 23.8428 -21.126 50.1914 -38.3984 69.7549
c-9.07324 10.2793 -19.6221 18.3184 -32.9316 22.0928c-9.09668 2.58008 -18.3652 1.37012 -27.4541 3.75879c-4.24121 1.1123 -7.33496 3.87695 -6.36816 8.66602c7.18164 35.4883 64.8604 31.9678 89.1221 21.2188c34.1924 -15.1504 56.9746 -50.2627 75.7627 -81.001z
" />
    <glyph glyph-name="asterisk" unicode="*" horiz-adv-x="222" 
d="M164.195 487.713c14.7314 1.19824 6.89746 -16.5879 -4.18066 -17.4648c-8.78711 -0.689453 -17.5781 -1.31641 -26.3691 -1.8877c7.44336 -7.70605 15.1221 -15.1973 23.0869 -22.4258c8.70117 -7.89453 -10.3174 -20.6328 -18.0352 -13.6279
c-7.54199 6.84082 -14.8057 13.9248 -21.8584 21.1924c-0.422852 -10.874 -0.767578 -21.7598 -0.975586 -32.6494c-0.204102 -10.749 -22.6572 -17.3857 -22.2188 -5.9209c0.430664 11.2734 0.998047 22.5352 1.65625 33.793
c-5.29004 -6.02637 -10.3096 -12.292 -14.8945 -18.957c-7.72949 -11.2344 -30.6602 -8.68945 -20.0332 5.97852c7.44336 10.2754 15.8311 20.335 24.8135 30.0811c-9.05664 -0.360352 -18.1133 -0.669922 -27.1787 -0.905273
c-14.543 -0.379883 -6.89551 16.834 4.10742 17.1514c9.4248 0.274414 18.8418 0.630859 28.2588 1.03809c-7.80371 9.48047 -15.291 19.2344 -22.4258 29.3057c-6.12402 8.6416 14.3008 19.085 20.6758 10.0869c3.60254 -5.08301 7.33008 -10.0479 11.124 -14.9619
c0.892578 9.55469 1.85547 19.1055 2.90918 28.6484c1.03418 9.32324 20.7031 13.0312 19.6143 1.18652c-1.1709 -12.7461 -2.12598 -25.5039 -2.9834 -38.2656c10.623 9.44043 21.4736 18.3799 32.1562 26.6699c6.59375 5.11816 19.3672 0.802734 12.002 -7.88281
c-9.78125 -11.5361 -20.6396 -22.0771 -31.6074 -32.5205c10.7881 0.701172 21.5762 1.45703 32.3564 2.33789z" />
    <glyph glyph-name="plus" unicode="+" horiz-adv-x="262" 
d="M203.521 234.795c15.3027 -0.0976562 7.33984 -18.1494 -4.32129 -18.0713c-12.5186 0.0820312 -25.0293 -0.0195312 -37.5322 -0.274414c-0.274414 -2.41602 -0.576172 -4.82422 -0.823242 -7.24414c-3.77051 -36.9336 0.732422 -77.4385 -7.92578 -113.389
c-4.64844 -19.2969 -49.4756 -42.8418 -59.6875 -16.1211c-13.502 35.332 -7.99219 80.5664 -5.03613 117.562c0.422852 5.27832 0.888672 10.5527 1.39355 15.8232c-10.4199 -0.759766 -20.832 -1.61328 -31.2402 -2.60742
c-15.2402 -1.45312 -7.06836 16.9863 4.32617 18.0752c9.60547 0.916016 19.2148 1.70703 28.8281 2.42383c3.35156 28.7725 8.21875 57.3535 15.6787 85.3711c4.92578 18.5176 25.1309 31.2715 43.5391 32.2734c16.5518 0.900391 32.9941 -9.60547 29.1406 -27.876
c-6.0459 -28.6631 -11.8174 -57.3105 -15.9092 -86.2715c13.1807 0.290039 26.3691 0.411133 39.5693 0.325195z" />
    <glyph glyph-name="comma" unicode="," horiz-adv-x="193" 
d="M80.2148 61.6875c12.9336 29.5908 78.1279 28.5098 59.501 -9.82129c-12.8555 -26.4434 -22.9033 -54.0342 -31.9443 -81.9922c-4.71094 -14.5664 -19.2109 -24.6924 -34.4277 -25.5186c-13.5879 -0.736328 -25.4014 7.58496 -23.04 22.042
c5.43066 33.2686 16.4375 64.457 29.9111 95.29z" />
    <glyph glyph-name="hyphen" unicode="-" horiz-adv-x="301" 
d="M223.966 254.334c15.2559 1.51172 30.0898 -9.09277 26.6123 -25.457c-3.70801 -17.46 -23.4551 -27.8525 -39.7607 -29.4697c-47.584 -4.72266 -95.1055 -6.07715 -142.831 -2.89355c-14.7236 0.978516 -21.0713 15.4668 -16.5566 27.7783
c5.08691 13.8691 22.4531 25.4053 37.3096 25.2295c45.1914 -0.536133 90.2266 0.348633 135.227 4.8125z" />
    <glyph glyph-name="period" unicode="." horiz-adv-x="169" 
d="M118.686 25.6699c0.892578 -5.79492 -0.383789 -12.0098 -0.939453 -17.8682c-1.40137 -5.23926 -3.92676 -9.86816 -7.58008 -13.8896c-2.2002 -2.02832 -4.39648 -4.05273 -6.59277 -6.08105c-7.26367 -5.90527 -16.8027 -9.01074 -26.0322 -9.83301
c-4.14648 -0.461914 -8.12891 0.03125 -11.9512 1.48828c-3.6377 0.701172 -6.83691 2.36523 -9.58984 4.98047c-5.03613 4.76562 -7.16992 12.5771 -5.36523 19.2734c1.69141 6.27734 3.4375 12.21 6.36621 18.1113c1.92285 3.67285 4.4873 6.78223 7.68652 9.33105
c3.11328 3.24609 6.75098 5.79492 10.917 7.64746c5.37598 2.41211 11.0771 4.05664 16.9551 4.58105c3.93945 0.442383 7.72559 -0.03125 11.3555 -1.41309c2.38477 -0.348633 4.4834 -1.30762 6.29688 -2.88574c3.03906 -1.53125 5.28711 -3.9043 6.74414 -7.11133
c0.579102 -2.11035 1.1543 -4.2207 1.72949 -6.33105z" />
    <glyph glyph-name="slash" unicode="/" horiz-adv-x="488" 
d="M417.34 566.521c17.625 -3.07031 25.249 -19.4521 17.1475 -35.1504c-27.1797 -52.6123 -58.8193 -102.949 -87.9209 -154.523c-29.2471 -51.8213 -57.5771 -104.124 -85.5156 -156.657c-28.0254 -52.6982 -54.9189 -105.987 -82.917 -158.689
c-27.7393 -52.2207 -51.7861 -109.868 -87.3447 -157.292c-9.62109 -12.832 -44.6436 -17.0098 -40.4424 6.67676c5.07129 28.5928 18.7998 56.9307 29.8779 83.6553c10.792 26.04 22.3555 51.8057 33.8799 77.5322c24.1641 53.9512 51.0732 106.971 78.2402 159.461
c27.293 52.7412 55.6426 104.954 84.5605 156.818c28.9844 51.9814 57.4092 104.809 90.9355 154.025c10.7803 15.8271 29.4932 27.625 49.499 24.1436z" />
    <glyph glyph-name="zero" unicode="0" horiz-adv-x="398" 
d="M315.532 417.401c18.6934 -46.2568 27.4805 -96.4297 30.4443 -146.042c5.53711 -92.623 2.18945 -217.605 -73.8389 -283.75c-34.5137 -30.0303 -89.7686 -45.96 -131.898 -22.3867c-39.2236 21.9434 -61.7979 71.0469 -74.0303 112.275
c-28.2793 95.3291 -16.207 200.835 10.5605 295.619c8.90039 76.4277 76.3213 189.271 158.587 145.631c17.668 -9.37402 30.0381 -23.9443 41.4326 -39.9365c14.293 -20.0605 29.4004 -38.2959 38.7432 -61.4102zM284.352 261.946
c0.662109 41.166 0.59082 82.502 -6.19531 123.237c-6.33984 38.0654 -11.873 79.7324 -42.0439 106.634c-57.8555 51.5781 -110.307 -18.0244 -130.609 -81.9023c20.3467 8.75195 44.6201 5.91699 40.9277 -20.1699c-12.9375 -91.3662 -40.4102 -182.062 -15.3457 -274.247
c10.7607 -39.5762 60.291 -148.168 107.452 -80.5c20.8555 29.9277 29.2354 69.1475 35.2891 104.437c6.92676 40.3789 9.87109 81.5762 10.5254 122.512z" />
    <glyph glyph-name="one" unicode="1" horiz-adv-x="301" 
d="M233.126 -13.918c28.9531 3.93555 18.7783 -33.6699 -3.06348 -37.3428c-25.0762 -4.2168 -50.3252 -7.19238 -75.625 -9.69824c-19.5117 -1.93457 -50.0078 -8.42285 -67.6953 2.26758c-10.2002 6.16309 -2.80762 16.2695 4.76562 20.7217
c7.39648 4.34668 15.9053 7.02148 24.8096 8.81445c-0.250977 1.35059 -0.451172 2.75195 -0.556641 4.24023c-8.30957 115.644 11.876 234.553 34.2432 347.573c5.49023 27.7432 10.8037 55.4629 15.8154 83.2959c5.22363 29.0117 14.4648 60.584 14.4531 90.124
c-0.0195312 46.5117 -52.9961 -1.70312 -65.9609 -16.7354c-16.8691 -19.5596 -31.7764 -40.916 -47.2832 -61.5557c-6.19434 -8.24609 -22.9111 -4.02148 -14.8955 6.79785c28.4365 38.3896 62.167 99.1777 113.815 109.128
c27.8447 5.36426 32.7588 -14.8955 40.915 -36.7803c10.7178 -28.7686 17.4805 -57.7295 18.542 -88.5586c2.31055 -67.1592 -6.68359 -134.851 -11.0928 -201.759c-4.5498 -69.0625 -5.83789 -137.314 -4.59668 -206.482
c0.113281 -6.33594 -1.72363 -12.4053 -4.88379 -18.0322c9.42871 1.35059 18.8535 2.69727 28.2939 3.98145z" />
    <glyph glyph-name="two" unicode="2" horiz-adv-x="341" 
d="M239.96 526.314c27.3281 -13.2627 35.2852 -36.7061 40.8613 -64.5703c3.80176 -18.9951 10.5645 -36.8076 10.5449 -56.4844c-0.015625 -16.7949 -2.12207 -34.0166 -5.3291 -50.4707c-6.98926 -35.8721 -18.4502 -70.75 -31.4268 -104.868
c-27.3125 -71.8066 -63.3613 -140.324 -93.0898 -211.172c-6.94629 -16.5596 -37.5908 -70.4326 -5.12891 -75.0693c35.7705 -5.10645 68.5254 14.9854 102.244 21.6777c19.6377 3.89648 28.0684 -13.0938 12.7539 -26.1445
c-29.3838 -25.041 -74.916 -32.9121 -112.115 -37.6309c-29.4111 -3.73535 -75.124 -2.88574 -92.584 25.5508c-17.8555 29.082 -1.53809 66.8301 9.13281 95.6816c13.0078 35.1709 29.4463 69.1318 45.8027 102.835c31.1846 64.2578 65.3496 127.027 95.6729 191.7
c8.61035 18.3613 16.5557 37.082 23.373 56.1787c6.45312 18.0908 14.8096 37.2471 16.7676 56.5244c3.65332 35.9463 -23.4512 63.9639 -58.2812 66.5439c-35.5352 2.63574 -64.1787 -20.1504 -85.4023 -46.3701c-22.4414 -27.7236 -46.4414 -63.7168 -42.667 -100.818
c0.978516 -9.62109 -18.8857 -16.3564 -20.3311 -5.41992c-5.01562 37.9902 15.6748 71.8926 37.0039 101.629c19.3906 27.0342 44.3418 52.0674 76.3613 63.3447c24.1094 8.48926 52.542 8.66113 75.8369 -2.64746z" />
    <glyph glyph-name="three" unicode="3" horiz-adv-x="380" 
d="M242.546 279.509c37.9824 -18.1143 67.6982 -54.8281 79.5625 -94.3027c18.8896 -62.8555 2.50586 -129.869 -36.5615 -181.467c-35.7627 -47.2314 -97.1221 -81.5723 -157.483 -66.4688c-52.8545 13.2275 -82.7588 64.0811 -76.7949 116.654
c2.1377 18.8311 47.502 31.5098 47.1104 7.74512c-0.598633 -36.4316 20.2607 -76.8418 60.3662 -80.4678c38.0771 -3.44238 64.501 25.5225 78.1514 57.8662c30.1045 71.3213 18.4043 170.15 -68.1064 190.825c-28.6553 6.84863 -24.4307 34.9287 -4.9502 50.4512
c57.8828 46.1201 156.524 136.824 86.0566 212.778c-34.4707 37.1562 -80.2773 25.3818 -116.044 -3.5127c-21.9355 -17.7227 -84.6152 -87.4385 -47.3135 -113.008c9.28809 -6.36719 -8.68945 -16.5244 -15.2988 -14.1006
c-54.1426 19.8643 9.67188 103.826 32.0186 125.774c35.1826 34.5566 89.8311 65.4014 138.954 41.457c49.9844 -24.3682 60.9951 -79.8779 58.3994 -130.571c-2.41211 -47.0869 -28.7529 -84.96 -58.0664 -119.653z" />
    <glyph glyph-name="four" unicode="4" horiz-adv-x="348" 
d="M260.797 545.54c13.6074 2.31445 37.4736 -2.43262 37.2109 -20.9072c-0.666016 -47.4199 -7.75391 -94.8008 -12.0654 -141.997c-4.17383 -45.7246 -6.71875 -91.6094 -8.03418 -137.502c-1.37012 -47.8232 -2.72852 -95.6699 -2.34082 -143.517
c0.1875 -23.3887 0.378906 -46.7539 0.4375 -70.1426c0.0546875 -22.7979 1.48438 -47.7686 -6.80176 -69.3408c-6.47266 -16.8535 -32.2227 -29.6191 -45.1133 -12.1865c-13.4385 18.1729 -15.4434 44.8662 -18.4902 66.6689c-3.35547 24 -5.5957 48 -7.31055 72.1719
c-1.22168 17.2139 -2.27539 34.4316 -3.08203 51.6533c-32.7666 -15.209 -72.5469 -31.0088 -105.212 -19.4922c-40.1992 14.1709 -41.4756 62.9766 -39.4043 98.4062c3.00293 51.3711 13.4697 102.347 22.7383 152.867c9.70312 52.8975 20.4482 105.615 31.6084 158.224
c2.23242 10.5215 25.2881 14.7227 22.582 1.36621c-17.335 -85.5713 -34.6309 -171.612 -47.3301 -258.014c-5.15723 -35.0693 -18.0635 -94.0762 8.72461 -123.723c24.7949 -27.4414 73.0957 -5.83008 105.502 9.79004
c-0.787109 22.1826 -1.12793 44.3848 -0.841797 66.6064c0.615234 47.377 2.6748 94.7344 6.17578 141.981c3.54785 47.8779 7.15039 96.6133 19.3281 143.188c4.88281 18.6699 23.6592 30.8281 41.7188 33.8984z" />
    <glyph glyph-name="five" unicode="5" horiz-adv-x="391" 
d="M225.585 303.716c28.7646 -8.78711 56.6543 -24.3877 76.6211 -47.2793c41.1309 -47.1572 47.3564 -117.046 30.2285 -175.555c-17.2764 -59.0381 -58.3447 -108.862 -112.315 -138.332c-45.8418 -25.0293 -109.104 -36.4824 -146.19 8.92871
c-38.5078 47.1494 -22.5195 110.913 -7.36133 164.136c3.27734 11.5088 29.3486 17.0693 25.9219 1.56738c-8.61816 -39.0205 -17.2881 -78.3311 0.203125 -116.126c14.7939 -31.9678 42.8271 -51.1475 78.1826 -38.0811c55.5293 20.5225 81.8154 77.6064 88.6211 132.912
c7.50684 60.9951 -10.0205 119.974 -71.1416 143.699c-31.3457 12.1699 -59.8955 5.46973 -91.9541 4.09961c-15.4238 -0.658203 -31.8037 4.96484 -37.6143 20.127c-5.58008 14.5586 1.12012 33.5225 5.09473 47.8066c9.60156 34.5137 24.3916 67.4141 35.6768 101.395
c9.77344 29.4346 19.6924 58.7559 29.7754 88.0693c-15.6357 -1.31934 -31.2598 -2.77637 -46.8682 -4.47559c-15.7256 -1.71094 -7.25195 17.4102 4.47559 18.6865c16.4346 1.78906 32.8848 3.31641 49.3467 4.68652c6.71582 10.0244 31.166 20.3896 31.9102 2.93359
c0.0078125 -0.179688 0.0078125 -0.355469 0.015625 -0.535156c50.9121 3.38281 101.935 4.79297 153.012 4.14258c15.8154 -0.199219 7.59668 -18.8379 -4.47559 -18.6855c-49.4561 0.626953 -98.8613 -0.645508 -148.164 -3.79785
c0.109375 -32.9746 -3.14844 -64.9424 -9.1748 -97.8271c-3.61816 -19.7471 -7.63965 -39.498 -12.5537 -58.9668c-2.61133 -10.3418 -5.50879 -20.5889 -7.61133 -31.0596c-0.254883 -1.25684 -0.458984 -2.54883 -0.650391 -3.84863
c0.689453 0.0585938 1.375 0.167969 2.06445 0.21875c8.25879 0.626953 16.5137 0.775391 24.792 0.52832c20.6592 -0.615234 40.3359 -3.31738 60.1338 -9.36719zM135.818 298.03c-0.352539 -2.41211 0.360352 -1.62891 0 0z" />
    <glyph glyph-name="six" unicode="6" horiz-adv-x="388" 
d="M254.551 539.718c38.2842 -2.25195 84.7012 -18.6533 83.1152 -64.5264c-0.34082 -9.82812 -21.0469 -16.9277 -21.0859 -5.61914c-0.0820312 23.5576 -17.5977 42.2275 -40.8457 45.9082c-21.1133 3.34375 -40.8369 -9.35547 -55.3955 -23.4053
c-26.2002 -25.2842 -39.8506 -63.3652 -51.6875 -97.002c-21.5488 -61.2305 -37.2939 -124.842 -39.3457 -189.772c31.3809 24.0234 69.4385 39.9014 109.176 30.4209c45.3057 -10.8076 74.0156 -53.0781 83.4248 -96.6992
c19.25 -89.2285 -35.3242 -191.578 -133.837 -193.614c-115.162 -2.38086 -138.438 136.762 -138.065 224.866c0.438477 104.089 31.9092 211.897 89.4746 298.952c26.4785 40.042 64.0732 73.4941 115.072 70.4912zM221.674 204.943
c-35.2422 4.58887 -65.2451 -21.6006 -88.4189 -44.7705c-0.900391 -0.904297 -1.89062 -1.78906 -2.94434 -2.65039c2.0166 -29.1211 6.65723 -58.4385 15.7305 -86.0049c9.53516 -28.9766 23.8828 -62.1113 49.3818 -80.6523
c35.3945 -25.7344 71.3799 1.92676 88.6797 35.2539c17.3506 33.4209 23.0322 75.5039 12.4873 111.818c-9.84766 33.9219 -38.8594 62.3066 -74.916 67.0059z" />
    <glyph glyph-name="seven" unicode="7" horiz-adv-x="330" 
d="M248.795 544.256c23.1299 -5.34473 28.1143 -28.999 30.2559 -49.9482c3.19141 -31.2793 -6.93848 -65.6123 -14.292 -95.6934c-11.4775 -46.9541 -26.3535 -93.0146 -40.583 -139.248c4.98828 0.598633 9.97266 1.2373 14.9492 1.91113
c16.207 2.19629 7.29102 -17.6172 -4.62109 -19.3008c-5.41504 -0.767578 -10.834 -1.46094 -16.2529 -2.11133c-3.61035 -11.9746 -7.16992 -23.9648 -10.5449 -35.998c-9.54297 -34.0117 -18.6865 -68.2275 -26.7764 -102.611
c-8.09766 -34.4229 -11.9395 -70.5146 -21.6309 -104.437c-6.26562 -21.9277 -27.4307 -36.1729 -49.0381 -39.8457c-15.5615 -2.64355 -44.5928 2.84668 -43.7432 24.5947c1.26855 32.415 9.83203 64.7939 17.4639 96.2139c7.25586 29.8887 15.209 59.6875 24.6611 88.9619
c7.33008 22.7109 15.1221 45.2383 23.2744 67.625c-5.87793 -0.0585938 -11.7637 -0.0664062 -17.6611 0.00390625c-15.334 0.1875 -7.29883 17.9609 4.32715 18.0742c6.72754 0.0625 13.4551 0.230469 20.1787 0.442383c11.3086 30.2451 23.2285 60.2637 35.5518 90.1602
c11.9824 29.0781 25.4287 57.5303 38.1113 86.3066c6.62109 15.0205 12.7334 30.3389 19.6758 45.1992c6.10449 13.0742 27.6094 40.1045 8.53223 50.4189c-9.76953 5.28223 -28.2754 0.226562 -38.4834 -1.23047c-15.9609 -2.2832 -31.875 -4.85547 -47.7334 -7.74902
c-31.3066 -5.71289 -62.3584 -12.6318 -93.1914 -20.5029c-15.2012 -3.88086 -14.2383 14.1201 -1.45703 17.417c35.5664 9.17871 71.4307 17.0654 107.624 23.3506c25.123 4.36621 55.8691 13.8975 81.4033 7.99609z" />
    <glyph glyph-name="eight" unicode="8" horiz-adv-x="350" 
d="M53.8311 42.6406c-14.8096 78.3623 14.7002 162.115 64.6689 223.519c-25.8906 35.9619 -50.6104 76.0234 -52.584 120.749c-2.23242 50.5762 27.7617 102.425 69.9385 129.616c34.7012 22.375 86.0205 29.7324 115.482 -5.42676
c28.1387 -33.5771 26.9951 -77.1084 22.8252 -118.286c-4.56543 -45.0586 -17.832 -91.6406 -33.3818 -134.854c9.35449 -13.5137 18.333 -27.2695 26.2861 -41.6914c23.2051 -42.0664 39.9883 -96.2803 29.0439 -144.26
c-9.29199 -40.7354 -32.0703 -84.5059 -65.9102 -110.193c-29.9707 -22.751 -69.7666 -31.0527 -105.126 -16.3564c-39.9131 16.5908 -63.4941 56.1709 -71.2432 97.1846zM163.026 475.369c-27.6416 -43.8174 -2.97949 -91.832 19.708 -131.694
c11.4219 -20.0723 24.7314 -38.9189 38.166 -57.6797c15.2324 42.0469 28.4639 84.6348 25.9463 130.441c-1.28809 23.4121 -5.20801 56.7783 -25.0566 72.3242c-21.2002 16.6025 -45.7129 7.29883 -58.7637 -13.3916zM81.709 139.605
c-10.3301 -51.1201 -9.03711 -113.889 30.0537 -153.289c36.2246 -36.5146 89.0596 -33.9346 121.384 6.21387c30.1279 37.4189 3.68848 99.2842 -16.0039 135.912c-23.1416 43.0459 -56.4453 80.6602 -85.4727 119.763
c-0.411133 0.547852 -0.822266 1.11133 -1.2334 1.66309c-23.7998 -32.7549 -40.6416 -70.248 -48.7275 -110.263z" />
    <glyph glyph-name="nine" unicode="9" horiz-adv-x="390" 
d="M264.977 325.632c0.857422 30.2061 1.65918 60.707 4.2793 90.8076c1.02637 11.7432 5.43945 24.1602 4.27637 35.958c-0.579102 5.88184 -6.6875 29.5879 -14.4756 28.5732c-9.02148 -1.1748 -19.3867 -61.0664 -21.5439 -69.5244
c-5.8623 -22.9775 -11.7871 -45.9082 -18.8594 -68.5488c-11.9863 -38.3779 -28.1699 -79.5635 -56.0381 -109.429c-28.6982 -30.7578 -85.1787 -41.9766 -106.046 4.60938c-10.0439 22.4258 -6.29688 51.2422 -3.52441 74.8311
c2.69824 22.9619 8.54492 44.7725 16.9326 66.3008c17.1787 44.0996 43.8369 86.2607 79.5996 117.677c17.5107 15.3809 40.5273 27.3008 64.4053 26.0557c18.7725 -0.978516 27.4658 -13.7988 31.9375 -30.5586c8.23438 9.83594 21.1367 17.4756 31.7441 6.24902
c6.33594 -6.7041 9.87207 -17.1826 13.0166 -25.5781c4.11523 -10.9834 8.1875 -19.543 13.9707 -29.7393c25.6211 -45.168 29.7402 -105.169 33.4443 -155.917c3.9668 -54.3975 0.759766 -109.391 -5.88965 -163.451
c-5.91309 -48.1006 -14.1514 -100.513 -39.0635 -142.967c-26.0518 -44.4043 -86.2646 -78.0762 -136.426 -53.1992c-44.5537 22.0928 -54.1475 72.4062 -57.4131 117.34c-1.80078 24.7832 44.3271 40.8887 51.6729 13.7764
c6.80566 -25.123 14.1279 -55.5801 36.71 -71.5723c6.00293 -4.24902 11.6689 -6.55566 18.3848 -6.14844c0.615234 0.650391 1.32422 1.51172 2.13477 2.70605c3.32422 4.90625 6.28027 10.126 8.9707 15.4004c24.5127 48.0811 30.0029 108.262 36.0996 161.065
c6.34766 54.9492 10.1299 109.993 11.7002 165.283zM206.001 -18.8984c-3.4502 -0.594727 -2.94434 -3.0625 0 0zM223.458 435.265c4.00586 15.1855 7.60156 31.8447 15.1826 46c-3.93555 -1.58203 -8.4502 -2.00879 -11.1797 -0.955078
c-8.16016 3.14453 -20.46 0.208008 -28.248 -3.41016c-10.3496 -4.80859 -18.6553 -17.6016 -25.1748 -26.4199c-14.3711 -19.4375 -26.0674 -41.7725 -33.7188 -64.7188c-7.85938 -23.5654 -13.4824 -48.7324 -14.9551 -73.5742
c-0.767578 -12.9727 -0.991211 -26.8105 2.25098 -39.4619c1.46875 -5.72852 6.29297 -23.3887 12.2529 -27.0029c11.168 -6.77441 35.3164 41.1504 40.0195 50.7207c10.9912 22.3672 19.0225 45.9404 25.707 69.9053c6.37891 22.8604 11.8096 45.9707 17.8633 68.917z" />
    <glyph glyph-name="colon" unicode=":" horiz-adv-x="172" 
d="M89.373 265.537c-13.8105 -4.12695 -34.4209 0.09375 -36.1436 17.123c-1.03418 10.2793 -2.06836 20.5547 -3.10645 30.834c-1.82129 18.0908 17.5303 31.541 32.4727 36.0049c13.5059 4.03711 36.0488 0.0546875 36.9453 -17.5039
c0.532227 -10.4121 1.06445 -20.8203 1.59668 -31.2324c0.916016 -17.8945 -16.4424 -30.6445 -31.7646 -35.2256zM121.754 86.3447c2.3457 -29.168 -55.5225 -49.7734 -61.8623 -16.4854c-3.46191 18.1494 -6.74707 37.8379 -6.41797 56.3398
c0.254883 14.418 11.2188 24.5479 23.9531 29.4424c9.12012 3.50488 30.124 5.31348 34.0557 -7.74121c5.91309 -19.6455 8.63086 -41.123 10.2715 -61.5557z" />
    <glyph glyph-name="semicolon" unicode=";" horiz-adv-x="170" 
d="M60.8076 279.595c0.822266 9.91895 -0.235352 20.334 -1.10449 30.2178c-0.876953 9.93457 8.66602 17.6055 16.8965 20.7695c6.72754 2.58398 20.8789 3.64941 24.0234 -5.46289c4.33496 -12.5693 6.08496 -24.7549 5.79492 -38.0215
c-0.532227 -24.626 -48.0342 -36.6436 -45.6104 -7.50293zM72.9697 126.829c3.46973 22.0303 50.7139 30.8604 46.7041 2.82324c-4.84375 -33.8398 -11.7158 -67.1904 -20.6553 -100.188c-6.04199 -22.3076 -56.0146 -30.3076 -48.1875 -2.91309
c9.4248 32.998 16.7979 66.3799 22.1387 100.278z" />
    <glyph glyph-name="less" unicode="&#x3c;" horiz-adv-x="304" 
d="M234.54 169.276c16.7559 -2.83105 23.7861 -18.1582 16.0918 -32.9873c-8.20312 -15.8115 -29.1289 -25.4053 -46.4678 -22.6641c-35.833 5.66211 -72.582 11.7549 -105.721 27.2412c-26.1689 12.2246 -58.834 37.4893 -45.2656 70.3701
c6.40234 15.5186 19.3945 25.4766 32.9629 34.5098c17.1396 11.4102 34.5723 22.5273 52.3574 32.9004c29.458 17.1826 63.5254 40.2852 98.2891 42.7324c15.2871 1.08105 18.999 -12.1309 11.207 -22.9736c-14.8408 -20.6553 -40.5518 -33.3301 -61.2734 -47.3604
c-20.9453 -14.1865 -42.0469 -28.248 -62.5771 -43.0264c3.12109 -3.26172 8.42285 -8.48926 8.54004 -8.57129c8.19141 -5.8584 18.4902 -9.74707 27.8408 -13.252c23.7217 -8.89648 49.1387 -12.7139 74.0156 -16.9189z" />
    <glyph glyph-name="equal" unicode="=" horiz-adv-x="331" 
d="M263.548 249.154c14.1475 -0.853516 20.1982 -14.9082 15.8867 -26.6592c-5.00781 -13.6699 -21.4268 -23.8857 -35.8057 -24.2148c-55.8428 -1.28809 -112.598 -3.0498 -168.417 -1.94141c-13.8809 0.27832 -28.1777 7.13477 -24.6768 23.6084
c3.4502 16.2383 21.7441 25.7539 36.8711 27.3281c57.6084 5.99902 118.389 5.36816 176.142 1.87891zM246.543 182.789c32.6924 -0.477539 15.7461 -39.2002 -9.25195 -38.6484c-55.5254 1.22168 -110.918 -1.24512 -166.114 -7.4082
c-10.4082 -1.15918 -20.4795 6.29688 -18.1299 17.3467c2.55664 12.0371 15.9717 18.7568 27.0889 20.0762c55.2666 6.56641 110.757 9.44824 166.407 8.63379z" />
    <glyph glyph-name="greater" unicode="&#x3e;" horiz-adv-x="312" 
d="M260.342 245.328c10.835 -31.7021 -23.3271 -56.5859 -44.4053 -73.7568c-27.7783 -22.6289 -59.6914 -42.3096 -92.5332 -56.6182c-13.7363 -5.9834 -38.0801 -9.69141 -46.1621 7.62012c-7.96484 17.0605 8.46973 33.8672 22.4141 41.0684
c23.0713 11.916 46.127 23.5537 68.4307 36.8828c10.5801 6.31641 20.9961 12.7539 31.3027 19.5166c1.46094 0.958984 12.0176 6.26465 11.9746 8.19141c0.0078125 -0.211914 -7.46387 5.16797 -8.11426 5.61426c-18.7686 12.9414 -43.7627 20.7568 -65.0879 28.416
c-24.6104 8.8457 -49.6318 16.0586 -75.1543 21.7402c-30.1201 6.70801 -1.43359 42.0088 20.6279 37.7959c35.2461 -6.73145 69.8496 -16.1562 103.407 -28.8984c24.54 -9.31934 63.7998 -19.7744 73.2998 -47.5723z" />
    <glyph glyph-name="question" unicode="?" horiz-adv-x="345" 
d="M231.143 580.395c59.7979 -20.2715 67.4941 -94.5303 62.0312 -148.85c-7.13477 -70.9453 -36.8008 -136.647 -56.8184 -204.405c-21.0547 -71.2705 -36.1182 -144.53 -40.7188 -218.815c-1.46484 -23.6475 -19.5947 -40.8145 -42.1846 -46.7783
c-15.6357 -4.13086 -49.6318 -0.676758 -47.999 22.7393c4.98047 71.3994 16.8096 141.593 39.3838 209.656c19.3594 58.3721 47.502 113.149 71.6348 169.556c12.6396 29.5439 24.9785 59.1748 35.1826 89.6709c9.72656 29.0781 17.8984 60.9092 -3.05469 87.3291
c-39.3613 49.6318 -107.158 19.6807 -139.952 -20.1426c-37.376 -45.3838 -53.1758 -114.238 -9.92676 -161.392c8.3252 -9.07715 -11.3867 -21.9756 -18.6582 -14.1006c-49.7266 53.8418 -31.8945 131.495 10.9121 183.559c33.335 40.54 87.2666 69.9082 140.168 51.9736z
M173.18 -55.4102c10.0752 3.01074 26.7949 0.0351562 27.5 -13.0352c0.669922 -12.4092 0.0625 -24.6689 -1.16699 -37.0273c-1.35059 -13.5879 -19.8799 -22.1904 -31.3135 -23.209c-12.5537 -1.11621 -22.833 7.20508 -20.957 20.0488
c1.33105 9.11621 1.82422 16.4033 1.76562 26.4199c-0.078125 13.7285 12.0176 23.1689 24.1719 26.8027z" />
    <glyph glyph-name="at" unicode="@" horiz-adv-x="644" 
d="M544.593 485.853c46.0684 -51.5234 54.0762 -126.36 46.3428 -192.489c-8.25879 -70.5537 -38.7314 -139.416 -83.1865 -194.651c-20.0723 -24.9434 -44.0645 -48.4648 -77.7637 -51.7578c-42.6777 -4.17383 -66.873 26.2988 -75.7969 64.4424
c-10.0127 42.7988 -5.31738 84.4111 4.19043 125.526c-11.583 -23.2168 -24.1484 -45.9238 -39.459 -67.2139c-17.0801 -23.7529 -43.4365 -48.8525 -74.4453 -49.5811c-35.7275 -0.837891 -48.6299 33.7148 -48.9434 64.1045
c-0.662109 63.8584 37.7549 133.594 83.416 176.515c22.0732 20.7461 55.0869 42.4941 86.8047 32.5713c15.1934 -4.75391 23.7568 -17.1592 28.3262 -31.4434c10.749 13.1846 40.1016 21.5371 41.625 0.623047c2.79199 -38.3545 -0.266602 -74.9707 -4.30762 -113.079
c-3.78613 -35.7236 -7.04004 -71.1533 -0.469727 -106.842c2.55664 -13.9092 6.02246 -31.0332 13.9287 -43.0117c9.50781 -14.4141 21.9795 -8.02344 32.7871 1.82031c25.21 22.9658 44.2949 56.2383 58.3643 86.918c25.5576 55.7363 43.1865 129.912 25.1191 190.281
c-15.7178 52.5059 -55.5371 94.5254 -104.938 117.331c-105.498 48.7002 -219.345 2.47852 -289.127 -84.0635c-72.1396 -89.4707 -94.1621 -220.417 -32.1133 -320.978c26.9873 -43.7354 68.3535 -78.9775 116.925 -96.2734
c60.2637 -21.458 121.021 -5.01953 178.226 17.2764c26.3848 10.2832 39.6123 -15.5371 14.3398 -29.3984c-70.6201 -38.7266 -161.266 -50.1719 -236.413 -17.9297c-64.3008 27.5869 -116.228 84.0947 -140.619 149.433c-49.7734 133.331 12.5068 285.548 119.685 371.314
c100.83 80.6875 263.063 106.175 357.504 0.555664zM327.699 229.639c18.2549 31.9717 37.3076 66.0889 51.3145 100.845c-2.05957 11.4893 -4.85938 21.8154 -18.6387 21.3887c-6.41797 -0.195312 -12.7344 -4.26367 -17.668 -7.86621
c-13.7324 -10.0244 -24.3828 -25.6211 -33.2324 -39.9648c-19.207 -31.1299 -36.6514 -67.499 -33.5811 -105.027c0.646484 -7.875 1.91895 -14.7314 5.2666 -21.835c0.333008 -0.697266 2.12598 -4.78125 3.61426 -7.51074
c1.08105 2.49414 5.49805 5.97559 5.89746 6.36328c15.3809 14.8369 26.5254 35.2188 37.0273 53.6074z" />
    <glyph glyph-name="A" unicode="A" horiz-adv-x="880" 
d="M752.277 732.077c13.8262 3.65332 40.7627 0.545898 40.3711 -19.123c-3.25 -159.95 -3.38672 -320.648 11.3564 -480.098c3.28516 -35.5469 7.44336 -71.1133 12.8193 -106.488c30.5156 7.1543 60.3613 16.5596 88.625 29.5166
c16.0742 7.36914 25.0137 -10.8428 8.89258 -18.2314c-30.1514 -13.8223 -61.8613 -23.9209 -94.252 -31.6152c5.4668 -32.7861 12.0254 -65.373 20.1777 -97.5527c8.83008 -34.8428 17.9736 -70.9736 32.9629 -103.76c11.7314 -25.6562 32.7314 -62.9854 65.0479 -63.541
c10.0713 -0.171875 10.749 -8.96289 4.14355 -14.8721c-22.292 -19.9395 -57.6904 -16.1182 -82.4619 -2.79297c-28.0371 15.083 -46.8486 45.2383 -59.6064 73.4082c-26.3721 58.2236 -41.3613 122.544 -53.3438 185.098
c-0.642578 3.35156 -1.20605 6.71094 -1.81738 10.0664c-16.7715 -2.43164 -33.543 -4.51074 -50.208 -6.375c-41.4756 -4.64062 -83.1152 -7.57324 -124.807 -9.55469c-0.748047 -1.55469 -1.44922 -3.13281 -2.20117 -4.68359
c-71.9795 -148.497 -191.806 -293.199 -359.783 -332.294c-81.7607 -19.0264 -173.729 -7.89355 -243.32 40.9629c-32.293 22.6719 -57.1973 55.6777 -60.4629 95.998c-3.07812 37.959 11.5117 75.8125 34.1562 105.729c52.1299 68.8701 147.153 89.1494 227.724 100.614
c96.1279 13.6816 194.021 11.8018 290.874 12.7256c33.1191 0.317383 66.2539 1.00684 99.3574 2.2793c10.2627 22.1826 19.8096 44.4238 28.7373 66.3438c59.7344 146.672 102.769 299.954 129.317 456.036c0.508789 24.3047 1.18652 48.5977 2.22852 72.8672
c0.853516 19.8525 16.7793 34.4033 35.4727 39.3369zM280.242 -207.692c126.114 49.041 207.342 163.239 265.636 282.795c-27.6689 -1.07715 -55.3535 -1.79395 -83.0225 -2.31836c-90.2734 -1.70703 -180.739 -0.551758 -270.352 -13.2783
c-75.6836 -10.7451 -176.901 -28.3232 -220.969 -98.9707c-18.1377 -29.0781 -25.542 -66.8848 -10.8262 -98.9551c16.5049 -35.9697 54.0332 -57.4668 89.2637 -71.6807c72.5859 -29.2822 157.922 -25.7227 230.27 2.4082zM685.259 106.182
c18.627 1.90332 37.4727 4.00977 56.3271 6.58984c-9.01758 54.9375 -14.3896 110.467 -18.2549 165.98c-5.18066 74.4346 -8.31738 149.147 -9.24512 223.872c-30.3311 -138.978 -74.0391 -275.782 -133.405 -404.082c34.917 1.67578 69.791 4.08789 104.578 7.63965z" />
    <glyph glyph-name="A" unicode="&#xc5;" horiz-adv-x="880" 
d="M752.277 732.077c13.8262 3.65332 40.7627 0.545898 40.3711 -19.123c-3.25 -159.95 -3.38672 -320.648 11.3564 -480.098c3.28516 -35.5469 7.44336 -71.1133 12.8193 -106.488c30.5156 7.1543 60.3613 16.5596 88.625 29.5166
c16.0742 7.36914 25.0137 -10.8428 8.89258 -18.2314c-30.1514 -13.8223 -61.8613 -23.9209 -94.252 -31.6152c5.4668 -32.7861 12.0254 -65.373 20.1777 -97.5527c8.83008 -34.8428 17.9736 -70.9736 32.9629 -103.76c11.7314 -25.6562 32.7314 -62.9854 65.0479 -63.541
c10.0713 -0.171875 10.749 -8.96289 4.14355 -14.8721c-22.292 -19.9395 -57.6904 -16.1182 -82.4619 -2.79297c-28.0371 15.083 -46.8486 45.2383 -59.6064 73.4082c-26.3721 58.2236 -41.3613 122.544 -53.3438 185.098
c-0.642578 3.35156 -1.20605 6.71094 -1.81738 10.0664c-16.7715 -2.43164 -33.543 -4.51074 -50.208 -6.375c-41.4756 -4.64062 -83.1152 -7.57324 -124.807 -9.55469c-0.748047 -1.55469 -1.44922 -3.13281 -2.20117 -4.68359
c-71.9795 -148.497 -191.806 -293.199 -359.783 -332.294c-81.7607 -19.0264 -173.729 -7.89355 -243.32 40.9629c-32.293 22.6719 -57.1973 55.6777 -60.4629 95.998c-3.07812 37.959 11.5117 75.8125 34.1562 105.729c52.1299 68.8701 147.153 89.1494 227.724 100.614
c96.1279 13.6816 194.021 11.8018 290.874 12.7256c33.1191 0.317383 66.2539 1.00684 99.3574 2.2793c10.2627 22.1826 19.8096 44.4238 28.7373 66.3438c59.7344 146.672 102.769 299.954 129.317 456.036c0.508789 24.3047 1.18652 48.5977 2.22852 72.8672
c0.853516 19.8525 16.7793 34.4033 35.4727 39.3369zM280.242 -207.692c126.114 49.041 207.342 163.239 265.636 282.795c-27.6689 -1.07715 -55.3535 -1.79395 -83.0225 -2.31836c-90.2734 -1.70703 -180.739 -0.551758 -270.352 -13.2783
c-75.6836 -10.7451 -176.901 -28.3232 -220.969 -98.9707c-18.1377 -29.0781 -25.542 -66.8848 -10.8262 -98.9551c16.5049 -35.9697 54.0332 -57.4668 89.2637 -71.6807c72.5859 -29.2822 157.922 -25.7227 230.27 2.4082zM685.259 106.182
c18.627 1.90332 37.4727 4.00977 56.3271 6.58984c-9.01758 54.9375 -14.3896 110.467 -18.2549 165.98c-5.18066 74.4346 -8.31738 149.147 -9.24512 223.872c-30.3311 -138.978 -74.0391 -275.782 -133.405 -404.082c34.917 1.67578 69.791 4.08789 104.578 7.63965z" />
    <glyph glyph-name="A" unicode="&#xc4;" horiz-adv-x="880" 
d="M752.277 732.077c13.8262 3.65332 40.7627 0.545898 40.3711 -19.123c-3.25 -159.95 -3.38672 -320.648 11.3564 -480.098c3.28516 -35.5469 7.44336 -71.1133 12.8193 -106.488c30.5156 7.1543 60.3613 16.5596 88.625 29.5166
c16.0742 7.36914 25.0137 -10.8428 8.89258 -18.2314c-30.1514 -13.8223 -61.8613 -23.9209 -94.252 -31.6152c5.4668 -32.7861 12.0254 -65.373 20.1777 -97.5527c8.83008 -34.8428 17.9736 -70.9736 32.9629 -103.76c11.7314 -25.6562 32.7314 -62.9854 65.0479 -63.541
c10.0713 -0.171875 10.749 -8.96289 4.14355 -14.8721c-22.292 -19.9395 -57.6904 -16.1182 -82.4619 -2.79297c-28.0371 15.083 -46.8486 45.2383 -59.6064 73.4082c-26.3721 58.2236 -41.3613 122.544 -53.3438 185.098
c-0.642578 3.35156 -1.20605 6.71094 -1.81738 10.0664c-16.7715 -2.43164 -33.543 -4.51074 -50.208 -6.375c-41.4756 -4.64062 -83.1152 -7.57324 -124.807 -9.55469c-0.748047 -1.55469 -1.44922 -3.13281 -2.20117 -4.68359
c-71.9795 -148.497 -191.806 -293.199 -359.783 -332.294c-81.7607 -19.0264 -173.729 -7.89355 -243.32 40.9629c-32.293 22.6719 -57.1973 55.6777 -60.4629 95.998c-3.07812 37.959 11.5117 75.8125 34.1562 105.729c52.1299 68.8701 147.153 89.1494 227.724 100.614
c96.1279 13.6816 194.021 11.8018 290.874 12.7256c33.1191 0.317383 66.2539 1.00684 99.3574 2.2793c10.2627 22.1826 19.8096 44.4238 28.7373 66.3438c59.7344 146.672 102.769 299.954 129.317 456.036c0.508789 24.3047 1.18652 48.5977 2.22852 72.8672
c0.853516 19.8525 16.7793 34.4033 35.4727 39.3369zM280.242 -207.692c126.114 49.041 207.342 163.239 265.636 282.795c-27.6689 -1.07715 -55.3535 -1.79395 -83.0225 -2.31836c-90.2734 -1.70703 -180.739 -0.551758 -270.352 -13.2783
c-75.6836 -10.7451 -176.901 -28.3232 -220.969 -98.9707c-18.1377 -29.0781 -25.542 -66.8848 -10.8262 -98.9551c16.5049 -35.9697 54.0332 -57.4668 89.2637 -71.6807c72.5859 -29.2822 157.922 -25.7227 230.27 2.4082zM685.259 106.182
c18.627 1.90332 37.4727 4.00977 56.3271 6.58984c-9.01758 54.9375 -14.3896 110.467 -18.2549 165.98c-5.18066 74.4346 -8.31738 149.147 -9.24512 223.872c-30.3311 -138.978 -74.0391 -275.782 -133.405 -404.082c34.917 1.67578 69.791 4.08789 104.578 7.63965z" />
    <glyph glyph-name="A" unicode="&#xc3;" horiz-adv-x="880" 
d="M752.277 732.077c13.8262 3.65332 40.7627 0.545898 40.3711 -19.123c-3.25 -159.95 -3.38672 -320.648 11.3564 -480.098c3.28516 -35.5469 7.44336 -71.1133 12.8193 -106.488c30.5156 7.1543 60.3613 16.5596 88.625 29.5166
c16.0742 7.36914 25.0137 -10.8428 8.89258 -18.2314c-30.1514 -13.8223 -61.8613 -23.9209 -94.252 -31.6152c5.4668 -32.7861 12.0254 -65.373 20.1777 -97.5527c8.83008 -34.8428 17.9736 -70.9736 32.9629 -103.76c11.7314 -25.6562 32.7314 -62.9854 65.0479 -63.541
c10.0713 -0.171875 10.749 -8.96289 4.14355 -14.8721c-22.292 -19.9395 -57.6904 -16.1182 -82.4619 -2.79297c-28.0371 15.083 -46.8486 45.2383 -59.6064 73.4082c-26.3721 58.2236 -41.3613 122.544 -53.3438 185.098
c-0.642578 3.35156 -1.20605 6.71094 -1.81738 10.0664c-16.7715 -2.43164 -33.543 -4.51074 -50.208 -6.375c-41.4756 -4.64062 -83.1152 -7.57324 -124.807 -9.55469c-0.748047 -1.55469 -1.44922 -3.13281 -2.20117 -4.68359
c-71.9795 -148.497 -191.806 -293.199 -359.783 -332.294c-81.7607 -19.0264 -173.729 -7.89355 -243.32 40.9629c-32.293 22.6719 -57.1973 55.6777 -60.4629 95.998c-3.07812 37.959 11.5117 75.8125 34.1562 105.729c52.1299 68.8701 147.153 89.1494 227.724 100.614
c96.1279 13.6816 194.021 11.8018 290.874 12.7256c33.1191 0.317383 66.2539 1.00684 99.3574 2.2793c10.2627 22.1826 19.8096 44.4238 28.7373 66.3438c59.7344 146.672 102.769 299.954 129.317 456.036c0.508789 24.3047 1.18652 48.5977 2.22852 72.8672
c0.853516 19.8525 16.7793 34.4033 35.4727 39.3369zM280.242 -207.692c126.114 49.041 207.342 163.239 265.636 282.795c-27.6689 -1.07715 -55.3535 -1.79395 -83.0225 -2.31836c-90.2734 -1.70703 -180.739 -0.551758 -270.352 -13.2783
c-75.6836 -10.7451 -176.901 -28.3232 -220.969 -98.9707c-18.1377 -29.0781 -25.542 -66.8848 -10.8262 -98.9551c16.5049 -35.9697 54.0332 -57.4668 89.2637 -71.6807c72.5859 -29.2822 157.922 -25.7227 230.27 2.4082zM685.259 106.182
c18.627 1.90332 37.4727 4.00977 56.3271 6.58984c-9.01758 54.9375 -14.3896 110.467 -18.2549 165.98c-5.18066 74.4346 -8.31738 149.147 -9.24512 223.872c-30.3311 -138.978 -74.0391 -275.782 -133.405 -404.082c34.917 1.67578 69.791 4.08789 104.578 7.63965z" />
    <glyph glyph-name="A" unicode="&#xc2;" horiz-adv-x="880" 
d="M752.277 732.077c13.8262 3.65332 40.7627 0.545898 40.3711 -19.123c-3.25 -159.95 -3.38672 -320.648 11.3564 -480.098c3.28516 -35.5469 7.44336 -71.1133 12.8193 -106.488c30.5156 7.1543 60.3613 16.5596 88.625 29.5166
c16.0742 7.36914 25.0137 -10.8428 8.89258 -18.2314c-30.1514 -13.8223 -61.8613 -23.9209 -94.252 -31.6152c5.4668 -32.7861 12.0254 -65.373 20.1777 -97.5527c8.83008 -34.8428 17.9736 -70.9736 32.9629 -103.76c11.7314 -25.6562 32.7314 -62.9854 65.0479 -63.541
c10.0713 -0.171875 10.749 -8.96289 4.14355 -14.8721c-22.292 -19.9395 -57.6904 -16.1182 -82.4619 -2.79297c-28.0371 15.083 -46.8486 45.2383 -59.6064 73.4082c-26.3721 58.2236 -41.3613 122.544 -53.3438 185.098
c-0.642578 3.35156 -1.20605 6.71094 -1.81738 10.0664c-16.7715 -2.43164 -33.543 -4.51074 -50.208 -6.375c-41.4756 -4.64062 -83.1152 -7.57324 -124.807 -9.55469c-0.748047 -1.55469 -1.44922 -3.13281 -2.20117 -4.68359
c-71.9795 -148.497 -191.806 -293.199 -359.783 -332.294c-81.7607 -19.0264 -173.729 -7.89355 -243.32 40.9629c-32.293 22.6719 -57.1973 55.6777 -60.4629 95.998c-3.07812 37.959 11.5117 75.8125 34.1562 105.729c52.1299 68.8701 147.153 89.1494 227.724 100.614
c96.1279 13.6816 194.021 11.8018 290.874 12.7256c33.1191 0.317383 66.2539 1.00684 99.3574 2.2793c10.2627 22.1826 19.8096 44.4238 28.7373 66.3438c59.7344 146.672 102.769 299.954 129.317 456.036c0.508789 24.3047 1.18652 48.5977 2.22852 72.8672
c0.853516 19.8525 16.7793 34.4033 35.4727 39.3369zM280.242 -207.692c126.114 49.041 207.342 163.239 265.636 282.795c-27.6689 -1.07715 -55.3535 -1.79395 -83.0225 -2.31836c-90.2734 -1.70703 -180.739 -0.551758 -270.352 -13.2783
c-75.6836 -10.7451 -176.901 -28.3232 -220.969 -98.9707c-18.1377 -29.0781 -25.542 -66.8848 -10.8262 -98.9551c16.5049 -35.9697 54.0332 -57.4668 89.2637 -71.6807c72.5859 -29.2822 157.922 -25.7227 230.27 2.4082zM685.259 106.182
c18.627 1.90332 37.4727 4.00977 56.3271 6.58984c-9.01758 54.9375 -14.3896 110.467 -18.2549 165.98c-5.18066 74.4346 -8.31738 149.147 -9.24512 223.872c-30.3311 -138.978 -74.0391 -275.782 -133.405 -404.082c34.917 1.67578 69.791 4.08789 104.578 7.63965z" />
    <glyph glyph-name="A" unicode="&#xc1;" horiz-adv-x="880" 
d="M752.277 732.077c13.8262 3.65332 40.7627 0.545898 40.3711 -19.123c-3.25 -159.95 -3.38672 -320.648 11.3564 -480.098c3.28516 -35.5469 7.44336 -71.1133 12.8193 -106.488c30.5156 7.1543 60.3613 16.5596 88.625 29.5166
c16.0742 7.36914 25.0137 -10.8428 8.89258 -18.2314c-30.1514 -13.8223 -61.8613 -23.9209 -94.252 -31.6152c5.4668 -32.7861 12.0254 -65.373 20.1777 -97.5527c8.83008 -34.8428 17.9736 -70.9736 32.9629 -103.76c11.7314 -25.6562 32.7314 -62.9854 65.0479 -63.541
c10.0713 -0.171875 10.749 -8.96289 4.14355 -14.8721c-22.292 -19.9395 -57.6904 -16.1182 -82.4619 -2.79297c-28.0371 15.083 -46.8486 45.2383 -59.6064 73.4082c-26.3721 58.2236 -41.3613 122.544 -53.3438 185.098
c-0.642578 3.35156 -1.20605 6.71094 -1.81738 10.0664c-16.7715 -2.43164 -33.543 -4.51074 -50.208 -6.375c-41.4756 -4.64062 -83.1152 -7.57324 -124.807 -9.55469c-0.748047 -1.55469 -1.44922 -3.13281 -2.20117 -4.68359
c-71.9795 -148.497 -191.806 -293.199 -359.783 -332.294c-81.7607 -19.0264 -173.729 -7.89355 -243.32 40.9629c-32.293 22.6719 -57.1973 55.6777 -60.4629 95.998c-3.07812 37.959 11.5117 75.8125 34.1562 105.729c52.1299 68.8701 147.153 89.1494 227.724 100.614
c96.1279 13.6816 194.021 11.8018 290.874 12.7256c33.1191 0.317383 66.2539 1.00684 99.3574 2.2793c10.2627 22.1826 19.8096 44.4238 28.7373 66.3438c59.7344 146.672 102.769 299.954 129.317 456.036c0.508789 24.3047 1.18652 48.5977 2.22852 72.8672
c0.853516 19.8525 16.7793 34.4033 35.4727 39.3369zM280.242 -207.692c126.114 49.041 207.342 163.239 265.636 282.795c-27.6689 -1.07715 -55.3535 -1.79395 -83.0225 -2.31836c-90.2734 -1.70703 -180.739 -0.551758 -270.352 -13.2783
c-75.6836 -10.7451 -176.901 -28.3232 -220.969 -98.9707c-18.1377 -29.0781 -25.542 -66.8848 -10.8262 -98.9551c16.5049 -35.9697 54.0332 -57.4668 89.2637 -71.6807c72.5859 -29.2822 157.922 -25.7227 230.27 2.4082zM685.259 106.182
c18.627 1.90332 37.4727 4.00977 56.3271 6.58984c-9.01758 54.9375 -14.3896 110.467 -18.2549 165.98c-5.18066 74.4346 -8.31738 149.147 -9.24512 223.872c-30.3311 -138.978 -74.0391 -275.782 -133.405 -404.082c34.917 1.67578 69.791 4.08789 104.578 7.63965z" />
    <glyph glyph-name="B" unicode="B" horiz-adv-x="572" 
d="M598.416 148.545c-74.5244 -4.59277 -149.083 -2.23633 -223.678 -2.08398c-7.08398 -9.07324 -14.3984 -17.9697 -21.9443 -26.6553c13.7715 4.41309 28.3848 6.79785 44.1572 6.30859c34.8066 -1.08496 57.1533 -18.7803 79.1328 -43.6768
c24.9199 -28.2246 37.1641 -56.8564 37.0977 -95.1172c-0.24707 -141.828 -114.928 -266.811 -246.121 -307.343c-64.2148 -19.8369 -140.255 -18.3955 -200.26 13.7061c-60.7256 32.4854 -93.9941 94.75 -112.12 158.917
c-18.4355 65.2598 -14.4648 136.941 23.4551 194.698c35.0068 53.3203 89.2988 84.5371 150.185 99.5498c-1.66406 21.5049 -3.0459 43.0293 -4.14258 64.5537c-6.7666 132.614 -2.00098 266.051 15.0908 397.757c4.51465 34.7988 78.46 48.7041 73.4238 4.44043
c-14.6094 -128.347 -20.3066 -257.358 -15.126 -386.473c0.908203 -22.625 2.21973 -45.2227 3.80957 -67.8008c3.97461 0.43457 7.96094 0.833984 11.9473 1.20605c2.99121 50.5918 7.19629 101.05 12.8975 151.199c13.4346 118.165 30.3232 249.84 100.102 349.852
c28.2676 40.5205 70.3701 79.0439 123.429 74.9678c53.7832 -4.13086 80.4922 -55.3604 90.1289 -102.815c12.0957 -59.5586 0.286133 -123.123 -16.6455 -180.552c-18.0127 -61.082 -39.7686 -121.243 -68.1338 -178.327
c-18.7451 -37.7246 -40.9785 -74.9834 -66.5166 -110.025c71.4072 -0.658203 142.822 -2.50684 214.159 1.78906c15.3027 0.919922 7.17773 -17.3662 -4.32715 -18.0752zM240.259 224.271c-1.55859 -20.6201 -2.78418 -41.248 -3.80664 -61.8799
c21.2549 1.41016 42.5957 2.10742 63.8545 2.4248c0.411133 0.473633 0.830078 0.931641 1.2373 1.40918c38.0449 44.3066 69.7314 93.9111 96.958 145.493c27.0771 51.2959 50.125 104.323 70.9297 158.427c20.4873 53.2773 43.2852 114.457 38.915 172.496
c-2.04395 27.1553 -17.3154 54.1699 -41.7461 67.4287c-25.084 13.6152 -54.8477 7.32227 -77.4023 -8.23145c-44.4277 -30.6406 -71.6543 -87.877 -89.4902 -137.195c-38.915 -107.616 -50.8936 -226.976 -59.4492 -340.372zM282.769 145.646
c-15.7451 -0.46582 -31.498 -1.19922 -47.1924 -2.31152c-0.606445 -14.1318 -1.12305 -28.2637 -1.56152 -42.3994c17.0254 13.9365 33.2949 28.6836 48.7539 44.7109zM212.234 141.373c-3.15234 -0.30957 -6.2998 -0.62207 -9.44043 -0.970703
c1.54688 -19.9434 3.28906 -39.874 5.2041 -59.7852c0.540039 0.40332 1.08398 0.810547 1.62402 1.21777c0.689453 19.8564 1.5625 39.7051 2.6123 59.5381zM448.762 75.9736c-18.584 24.7393 -49.6016 34.9902 -79.5684 29.5117
c-17.1074 -3.13281 -32.5977 -9.80957 -47.0977 -18.5264c-25.2451 -25.0605 -52.6592 -47.6582 -82.1406 -66.8457c-2.64355 -2.21289 -5.29883 -4.38184 -7.96973 -6.5c-0.623047 -35.4141 -1.12012 -70.8359 -1.86816 -106.262
c3.88867 -19.6533 7.9375 -39.3887 8.63867 -58.9639c0.787109 -21.9561 -35.9229 -37.9209 -48.8213 -18.2676c-16.8809 25.7188 -22.668 60.8506 -29.5518 90.4463c-7.27148 31.2559 -12.3271 63.0479 -17.21 94.7578c-5.74805 37.3213 -10.0244 74.8613 -13.2861 112.495
c-50.8379 -13.1846 -99.7734 -39.5615 -124.356 -88.0459c-27.5469 -54.3271 -24.8135 -119.807 -2.71289 -175.383c20.8906 -52.5176 61.5674 -97.3369 114.496 -118.376c48.0654 -19.1084 101.938 -15.7412 149.969 1.27637
c44.0674 15.6162 83.291 45.0625 113.168 80.6719c36.9102 43.9971 67.3555 104.182 77.1445 160.991c4.38965 25.4756 7.8125 64.8604 -8.83301 87.0195z" />
    <glyph glyph-name="C" unicode="C" horiz-adv-x="454" 
d="M-27.3125 73.5967c14.1709 95.9434 39.4434 190.827 69.8848 282.819c18.4668 55.8115 39.8115 111.56 66.4971 164.375c-0.121094 0.0351562 -0.242188 0.0664062 -0.363281 0.101562c-32.8809 9.83984 -63.6035 30.8594 -71.6895 66.0537
c-7.23242 31.4707 10.6113 61.2734 37.4268 77.1914c13.6035 8.07422 27.2305 -7.98828 12.9932 -17.374c-28.5615 -18.8271 -7.62012 -65.5303 13.4307 -81.7803c7.38867 -5.70508 15.6074 -10.2393 24.332 -13.8301c11.2695 20.1387 23.416 39.749 36.6123 58.6504
c26.5801 38.0693 56.9189 73.8359 95.6768 100.142c31.7373 21.541 76.7451 45.6387 113.917 21.459c25.2373 -16.415 38.3516 -48.8496 34.6123 -78.2451c-4.73047 -37.1562 -33.7227 -66.6455 -63.0127 -87.2031c-42.3486 -29.7285 -96.8477 -49.7266 -151.015 -53.4971
c-16.709 -33.041 -31.6201 -66.9941 -44.6123 -101.547c-53.9941 -143.614 -97.9873 -299.391 -103.25 -453.487c-2.35742 -69.0459 -5.38086 -151.226 37.2266 -209.903c19.0693 -26.2588 46.4131 -44.3457 78.9961 -47.7012
c37.3174 -3.8418 70.9141 15.0674 98.9707 37.9902c58.5049 47.8037 97.6699 118.624 131.819 184.765c35.9111 69.5557 64.332 142.69 85.7979 217.943c2.30273 8.07031 20.585 11.2969 17.7578 1.07324c-28.123 -101.716 -69.168 -199.825 -122.802 -290.761
c-46.5156 -78.8672 -108.725 -156.207 -202.977 -176.201c-81.3145 -17.249 -152.554 40.168 -182.235 112.405c-36.1113 87.8809 -27.5596 194.741 -13.9951 286.562zM245.549 605.556c-14.124 -21.6895 -27.3555 -44.0166 -39.7451 -66.8145
c0.888672 0.0117188 1.78516 0.0117188 2.66602 0.03125c42.3447 0.876953 83.1035 14.418 118.408 37.7871c30.9111 20.46 65.7383 57.2988 51.458 97.7129c-30.4062 86.0449 -112.288 -37.2344 -132.787 -68.7168z" />
    <glyph glyph-name="D" unicode="D" horiz-adv-x="690" 
d="M218.556 584.849c-19.3008 -126.486 -33.7744 -253.129 -38.5283 -381.068c-0.485352 -13.0391 -0.830078 -26.0859 -1.15137 -39.1328c6.49609 0.0429688 12.9492 0.0195312 19.3164 -0.0429688c1.84473 -0.0195312 3.68945 -0.0976562 5.53418 -0.128906
c8.32129 44.2168 17.7734 88.2178 28.7764 131.878c15.7295 62.4131 34.5879 124.07 57.5381 184.216c20.3857 53.4229 43.6885 107.538 80.626 151.864c29.5713 35.4883 73.5645 61.5322 120.005 42.8975c53.4268 -21.4385 70.4795 -80.9307 92.0439 -128.616
c49.209 -108.814 51.0303 -235.227 32.2227 -351.517c-2.26367 -13.9951 -4.86328 -27.9902 -7.78027 -41.9502c37.748 1.53516 75.4492 3.6416 113.013 6.08887c21.2314 1.38184 10.0361 -24.1924 -6.01855 -25.1396c-37.4033 -2.2002 -74.916 -4.0332 -112.468 -5.29785
c-20.0684 -84.1924 -52.7607 -166.208 -101.97 -237.196c-65.4717 -94.4404 -166.325 -188.591 -287.933 -191.743c-110.428 -2.8623 -211.76 77.7393 -245.255 180.974c-27.7314 85.4688 -11.6299 202.581 70.585 253.138c20.667 12.7109 43.6523 20.2412 67.4834 24.6504
c0.243164 9.65625 0.521484 19.3164 0.862305 28.9766c4.61621 131.307 16.4062 263.252 39.3018 392.687c6.12402 34.6074 80.5508 48.7393 73.7959 4.46387zM467.679 -10.0107c21.7949 43.7783 38.876 89.9648 52.6201 137.204
c-42.29 -0.30957 -84.5645 0.336914 -126.714 2.37305c-57.5811 2.78418 -114.931 9.70312 -172.516 12.291c-15.4277 -85.9785 -26.7754 -172.822 -36.8311 -259.349c1.76953 -18.2393 4.1543 -36.3965 7.46289 -54.4131
c4.82422 -26.2432 -49.9883 -49.7529 -61.6846 -23.0752c-25.0957 57.248 -22.4482 126.099 -24.6729 187.411c-1.75781 48.5439 -2.10254 97.0996 -1.21777 145.651c-29.29 -5.45117 -56.6768 -16.6543 -77.4102 -39.209
c-64.5234 -70.1855 -38.7227 -181.679 14.0381 -250.408c58.1719 -75.7812 160.471 -106.132 247.235 -61.708c81.0166 41.4834 140.082 123.671 179.689 203.231zM319.395 499.135c-43.5352 -108.142 -72.7354 -220.814 -94.2598 -335.197
c58.3486 -2.15723 116.458 -8.73145 174.791 -11.292c42.2432 -1.85254 84.6191 -2.23242 127.015 -1.63379c10.9521 41.1074 19.6016 82.834 26.7754 124.313c9.32324 53.916 13.9316 108.732 11.1787 163.439c-2.84277 56.4805 -6.54688 111.047 -33.2988 162.073
c-12.9961 24.7871 -31.6113 48.7002 -58.9668 58.2666c-28.2871 9.8916 -54.1543 -3.26562 -74.0459 -23.4082c-36.9219 -37.3838 -59.8252 -88.4609 -79.1885 -136.562zM192.967 142.766c-4.76953 0.078125 -9.62305 0.149414 -14.5293 0.192383
c-0.779297 -43.668 -0.751953 -87.3604 0.109375 -131.013c0.0195312 -1.15527 0.0429688 -2.31055 0.0664062 -3.46582c6.17871 44.8271 13.0898 89.5605 21.0859 134.087c-2.24414 0.0546875 -4.48828 0.164062 -6.73242 0.199219z" />
    <glyph glyph-name="E" unicode="E" horiz-adv-x="418" 
d="M24.3672 115.594c40.9824 65.0293 89.7432 125.891 145.637 178.969c-66.7441 10.1338 -127.513 40.5078 -148.259 113.846c-17.2178 60.8662 -5.28613 126.424 26.1885 180.488c-21.5371 10.5449 -38.1553 27.2217 -44.5615 52.6113
c-5.44336 21.5645 44.5488 41.6367 51.0254 19.0898c4.0332 -14.0381 10.9482 -25.4482 19.8408 -34.6113c22.7305 26.748 51.0488 49.1348 82.5859 64.5273c30.3584 14.8174 71.0703 27.2656 102.683 9.09668c26.0439 -14.9697 38.3398 -45.6377 22.0938 -72.3779
c-17.4014 -28.6396 -54.9531 -40.9629 -85.8057 -47.3379c-25.2842 -5.22363 -59.2412 -8.66992 -91.7539 -5.52539c-3.01074 -8.58691 -5.49707 -17.3428 -7.45117 -26.1689c-10.6982 -48.3359 -2.89453 -106.81 30.7217 -145.012
c32.082 -36.4561 87.4473 -43.9121 133.41 -45.5879c13.9365 -0.508789 27.6416 -3.81348 32.1367 -18.5449c4.17773 -13.6895 -5.80762 -28.9844 -16.7402 -36.7139c-80.7666 -57.1191 -146.238 -129.568 -197.66 -213.934
c-45.8223 -75.1748 -89.8271 -164.364 -87.9316 -254.653c0.720703 -34.3838 7.92578 -73.6475 33.2139 -98.9199c30.3896 -30.3701 74.2617 -32.4258 112.797 -17.8633c82.6338 31.2324 139.142 117.355 183.895 188.834c50.4736 80.6172 90.1797 167.496 119.747 257.848
c2.77246 8.46973 22.5195 12.2559 19.2422 1.16211c-33.7031 -114.046 -86.1191 -222.124 -154.206 -319.622c-51.6055 -73.9023 -112.941 -154.935 -207.232 -172.497c-45.9316 -8.55176 -96.8682 -2.3418 -130.864 32.5088
c-31.4043 32.1914 -43.6719 77.7432 -44.1025 121.717c-1.00977 103.188 47.5059 203.238 101.352 288.672zM171.335 666.476c-23.917 -16.4854 -42.3955 -39.252 -55.5879 -64.8848c32.6182 -10.0322 71.498 -7.32227 101.939 2.89746
c24.9238 8.36426 59.7031 28.8711 41.9375 59.79c-19.3242 33.6289 -63.0986 19.5596 -88.2891 2.19727z" />
    <glyph glyph-name="E" unicode="&#xcb;" horiz-adv-x="418" 
d="M24.3672 115.594c40.9824 65.0293 89.7432 125.891 145.637 178.969c-66.7441 10.1338 -127.513 40.5078 -148.259 113.846c-17.2178 60.8662 -5.28613 126.424 26.1885 180.488c-21.5371 10.5449 -38.1553 27.2217 -44.5615 52.6113
c-5.44336 21.5645 44.5488 41.6367 51.0254 19.0898c4.0332 -14.0381 10.9482 -25.4482 19.8408 -34.6113c22.7305 26.748 51.0488 49.1348 82.5859 64.5273c30.3584 14.8174 71.0703 27.2656 102.683 9.09668c26.0439 -14.9697 38.3398 -45.6377 22.0938 -72.3779
c-17.4014 -28.6396 -54.9531 -40.9629 -85.8057 -47.3379c-25.2842 -5.22363 -59.2412 -8.66992 -91.7539 -5.52539c-3.01074 -8.58691 -5.49707 -17.3428 -7.45117 -26.1689c-10.6982 -48.3359 -2.89453 -106.81 30.7217 -145.012
c32.082 -36.4561 87.4473 -43.9121 133.41 -45.5879c13.9365 -0.508789 27.6416 -3.81348 32.1367 -18.5449c4.17773 -13.6895 -5.80762 -28.9844 -16.7402 -36.7139c-80.7666 -57.1191 -146.238 -129.568 -197.66 -213.934
c-45.8223 -75.1748 -89.8271 -164.364 -87.9316 -254.653c0.720703 -34.3838 7.92578 -73.6475 33.2139 -98.9199c30.3896 -30.3701 74.2617 -32.4258 112.797 -17.8633c82.6338 31.2324 139.142 117.355 183.895 188.834c50.4736 80.6172 90.1797 167.496 119.747 257.848
c2.77246 8.46973 22.5195 12.2559 19.2422 1.16211c-33.7031 -114.046 -86.1191 -222.124 -154.206 -319.622c-51.6055 -73.9023 -112.941 -154.935 -207.232 -172.497c-45.9316 -8.55176 -96.8682 -2.3418 -130.864 32.5088
c-31.4043 32.1914 -43.6719 77.7432 -44.1025 121.717c-1.00977 103.188 47.5059 203.238 101.352 288.672zM171.335 666.476c-23.917 -16.4854 -42.3955 -39.252 -55.5879 -64.8848c32.6182 -10.0322 71.498 -7.32227 101.939 2.89746
c24.9238 8.36426 59.7031 28.8711 41.9375 59.79c-19.3242 33.6289 -63.0986 19.5596 -88.2891 2.19727z" />
    <glyph glyph-name="E" unicode="&#xca;" horiz-adv-x="418" 
d="M24.3672 115.594c40.9824 65.0293 89.7432 125.891 145.637 178.969c-66.7441 10.1338 -127.513 40.5078 -148.259 113.846c-17.2178 60.8662 -5.28613 126.424 26.1885 180.488c-21.5371 10.5449 -38.1553 27.2217 -44.5615 52.6113
c-5.44336 21.5645 44.5488 41.6367 51.0254 19.0898c4.0332 -14.0381 10.9482 -25.4482 19.8408 -34.6113c22.7305 26.748 51.0488 49.1348 82.5859 64.5273c30.3584 14.8174 71.0703 27.2656 102.683 9.09668c26.0439 -14.9697 38.3398 -45.6377 22.0938 -72.3779
c-17.4014 -28.6396 -54.9531 -40.9629 -85.8057 -47.3379c-25.2842 -5.22363 -59.2412 -8.66992 -91.7539 -5.52539c-3.01074 -8.58691 -5.49707 -17.3428 -7.45117 -26.1689c-10.6982 -48.3359 -2.89453 -106.81 30.7217 -145.012
c32.082 -36.4561 87.4473 -43.9121 133.41 -45.5879c13.9365 -0.508789 27.6416 -3.81348 32.1367 -18.5449c4.17773 -13.6895 -5.80762 -28.9844 -16.7402 -36.7139c-80.7666 -57.1191 -146.238 -129.568 -197.66 -213.934
c-45.8223 -75.1748 -89.8271 -164.364 -87.9316 -254.653c0.720703 -34.3838 7.92578 -73.6475 33.2139 -98.9199c30.3896 -30.3701 74.2617 -32.4258 112.797 -17.8633c82.6338 31.2324 139.142 117.355 183.895 188.834c50.4736 80.6172 90.1797 167.496 119.747 257.848
c2.77246 8.46973 22.5195 12.2559 19.2422 1.16211c-33.7031 -114.046 -86.1191 -222.124 -154.206 -319.622c-51.6055 -73.9023 -112.941 -154.935 -207.232 -172.497c-45.9316 -8.55176 -96.8682 -2.3418 -130.864 32.5088
c-31.4043 32.1914 -43.6719 77.7432 -44.1025 121.717c-1.00977 103.188 47.5059 203.238 101.352 288.672zM171.335 666.476c-23.917 -16.4854 -42.3955 -39.252 -55.5879 -64.8848c32.6182 -10.0322 71.498 -7.32227 101.939 2.89746
c24.9238 8.36426 59.7031 28.8711 41.9375 59.79c-19.3242 33.6289 -63.0986 19.5596 -88.2891 2.19727z" />
    <glyph glyph-name="E" unicode="&#xc9;" horiz-adv-x="418" 
d="M24.3672 115.594c40.9824 65.0293 89.7432 125.891 145.637 178.969c-66.7441 10.1338 -127.513 40.5078 -148.259 113.846c-17.2178 60.8662 -5.28613 126.424 26.1885 180.488c-21.5371 10.5449 -38.1553 27.2217 -44.5615 52.6113
c-5.44336 21.5645 44.5488 41.6367 51.0254 19.0898c4.0332 -14.0381 10.9482 -25.4482 19.8408 -34.6113c22.7305 26.748 51.0488 49.1348 82.5859 64.5273c30.3584 14.8174 71.0703 27.2656 102.683 9.09668c26.0439 -14.9697 38.3398 -45.6377 22.0938 -72.3779
c-17.4014 -28.6396 -54.9531 -40.9629 -85.8057 -47.3379c-25.2842 -5.22363 -59.2412 -8.66992 -91.7539 -5.52539c-3.01074 -8.58691 -5.49707 -17.3428 -7.45117 -26.1689c-10.6982 -48.3359 -2.89453 -106.81 30.7217 -145.012
c32.082 -36.4561 87.4473 -43.9121 133.41 -45.5879c13.9365 -0.508789 27.6416 -3.81348 32.1367 -18.5449c4.17773 -13.6895 -5.80762 -28.9844 -16.7402 -36.7139c-80.7666 -57.1191 -146.238 -129.568 -197.66 -213.934
c-45.8223 -75.1748 -89.8271 -164.364 -87.9316 -254.653c0.720703 -34.3838 7.92578 -73.6475 33.2139 -98.9199c30.3896 -30.3701 74.2617 -32.4258 112.797 -17.8633c82.6338 31.2324 139.142 117.355 183.895 188.834c50.4736 80.6172 90.1797 167.496 119.747 257.848
c2.77246 8.46973 22.5195 12.2559 19.2422 1.16211c-33.7031 -114.046 -86.1191 -222.124 -154.206 -319.622c-51.6055 -73.9023 -112.941 -154.935 -207.232 -172.497c-45.9316 -8.55176 -96.8682 -2.3418 -130.864 32.5088
c-31.4043 32.1914 -43.6719 77.7432 -44.1025 121.717c-1.00977 103.188 47.5059 203.238 101.352 288.672zM171.335 666.476c-23.917 -16.4854 -42.3955 -39.252 -55.5879 -64.8848c32.6182 -10.0322 71.498 -7.32227 101.939 2.89746
c24.9238 8.36426 59.7031 28.8711 41.9375 59.79c-19.3242 33.6289 -63.0986 19.5596 -88.2891 2.19727z" />
    <glyph glyph-name="F" unicode="F" horiz-adv-x="321" 
d="M63.1426 159.059c-0.101562 -2.38086 -0.272461 -4.75781 -0.366211 -7.13086c-2.31055 -64.708 1.04492 -130.457 12.6709 -194.358c98.1406 59.5156 188.434 131.291 268.644 213.482c6.68848 6.85254 23.2363 3.02734 14.3203 -6.53516
c-75.0605 -80.4766 -159.903 -150.725 -252.659 -209.57c64.0889 7.58105 132.176 -2.41602 166.627 -63.9248c38.5117 -68.7607 -16.4453 -134.486 -86.04 -146.707c-77.2227 -13.5605 -149.261 42.5479 -177.501 111.108
c-33.585 81.542 -39.5098 177.627 -37.4854 264.725c2.11816 91.0215 14.4023 182.595 34.377 271.389c19.2148 85.4023 44.749 171.428 86.3574 248.865c19.6572 36.585 44.1855 71.9443 78.1348 96.6367c29.8262 21.6934 71.9639 37.4463 105.62 14.9346
c60.6748 -40.5869 30.3945 -145.721 10.585 -199.656c-51.7822 -140.99 -134.784 -271.482 -223.284 -393.258zM147.305 583.557c-24.7471 -68.6475 -41.6582 -139.828 -56.041 -211.263c-11.6064 -57.6631 -20.9805 -115.887 -25.7109 -174.525
c76.2666 106.986 145.45 220.582 192.353 342.996c13.126 34.251 24.1562 70.3428 24.125 107.323c-0.0195312 23.8115 -5.3252 71.2979 -37.1836 73.3457c-25.7617 1.65625 -47.1338 -31.9561 -58.6191 -50.7676c-16.6182 -27.2305 -28.1426 -57.2012 -38.9229 -87.1094z
M246.652 -115.502c-36.0605 57.1426 -105.749 58.8145 -166.052 47.4199c0.0507812 -0.231445 0.09375 -0.466797 0.144531 -0.698242c12.3389 -55.9795 35.2695 -126.005 91.9111 -151.077c28.3027 -12.5264 60.0908 -5.45801 77.8135 20.6016
c17.5469 25.8008 12.041 58.623 -3.81738 83.7539z" />
    <glyph glyph-name="G" unicode="G" horiz-adv-x="510" 
d="M271.445 711.781c49.3545 16.9121 117.841 13.6328 134.909 -45.5771c15.1582 -52.5732 -20.3652 -108.909 -61.3398 -138.947c-41.0762 -30.1123 -114.301 -57.7617 -155.636 -14.3125c-15.5889 16.3877 18.3291 34.9248 32.6885 24.7012
c52.2715 -37.2266 117.367 -6.51953 145.909 44.7178c12.3936 22.2451 20.127 52.3535 7.43945 76.3096c-13.8975 26.2432 -45.9756 25.7461 -70.1904 16c-43.375 -17.4521 -76.3848 -53.2148 -104.077 -89.5371c-31.9326 -41.8828 -56.0459 -90.4932 -75.3936 -139.283
c-20.4326 -51.5312 -37.2627 -105.063 -51.4961 -158.604c-15.04 -56.5869 -26.0352 -114.513 -25.0996 -173.241c0.666016 -41.624 -0.117188 -111.893 47.7764 -129.615c51.0225 -18.8779 97.2988 31.9053 125.759 67.0801
c67.7266 83.7031 121.834 178.061 160.78 278.382c-0.598633 3.9707 -1.3584 7.94922 -2.35254 11.9434c-4.35449 17.4717 34.0352 33.3818 41.4707 15.5146c26.4668 -63.5801 21.3525 -139.463 15.792 -206.712c-4.86328 -58.8066 -15.6475 -115.867 -36.2246 -170.793
c52.3848 37.0742 96.4365 85.7744 127.578 142.181c5.40723 9.79688 28.334 9.76953 21.043 -3.47363c-37.9512 -68.9404 -93.915 -126.729 -160.632 -167.899c-46.1826 -102.714 -132.228 -182.814 -245.525 -202.382
c-48.0498 -8.29785 -99.5928 -4.72656 -140.881 23.2832c-34.0908 23.126 -65.832 63.873 -26.6748 98.5703c41.7227 36.9727 110.647 31.1895 162.085 31.6982c55.6973 0.551758 109.343 6.17871 162.033 25.1855c2.89355 1.0459 5.73242 2.2207 8.59863 3.3291
c13.5059 23.9521 24.4502 49.2832 32.7324 74.8486c17.1748 53.0195 26.4199 108.643 31.7451 164.008c2.94824 30.6445 5.50488 61.3008 8.125 91.9727c0.611328 7.15039 1.27344 14.2305 1.80176 21.2705c-21.4072 -49.4326 -46.3467 -97.2754 -75.1191 -142.925
c-19.7822 -31.377 -41.2129 -61.7471 -64.1396 -90.9072c-21.2861 -27.0732 -44.0723 -56.2021 -72.0898 -76.6582c-45.7207 -33.3779 -123.041 -46.4131 -164.368 1.16309c-45.376 52.2363 -44.1816 135.786 -38.2256 200.514
c6.86816 74.6768 29.4775 147.615 53.2031 218.432c22.3115 66.5986 48.5195 133.711 89.3369 191.358c39.5059 55.7959 92.8779 105.862 158.658 128.405zM169.162 -202.074c52.2715 21.8418 94.3096 61.1719 125.632 107.988
c-24.0391 -8.05469 -48.7275 -14.1436 -73.7998 -18.0205c-55.2158 -8.53613 -111.145 -2.48633 -166.489 -8.7002c-20.8984 -2.3457 -72.3359 -9.69531 -71.1104 -39.9521c0.857422 -21.1729 35.0107 -37.043 51.8408 -43.3242
c42.3682 -15.8076 92.1729 -15.4355 133.927 2.00879z" />
    <glyph glyph-name="H" unicode="H" horiz-adv-x="682" 
d="M532.673 -142.596c-2.70996 17.5117 -5.01562 35.0938 -7.16895 52.6836c-4.14648 34 -6.66406 68.0361 -8.29688 102.248c-1.99707 41.8008 -2.7373 83.5859 -2.41602 125.375c-70.6045 -2.81543 -141.464 -0.540039 -210.977 8.86914
c-1.37402 -27.332 -2.7168 -54.668 -3.81738 -82.0117c-1.84863 -45.9316 -3.3252 -91.9297 -3.28223 -137.904c0.0429688 -46.3193 2.7998 -92.5918 1.2959 -138.899c-0.853516 -26.2588 -49.9141 -46.8945 -57.334 -15.2822
c-20.8867 88.9932 -14.375 186.499 -10.7803 277.191c1.4375 36.2676 3.27051 72.5195 5.04395 108.775c-110.459 23.9443 -217.609 91.1934 -255.228 203.02c-21.6621 64.4023 -16.8574 135.414 8.7832 197.909c25.0996 61.1875 72.7461 129.486 141.859 142.533
c32.9121 6.21387 70.0488 -1.20996 99.4951 -17.0293c31.5566 -16.9512 49.5264 -59.2842 60.209 -91.3857c27.3867 -82.3008 23.1377 -175.104 21.4424 -260.757c-1.10449 -55.7129 -3.89648 -111.363 -6.71582 -167.014
c0.728516 -0.0976562 1.45312 -0.207031 2.18164 -0.304688c68.8232 -9.26465 138.488 -12.0215 208.052 -9.8291c0.313477 20.8711 0.857422 41.75 1.67969 62.6328c5.47852 139.056 16.4775 279.22 35.4453 417.108c2.60352 18.9209 25.8359 31.71 42.5088 34.541
c12.8633 2.18457 39.4473 -2.45996 37.9199 -21.3184c-11.1328 -137.549 -28.335 -274.264 -33.9424 -412.278c-1.02637 -25.2881 -1.84473 -50.6074 -2.38867 -75.9346c40.168 3.37891 80.1826 8.19531 119.85 14.2256c14.3164 2.17676 6.44922 -15.5264 -4.10742 -17.1514
c-38.2256 -5.87793 -77.0029 -10.7725 -116.051 -14.3438c-0.623047 -37.8496 -0.615234 -75.7148 0.296875 -113.525c0.798828 -33.2129 2.1416 -66.4502 3.65332 -99.6357c1.53125 -33.5576 10.9521 -74.2891 1.99316 -106.942
c-5.84277 -21.2979 -41.5078 -36.3379 -55.6787 -15.04c-9.1709 13.7871 -11.0078 33.1973 -13.5254 49.4746zM41.4043 297.018c49.7891 -64.8643 119.173 -99.4316 194.527 -118.247c2.33789 48.8525 4.4248 97.7129 5.11816 146.62
c1.13184 79.6855 1.12402 162.175 -14.21 240.689c-6.60156 33.7969 -19.5234 62.5537 -38.8633 90.7002c-22.4297 32.6416 -68.1738 16.4814 -96.1719 0.646484c-58.7559 -33.2334 -91.4756 -107.347 -99.9336 -171.647
c-8.80664 -66.9551 8.30469 -135.042 49.5332 -188.762z" />
    <glyph glyph-name="I" unicode="I" horiz-adv-x="424" 
d="M272.431 -152.024c-39.0674 -41.0879 -91.7686 -65.2861 -148.966 -60.8262c-52.1504 4.06836 -100.498 33.6201 -129.929 76.3096c-28.4717 41.2959 -49.002 100.604 -35.0537 150.808c13.8809 49.9609 74.3477 77.8525 118.65 94.8467
c71.4424 27.4062 146.734 33.4443 222.324 37.9785c3.25391 53.6143 3.72363 107.405 4.17383 159.708c0.524414 61.207 0.485352 122.453 0.473633 183.66c-0.0078125 59.3428 0.916016 118.313 -6.0459 177.375c-21.043 -1.15918 -42.0195 -3.46191 -62.8594 -6.93555
c-15.3066 -2.55273 -14.6328 15.1621 -1.45605 17.418c25.4561 4.3584 50.9473 7.16211 76.5488 8.39551c5.14551 2.08691 10.8584 2.50195 15.248 0.536133c13.458 0.305664 26.9482 0.219727 40.4893 -0.395508c17.8867 -0.810547 5.5166 -19.5039 -7.38184 -18.8574
c-8.00391 0.40332 -16.0039 0.586914 -24.0039 0.65332c16.4932 -70.9336 21.9238 -143.167 25.2676 -215.815c3.63379 -78.9727 5.11426 -158.22 2.83105 -237.259c-0.623047 -21.5801 -1.7002 -43.2031 -3.18066 -64.8145
c32.6533 2.22461 65.1816 5.14551 97.3027 10.3848c12.793 2.08691 8.49316 -15.084 -1.37402 -16.7051c-31.9131 -5.24316 -64.4219 -8.09375 -97.1338 -10.2393c-3.24219 -40.8096 -8.12109 -81.5215 -15.0713 -121.729
c-10.2354 -59.2061 -28.459 -119.908 -70.8545 -164.497zM193.722 -162.815c41.7656 24.3047 63.6641 73.0352 76.2178 117.546c15.9805 56.6611 24.1484 116.091 28.4561 175.951c-77.4531 -4.50684 -154.668 -10.7998 -226.408 -41.0527
c-24.6885 -10.4082 -49.6787 -23.3652 -70.0049 -41.0176c-21.8418 -18.9639 -25.1465 -45.9512 -22.0605 -73.2207c5.67383 -50.1094 31.1064 -97.3447 72.9268 -126.204c39.8232 -27.4805 97.248 -37.3916 140.873 -12.002z" />
    <glyph glyph-name="I" unicode="&#xcf;" horiz-adv-x="424" 
d="M272.431 -152.024c-39.0674 -41.0879 -91.7686 -65.2861 -148.966 -60.8262c-52.1504 4.06836 -100.498 33.6201 -129.929 76.3096c-28.4717 41.2959 -49.002 100.604 -35.0537 150.808c13.8809 49.9609 74.3477 77.8525 118.65 94.8467
c71.4424 27.4062 146.734 33.4443 222.324 37.9785c3.25391 53.6143 3.72363 107.405 4.17383 159.708c0.524414 61.207 0.485352 122.453 0.473633 183.66c-0.0078125 59.3428 0.916016 118.313 -6.0459 177.375c-21.043 -1.15918 -42.0195 -3.46191 -62.8594 -6.93555
c-15.3066 -2.55273 -14.6328 15.1621 -1.45605 17.418c25.4561 4.3584 50.9473 7.16211 76.5488 8.39551c5.14551 2.08691 10.8584 2.50195 15.248 0.536133c13.458 0.305664 26.9482 0.219727 40.4893 -0.395508c17.8867 -0.810547 5.5166 -19.5039 -7.38184 -18.8574
c-8.00391 0.40332 -16.0039 0.586914 -24.0039 0.65332c16.4932 -70.9336 21.9238 -143.167 25.2676 -215.815c3.63379 -78.9727 5.11426 -158.22 2.83105 -237.259c-0.623047 -21.5801 -1.7002 -43.2031 -3.18066 -64.8145
c32.6533 2.22461 65.1816 5.14551 97.3027 10.3848c12.793 2.08691 8.49316 -15.084 -1.37402 -16.7051c-31.9131 -5.24316 -64.4219 -8.09375 -97.1338 -10.2393c-3.24219 -40.8096 -8.12109 -81.5215 -15.0713 -121.729
c-10.2354 -59.2061 -28.459 -119.908 -70.8545 -164.497zM193.722 -162.815c41.7656 24.3047 63.6641 73.0352 76.2178 117.546c15.9805 56.6611 24.1484 116.091 28.4561 175.951c-77.4531 -4.50684 -154.668 -10.7998 -226.408 -41.0527
c-24.6885 -10.4082 -49.6787 -23.3652 -70.0049 -41.0176c-21.8418 -18.9639 -25.1465 -45.9512 -22.0605 -73.2207c5.67383 -50.1094 31.1064 -97.3447 72.9268 -126.204c39.8232 -27.4805 97.248 -37.3916 140.873 -12.002z" />
    <glyph glyph-name="I" unicode="&#xce;" horiz-adv-x="424" 
d="M272.431 -152.024c-39.0674 -41.0879 -91.7686 -65.2861 -148.966 -60.8262c-52.1504 4.06836 -100.498 33.6201 -129.929 76.3096c-28.4717 41.2959 -49.002 100.604 -35.0537 150.808c13.8809 49.9609 74.3477 77.8525 118.65 94.8467
c71.4424 27.4062 146.734 33.4443 222.324 37.9785c3.25391 53.6143 3.72363 107.405 4.17383 159.708c0.524414 61.207 0.485352 122.453 0.473633 183.66c-0.0078125 59.3428 0.916016 118.313 -6.0459 177.375c-21.043 -1.15918 -42.0195 -3.46191 -62.8594 -6.93555
c-15.3066 -2.55273 -14.6328 15.1621 -1.45605 17.418c25.4561 4.3584 50.9473 7.16211 76.5488 8.39551c5.14551 2.08691 10.8584 2.50195 15.248 0.536133c13.458 0.305664 26.9482 0.219727 40.4893 -0.395508c17.8867 -0.810547 5.5166 -19.5039 -7.38184 -18.8574
c-8.00391 0.40332 -16.0039 0.586914 -24.0039 0.65332c16.4932 -70.9336 21.9238 -143.167 25.2676 -215.815c3.63379 -78.9727 5.11426 -158.22 2.83105 -237.259c-0.623047 -21.5801 -1.7002 -43.2031 -3.18066 -64.8145
c32.6533 2.22461 65.1816 5.14551 97.3027 10.3848c12.793 2.08691 8.49316 -15.084 -1.37402 -16.7051c-31.9131 -5.24316 -64.4219 -8.09375 -97.1338 -10.2393c-3.24219 -40.8096 -8.12109 -81.5215 -15.0713 -121.729
c-10.2354 -59.2061 -28.459 -119.908 -70.8545 -164.497zM193.722 -162.815c41.7656 24.3047 63.6641 73.0352 76.2178 117.546c15.9805 56.6611 24.1484 116.091 28.4561 175.951c-77.4531 -4.50684 -154.668 -10.7998 -226.408 -41.0527
c-24.6885 -10.4082 -49.6787 -23.3652 -70.0049 -41.0176c-21.8418 -18.9639 -25.1465 -45.9512 -22.0605 -73.2207c5.67383 -50.1094 31.1064 -97.3447 72.9268 -126.204c39.8232 -27.4805 97.248 -37.3916 140.873 -12.002z" />
    <glyph glyph-name="I" unicode="&#xcd;" horiz-adv-x="424" 
d="M272.431 -152.024c-39.0674 -41.0879 -91.7686 -65.2861 -148.966 -60.8262c-52.1504 4.06836 -100.498 33.6201 -129.929 76.3096c-28.4717 41.2959 -49.002 100.604 -35.0537 150.808c13.8809 49.9609 74.3477 77.8525 118.65 94.8467
c71.4424 27.4062 146.734 33.4443 222.324 37.9785c3.25391 53.6143 3.72363 107.405 4.17383 159.708c0.524414 61.207 0.485352 122.453 0.473633 183.66c-0.0078125 59.3428 0.916016 118.313 -6.0459 177.375c-21.043 -1.15918 -42.0195 -3.46191 -62.8594 -6.93555
c-15.3066 -2.55273 -14.6328 15.1621 -1.45605 17.418c25.4561 4.3584 50.9473 7.16211 76.5488 8.39551c5.14551 2.08691 10.8584 2.50195 15.248 0.536133c13.458 0.305664 26.9482 0.219727 40.4893 -0.395508c17.8867 -0.810547 5.5166 -19.5039 -7.38184 -18.8574
c-8.00391 0.40332 -16.0039 0.586914 -24.0039 0.65332c16.4932 -70.9336 21.9238 -143.167 25.2676 -215.815c3.63379 -78.9727 5.11426 -158.22 2.83105 -237.259c-0.623047 -21.5801 -1.7002 -43.2031 -3.18066 -64.8145
c32.6533 2.22461 65.1816 5.14551 97.3027 10.3848c12.793 2.08691 8.49316 -15.084 -1.37402 -16.7051c-31.9131 -5.24316 -64.4219 -8.09375 -97.1338 -10.2393c-3.24219 -40.8096 -8.12109 -81.5215 -15.0713 -121.729
c-10.2354 -59.2061 -28.459 -119.908 -70.8545 -164.497zM193.722 -162.815c41.7656 24.3047 63.6641 73.0352 76.2178 117.546c15.9805 56.6611 24.1484 116.091 28.4561 175.951c-77.4531 -4.50684 -154.668 -10.7998 -226.408 -41.0527
c-24.6885 -10.4082 -49.6787 -23.3652 -70.0049 -41.0176c-21.8418 -18.9639 -25.1465 -45.9512 -22.0605 -73.2207c5.67383 -50.1094 31.1064 -97.3447 72.9268 -126.204c39.8232 -27.4805 97.248 -37.3916 140.873 -12.002z" />
    <glyph glyph-name="J" unicode="J" horiz-adv-x="473" 
d="M-33.0664 446.294c-10.1377 58.1719 7.74609 111.603 55.1543 147.687c49.4756 37.6621 112.198 45.834 172.105 53.1211c29.8145 3.62598 59.5703 7.63574 89.2676 12.0176c2.12988 26.3643 55.791 45.3477 58.7471 13.8652
c0.144531 -1.53516 0.28125 -3.06641 0.421875 -4.60156c26.7559 4.42871 53.4688 9.15918 80.127 14.2422c14.5312 2.76855 13.8184 -14.1787 1.38184 -16.5479c-26.6074 -5.07129 -53.2773 -9.78223 -79.9902 -14.2461
c15.5459 -169.979 25.8252 -340.023 20.9893 -510.855c-1.46875 -51.8096 -4.10059 -103.939 -10.1973 -155.564c55.5332 21.0508 108.983 52.498 139.299 105.157c5.11816 8.88477 26.2559 8.82617 19.3447 -3.19531
c-30.0889 -52.3496 -80.7236 -86.7646 -135.345 -109.993c-8.44238 -3.59082 -16.9824 -6.97754 -25.5967 -10.1924c-2.49414 -18.5137 -5.46582 -36.9531 -9.04102 -55.2744c-13.4268 -68.8467 -38.7812 -136.926 -90.6455 -186.24
c-49.4678 -47.0439 -116.525 -77.3906 -185.795 -67.2451c-68.8311 10.0791 -114.504 58.7324 -146.01 117.308c-23.291 43.2969 -73.6904 114.893 -10.5254 148.564c26.9365 14.3633 60.749 15.5186 90.5088 16.4619c38.167 1.20996 76.3301 -1.34277 114.501 -0.583008
c49.8281 0.994141 99.4912 7.08301 148.059 18.0977c2.25195 16.8848 4.08496 33.7891 5.69824 50.5918c6.63672 69.1133 7.57227 138.888 9.04102 208.267c2.99902 141.57 6.24121 283.434 5.03125 425.051c-16.2656 -2.41992 -32.5508 -4.72656 -48.8516 -6.89941
c-59.4258 -7.92188 -124.267 -9.44141 -178.233 -38.3555c-56.9268 -30.5 -78.334 -85.5947 -65.917 -147.91c10.7803 -54.1035 37.0977 -107.244 81.3965 -141.292c9.48047 -7.2832 -10.1182 -20.5732 -18.6582 -14.0967
c-47.9951 36.4043 -76.0674 94.1416 -86.2676 152.662zM229.497 -180.853c15.8506 38.6914 25.2744 79.7607 31.626 121.244c-29.125 -6.41406 -58.6182 -11.0859 -88.0645 -14.1406c-70.0645 -7.26367 -140.712 1.65625 -210.589 -6.36328
c-14.6094 -1.67578 -31.3135 -3.49707 -44.1924 -11.2773c-19.9033 -12.0215 -16.8799 -33.6406 -8.1123 -51.7744c13.7715 -28.4873 34.3096 -54.3936 56.6172 -76.6035c38.2451 -38.0811 99.5889 -83.7188 157.092 -69.4229
c53.207 13.2275 85.9072 60.2129 105.623 108.338z" />
    <glyph glyph-name="K" unicode="K" horiz-adv-x="315" 
d="M659.444 -121.881c-3.36328 -34.9014 -10.2266 -69.4619 -31.3877 -98.2861c-20.1387 -27.4219 -50.5332 -45.5557 -82.5088 -55.9717c-131.792 -42.9365 -253.329 45.8691 -324.611 149.362c-38.9814 56.5986 -67.8369 119.591 -95.8271 182.113
c-14.4258 32.2227 -28.9844 64.2139 -41.9062 97.0791c-6.83301 17.3779 -14.6172 34.3369 -21.6104 51.6406c-1.24512 3.08203 -2.25488 6.0498 -3.19824 8.93555c-3.58301 -68.8662 -6.12012 -137.783 -4.18555 -206.759
c1.12402 -39.9951 2.50195 -79.9512 6.26855 -119.802c3.70801 -39.2002 10.9482 -78.9453 6.01074 -118.252c-2.25977 -17.9854 -33.1045 -26.7021 -43.293 -11.6934c-19.5752 28.8359 -25.5781 66.3564 -31.2246 100.22
c-5.89355 35.3594 -9.80566 71.251 -12.2998 107.006c-8.79492 126.028 -0.165039 253.894 8.87207 379.659c9.22168 128.343 21.3057 257.531 47.0244 383.743c7.32617 35.958 85.1904 51.2021 77.5039 4.68652c-25.0215 -151.457 -41.6201 -303.181 -51.0684 -456.271
c30.0967 14.4375 59.2295 30.3828 85.2148 51.8291c31.5488 26.04 60.0166 55.7021 85.4727 87.6973c53.6611 67.4531 116.031 160.828 96.6758 251.008c-1.9502 9.08496 17.1152 15.5771 19.5742 5.21973c22.0771 -92.9287 -39.8076 -189.326 -94.1152 -259.751
c-27.5117 -35.6807 -58.7871 -68.4551 -93.3789 -97.3379c-28.624 -23.9014 -57.7998 -47.4746 -89.9404 -66.4072c11.2578 -8.04688 22.7109 -16.2695 32.1797 -26.0078c11.3711 -11.6885 21.7754 -24.4775 31.7764 -37.3408
c21.7402 -27.9658 38.625 -58.0352 54.625 -89.5488c52.9365 -104.269 99.1309 -214.982 198.289 -284.33c40.1562 -28.084 91.1006 -50.7012 141.026 -46.4014c61.4932 5.29785 84.8779 58.3525 97.8115 112.01c3.53223 14.6445 34.1377 21.752 32.2305 1.9502z" />
    <glyph glyph-name="L" unicode="L" horiz-adv-x="278" 
d="M16.1592 -233.93c-46.0332 -6.31641 -86.4023 8.87207 -119.196 40.8555c-26.3643 25.7148 -46.0684 63.459 -45.9629 100.851c0.0976562 34.4111 22.6367 63.3916 58.7637 63.0938c41.7266 -0.344727 80.4258 -36.0879 112.816 -58.5098
c17.5625 -12.1582 35.1211 -24.3398 52.8359 -36.2871c2.50586 7.12695 4.72266 14.3984 6.87988 21.6465c26.1494 87.9277 30.0576 183.323 35.5518 274.349c0.121094 2.00488 0.230469 4.00977 0.351562 6.01465c-71.9795 33.6162 -127.004 90.7744 -143.928 171.623
c-15.1582 72.418 -2.59668 154.163 23.1807 222.85c18.3223 48.8174 53.6777 113.983 113.741 115.314c43.293 0.962891 69.2148 -41.7539 82.2891 -77.3438c17.4053 -47.3809 23.5957 -98.458 23.4746 -148.678c-0.262695 -106.936 1.28027 -214.481 -4.89844 -321.275
c-3.1875 -55.083 -8.05078 -110.377 -16.7041 -164.892c-8.20703 -51.7148 -25.624 -98.1318 -59.335 -138.472c1.86035 -1.12012 3.70898 -2.26367 5.57715 -3.36816c39.0713 -23.1221 79.9873 -43.6406 123.26 -57.6865
c41.3037 -13.4033 124.099 -36.8779 140.913 22.3867c2.82715 9.96973 25.3623 13.835 21.8379 1.32031c-24.6416 -87.54 -142.502 -54.5537 -201.92 -31.7676c-36.7178 14.0811 -71.4814 32.1758 -105.138 52.3027c-28.4561 -27.9619 -64.6807 -48.8799 -104.391 -54.3271z
M5.76465 324.662c20.002 -56.0107 62.7354 -96.418 113.801 -123.253c5.01562 85.2852 9.52637 170.68 13.7549 255.988c2.20801 44.5693 5.27051 88.8682 -3.62988 132.991c-5.05176 25.0527 -15.5146 73.5605 -50.6113 60.5449
c-48.8291 -18.1104 -66.1445 -90.3711 -76.2158 -135.175c-14.0264 -62.3896 -18.9639 -129.874 2.90137 -191.097zM-123.125 -69.5254c-10.5723 -35.6885 15.0098 -78.3975 41.8135 -100.079c29.8496 -24.1484 82.3398 -32.8652 116.172 -11.6416
c14.6406 9.18652 24.3633 21.8027 31.6035 36.0049c-24.9082 16.583 -49.4443 33.7227 -73.9609 50.5684c-23.8271 16.376 -99.7695 78.6836 -115.628 25.1475z" />
    <glyph glyph-name="M" unicode="M" horiz-adv-x="768" 
d="M338.504 424.483c-0.619141 -55.748 -2.31348 -111.401 -4.09082 -167.138c-2.25586 -70.8984 -1.7002 -141.175 1.0332 -211.537c16.7168 82.8652 35.9902 165.186 62.6719 245.489c19.4688 58.6035 42.4541 116.627 71.4346 171.229
c17.6328 33.2217 40.3008 65.8086 73.3262 83.3711c5.68555 4.08789 12.209 7.1543 18.9639 8.93945c2.74512 0.724609 5.88965 1.19824 9.19043 1.37402c0.105469 0.0078125 0.207031 0.015625 0.3125 0.0234375c14.915 0.712891 32.9551 -4.76172 33.2686 -21.6621
c2.89355 -155.718 -5.97559 -311.525 13.5723 -466.581c4.52637 -35.9229 8.09375 -73.6084 25.1309 -106.176c6.20605 -11.8564 14.0371 -24.4492 23.5098 -34c17.6992 -17.8438 36.1973 -12.0371 49.3037 8.64941c38.8604 61.3281 55.749 138.754 70.958 208.725
c2.02051 9.2959 22.418 13.0195 19.9824 1.20996c-14.5938 -70.7188 -31.9014 -144.354 -67.3584 -207.989c-11.4893 -20.624 -27.7822 -37.6885 -52.2207 -40.9424c-27.1553 -3.61426 -55.9121 -0.779297 -78.9756 15.252
c-53.4775 37.168 -59.2061 119.019 -67.1396 177.527c-18.8818 139.287 -20.1309 281.327 -17.1475 421.672c-24.1094 -24.626 -39.8115 -60.126 -53.6338 -89.5449c-24.8496 -52.8936 -45.0703 -107.819 -62.1777 -163.67
c-29.3564 -95.834 -49.8711 -194.033 -68.9873 -292.361c0.904297 -14.8447 1.87891 -29.7051 2.94824 -44.5889c2.75684 -38.3623 -73.3379 -65.6826 -81.498 -21.7246c-20.4248 110.005 -12.4912 225.778 -3.91992 336.68c7.85059 101.57 18.6816 203.117 30.9492 304.241
c2.69434 22.1982 6.49609 46.6562 1.90332 68.8389c-9.05273 43.708 -43.3037 2.06836 -55.0078 -15.2119c-25.8555 -38.1748 -43.6289 -81.4795 -58.4932 -124.913c-31.8428 -93.0498 -51.4766 -190.994 -68.5488 -287.697
c-15.2715 -86.4834 -25.6016 -173.805 -27.1523 -261.588c2.60742 -16.2656 5.11328 -32.5586 7.28613 -48.9307c3.1875 -24.0273 -45.2578 -45.8184 -56.5391 -21.1533c-25.1309 54.9414 -34.4736 119.101 -40.751 178.776
c-6.30469 59.9424 -8.94434 120.288 -10.0723 180.532c-2.35742 125.742 2.80762 252.326 19.9668 376.98c4.56934 33.1816 74.1914 46.5811 70.084 4.24023c-11.8018 -121.709 -19.5508 -243.473 -17.71 -365.812c0.884766 -59.0264 3.23828 -118.154 9.12012 -176.91
c0.693359 -6.92676 1.48438 -13.834 2.33008 -20.7295c6.80176 72.7432 18.4434 145.067 32.7676 216.753c20.4053 102.139 42.2861 206.963 87.0703 301.669c16.4502 34.791 40.751 86.3613 79.4307 100.99c39.1221 14.7939 59.8281 -31.5332 66.5986 -62.7461
c11.0938 -51.1279 8.88574 -107.538 8.31055 -159.555z" />
    <glyph glyph-name="N" unicode="N" horiz-adv-x="546" 
d="M0.503906 586.588c4.56934 33.1816 74.1895 46.5859 70.082 4.2373c-11.8018 -121.709 -19.5508 -243.473 -17.71 -365.812c0.884766 -59.0264 3.23828 -118.154 9.12012 -176.91c3.85742 -38.5117 10.291 -76.4512 16.4775 -114.465
c21.0547 121.808 43.915 243.481 79.8457 361.886c19.833 65.3418 43.4492 129.85 72.876 191.522c17.6562 37.0078 40.3398 75.707 75.542 97.1064c6.48438 5.65039 14.5039 9.78516 22.833 11.9854c15.1973 4.01367 42.4277 0.512695 42.7725 -20.2646
c1.27246 -76.666 -0.956055 -153.367 -0.325195 -230.045c0.563477 -68.1416 1.51465 -136.314 5.97461 -204.327c2.2168 -33.75 5.21973 -67.4609 9.28027 -101.042c3.59082 -29.6738 6.25391 -60.252 15.3936 -88.833c7.51074 -23.4941 20.2021 -56.0537 41.5273 -70.374
c35.9854 -24.1641 56.9189 38.9814 66.7627 62.958c25.123 61.1992 40.1123 126.091 53.0732 190.779c1.87207 9.34277 22.2422 13.0703 19.9824 1.20996c-15.2324 -79.9365 -33.0996 -163.017 -71.0195 -235.764c-12.3271 -23.6475 -30.9971 -42.1104 -58.8301 -43.8604
c-30.1201 -1.89551 -62.7578 6.27246 -84.6465 28.1025c-49.3623 49.2402 -53.3174 135.054 -61.0234 199.996c-18.334 154.547 -19.501 311.51 -16.5684 466.969c-26.7842 -28.4443 -43.3008 -70.6016 -57.5068 -103.353
c-26.1377 -60.2559 -47.2197 -122.603 -65.0361 -185.791c-35.5469 -126.067 -58.5479 -255.229 -81.3301 -384.076c-0.136719 -0.779297 -0.446289 -1.5 -0.826172 -2.19336c0.219727 -1.59375 0.462891 -3.18359 0.674805 -4.77734
c3.1875 -24.0273 -45.2578 -45.8184 -56.5391 -21.1533c-25.1309 54.9414 -34.4736 119.101 -40.751 178.776c-6.30469 59.9424 -8.94434 120.288 -10.0723 180.532c-2.35742 125.742 2.80762 252.326 19.9668 376.98z" />
    <glyph glyph-name="O" unicode="O" horiz-adv-x="430" 
d="M-10.1104 -39.1377c-25.5498 92.1494 -13.4502 191.293 0.944336 284.343c0.978516 6.32812 4.11914 11.9941 8.56738 16.8379c-29.4072 69.6416 -18.0791 154.52 7.16992 223.382c24.4932 66.8066 67.4453 139.154 143.094 153.736
c77.1641 14.8721 125.352 -48.3438 149.656 -112.867c29.8652 -79.2783 38.6719 -164.817 35.3984 -249.041c-1.84082 -47.334 -6.60254 -95.2041 -14.2773 -142.538c48.1836 6.1084 94.2363 22.6562 137.157 47.2236c9.94629 5.69336 19.751 -5.67773 9.44043 -12.624
c-42.7871 -28.8281 -95.376 -47.5928 -150.071 -54.9697c-5.96387 -32.998 -13.3604 -65.6592 -22.2256 -97.6074c-18.5176 -66.7402 -48.7471 -148.45 -121.024 -172.826c-40.1211 -13.5293 -82.0391 -4.66016 -116.834 18.2432
c-35.6885 23.4863 -55.7646 58.1992 -66.9951 98.708zM292.354 105.773c0.379883 2.05566 0.734375 4.12012 1.10645 6.17969c-84.333 -6.26172 -171.016 14.5664 -232.642 67.499c-7.35742 -64.9346 -11.418 -130.12 1.68066 -194.922
c7.12305 -35.2383 23.7412 -70.8555 54.5938 -91.2178c33.793 -22.3076 76.5254 -25.4326 103.811 7.58887c45.2891 54.8086 58.998 136.977 71.4502 204.872zM18.1162 405.302c-1.46875 -38.6992 1.38477 -85.248 14.7334 -126.309
c20.2676 3.13672 39.5801 -4.69434 36.5928 -29.0381c-1.28809 -10.498 -2.61914 -21.0078 -3.93848 -31.5293c3.21094 -3.71191 6.59766 -7.25977 10.2197 -10.5762c47.6582 -43.6758 122.849 -72.1514 187.153 -75.3936
c11.4854 -0.579102 22.8682 -0.485352 34.1572 0.129883c10.6865 64.3359 17.2451 129.514 15.4004 194.766c-2.05176 72.5625 -13.834 147.687 -44.8584 213.886c-13.3213 28.4248 -32.1602 57.3936 -60.8232 72.2617c-34.4785 17.8867 -75.249 8.77051 -104.828 -14.4893
c-55.6152 -43.7354 -81.2207 -125.496 -83.8086 -193.708z" />
    <glyph glyph-name="O" unicode="&#xd6;" horiz-adv-x="430" 
d="M-10.1104 -39.1377c-25.5498 92.1494 -13.4502 191.293 0.944336 284.343c0.978516 6.32812 4.11914 11.9941 8.56738 16.8379c-29.4072 69.6416 -18.0791 154.52 7.16992 223.382c24.4932 66.8066 67.4453 139.154 143.094 153.736
c77.1641 14.8721 125.352 -48.3438 149.656 -112.867c29.8652 -79.2783 38.6719 -164.817 35.3984 -249.041c-1.84082 -47.334 -6.60254 -95.2041 -14.2773 -142.538c48.1836 6.1084 94.2363 22.6562 137.157 47.2236c9.94629 5.69336 19.751 -5.67773 9.44043 -12.624
c-42.7871 -28.8281 -95.376 -47.5928 -150.071 -54.9697c-5.96387 -32.998 -13.3604 -65.6592 -22.2256 -97.6074c-18.5176 -66.7402 -48.7471 -148.45 -121.024 -172.826c-40.1211 -13.5293 -82.0391 -4.66016 -116.834 18.2432
c-35.6885 23.4863 -55.7646 58.1992 -66.9951 98.708zM292.354 105.773c0.379883 2.05566 0.734375 4.12012 1.10645 6.17969c-84.333 -6.26172 -171.016 14.5664 -232.642 67.499c-7.35742 -64.9346 -11.418 -130.12 1.68066 -194.922
c7.12305 -35.2383 23.7412 -70.8555 54.5938 -91.2178c33.793 -22.3076 76.5254 -25.4326 103.811 7.58887c45.2891 54.8086 58.998 136.977 71.4502 204.872zM18.1162 405.302c-1.46875 -38.6992 1.38477 -85.248 14.7334 -126.309
c20.2676 3.13672 39.5801 -4.69434 36.5928 -29.0381c-1.28809 -10.498 -2.61914 -21.0078 -3.93848 -31.5293c3.21094 -3.71191 6.59766 -7.25977 10.2197 -10.5762c47.6582 -43.6758 122.849 -72.1514 187.153 -75.3936
c11.4854 -0.579102 22.8682 -0.485352 34.1572 0.129883c10.6865 64.3359 17.2451 129.514 15.4004 194.766c-2.05176 72.5625 -13.834 147.687 -44.8584 213.886c-13.3213 28.4248 -32.1602 57.3936 -60.8232 72.2617c-34.4785 17.8867 -75.249 8.77051 -104.828 -14.4893
c-55.6152 -43.7354 -81.2207 -125.496 -83.8086 -193.708z" />
    <glyph glyph-name="O" unicode="&#xd5;" horiz-adv-x="430" 
d="M-10.1104 -39.1377c-25.5498 92.1494 -13.4502 191.293 0.944336 284.343c0.978516 6.32812 4.11914 11.9941 8.56738 16.8379c-29.4072 69.6416 -18.0791 154.52 7.16992 223.382c24.4932 66.8066 67.4453 139.154 143.094 153.736
c77.1641 14.8721 125.352 -48.3438 149.656 -112.867c29.8652 -79.2783 38.6719 -164.817 35.3984 -249.041c-1.84082 -47.334 -6.60254 -95.2041 -14.2773 -142.538c48.1836 6.1084 94.2363 22.6562 137.157 47.2236c9.94629 5.69336 19.751 -5.67773 9.44043 -12.624
c-42.7871 -28.8281 -95.376 -47.5928 -150.071 -54.9697c-5.96387 -32.998 -13.3604 -65.6592 -22.2256 -97.6074c-18.5176 -66.7402 -48.7471 -148.45 -121.024 -172.826c-40.1211 -13.5293 -82.0391 -4.66016 -116.834 18.2432
c-35.6885 23.4863 -55.7646 58.1992 -66.9951 98.708zM292.354 105.773c0.379883 2.05566 0.734375 4.12012 1.10645 6.17969c-84.333 -6.26172 -171.016 14.5664 -232.642 67.499c-7.35742 -64.9346 -11.418 -130.12 1.68066 -194.922
c7.12305 -35.2383 23.7412 -70.8555 54.5938 -91.2178c33.793 -22.3076 76.5254 -25.4326 103.811 7.58887c45.2891 54.8086 58.998 136.977 71.4502 204.872zM18.1162 405.302c-1.46875 -38.6992 1.38477 -85.248 14.7334 -126.309
c20.2676 3.13672 39.5801 -4.69434 36.5928 -29.0381c-1.28809 -10.498 -2.61914 -21.0078 -3.93848 -31.5293c3.21094 -3.71191 6.59766 -7.25977 10.2197 -10.5762c47.6582 -43.6758 122.849 -72.1514 187.153 -75.3936
c11.4854 -0.579102 22.8682 -0.485352 34.1572 0.129883c10.6865 64.3359 17.2451 129.514 15.4004 194.766c-2.05176 72.5625 -13.834 147.687 -44.8584 213.886c-13.3213 28.4248 -32.1602 57.3936 -60.8232 72.2617c-34.4785 17.8867 -75.249 8.77051 -104.828 -14.4893
c-55.6152 -43.7354 -81.2207 -125.496 -83.8086 -193.708z" />
    <glyph glyph-name="O" unicode="&#xd4;" horiz-adv-x="430" 
d="M-10.1104 -39.1377c-25.5498 92.1494 -13.4502 191.293 0.944336 284.343c0.978516 6.32812 4.11914 11.9941 8.56738 16.8379c-29.4072 69.6416 -18.0791 154.52 7.16992 223.382c24.4932 66.8066 67.4453 139.154 143.094 153.736
c77.1641 14.8721 125.352 -48.3438 149.656 -112.867c29.8652 -79.2783 38.6719 -164.817 35.3984 -249.041c-1.84082 -47.334 -6.60254 -95.2041 -14.2773 -142.538c48.1836 6.1084 94.2363 22.6562 137.157 47.2236c9.94629 5.69336 19.751 -5.67773 9.44043 -12.624
c-42.7871 -28.8281 -95.376 -47.5928 -150.071 -54.9697c-5.96387 -32.998 -13.3604 -65.6592 -22.2256 -97.6074c-18.5176 -66.7402 -48.7471 -148.45 -121.024 -172.826c-40.1211 -13.5293 -82.0391 -4.66016 -116.834 18.2432
c-35.6885 23.4863 -55.7646 58.1992 -66.9951 98.708zM292.354 105.773c0.379883 2.05566 0.734375 4.12012 1.10645 6.17969c-84.333 -6.26172 -171.016 14.5664 -232.642 67.499c-7.35742 -64.9346 -11.418 -130.12 1.68066 -194.922
c7.12305 -35.2383 23.7412 -70.8555 54.5938 -91.2178c33.793 -22.3076 76.5254 -25.4326 103.811 7.58887c45.2891 54.8086 58.998 136.977 71.4502 204.872zM18.1162 405.302c-1.46875 -38.6992 1.38477 -85.248 14.7334 -126.309
c20.2676 3.13672 39.5801 -4.69434 36.5928 -29.0381c-1.28809 -10.498 -2.61914 -21.0078 -3.93848 -31.5293c3.21094 -3.71191 6.59766 -7.25977 10.2197 -10.5762c47.6582 -43.6758 122.849 -72.1514 187.153 -75.3936
c11.4854 -0.579102 22.8682 -0.485352 34.1572 0.129883c10.6865 64.3359 17.2451 129.514 15.4004 194.766c-2.05176 72.5625 -13.834 147.687 -44.8584 213.886c-13.3213 28.4248 -32.1602 57.3936 -60.8232 72.2617c-34.4785 17.8867 -75.249 8.77051 -104.828 -14.4893
c-55.6152 -43.7354 -81.2207 -125.496 -83.8086 -193.708z" />
    <glyph glyph-name="O" unicode="&#xd3;" horiz-adv-x="430" 
d="M-10.1104 -39.1377c-25.5498 92.1494 -13.4502 191.293 0.944336 284.343c0.978516 6.32812 4.11914 11.9941 8.56738 16.8379c-29.4072 69.6416 -18.0791 154.52 7.16992 223.382c24.4932 66.8066 67.4453 139.154 143.094 153.736
c77.1641 14.8721 125.352 -48.3438 149.656 -112.867c29.8652 -79.2783 38.6719 -164.817 35.3984 -249.041c-1.84082 -47.334 -6.60254 -95.2041 -14.2773 -142.538c48.1836 6.1084 94.2363 22.6562 137.157 47.2236c9.94629 5.69336 19.751 -5.67773 9.44043 -12.624
c-42.7871 -28.8281 -95.376 -47.5928 -150.071 -54.9697c-5.96387 -32.998 -13.3604 -65.6592 -22.2256 -97.6074c-18.5176 -66.7402 -48.7471 -148.45 -121.024 -172.826c-40.1211 -13.5293 -82.0391 -4.66016 -116.834 18.2432
c-35.6885 23.4863 -55.7646 58.1992 -66.9951 98.708zM292.354 105.773c0.379883 2.05566 0.734375 4.12012 1.10645 6.17969c-84.333 -6.26172 -171.016 14.5664 -232.642 67.499c-7.35742 -64.9346 -11.418 -130.12 1.68066 -194.922
c7.12305 -35.2383 23.7412 -70.8555 54.5938 -91.2178c33.793 -22.3076 76.5254 -25.4326 103.811 7.58887c45.2891 54.8086 58.998 136.977 71.4502 204.872zM18.1162 405.302c-1.46875 -38.6992 1.38477 -85.248 14.7334 -126.309
c20.2676 3.13672 39.5801 -4.69434 36.5928 -29.0381c-1.28809 -10.498 -2.61914 -21.0078 -3.93848 -31.5293c3.21094 -3.71191 6.59766 -7.25977 10.2197 -10.5762c47.6582 -43.6758 122.849 -72.1514 187.153 -75.3936
c11.4854 -0.579102 22.8682 -0.485352 34.1572 0.129883c10.6865 64.3359 17.2451 129.514 15.4004 194.766c-2.05176 72.5625 -13.834 147.687 -44.8584 213.886c-13.3213 28.4248 -32.1602 57.3936 -60.8232 72.2617c-34.4785 17.8867 -75.249 8.77051 -104.828 -14.4893
c-55.6152 -43.7354 -81.2207 -125.496 -83.8086 -193.708z" />
    <glyph glyph-name="P" unicode="P" horiz-adv-x="476" 
d="M406.792 608.786c39.373 42.5684 111.181 81.3965 159.975 29.6377c22.7031 -24.0781 31.2627 -61.7754 32.582 -93.9707c1.4375 -35.0811 -9.56152 -70.4912 -25.7451 -101.34c-34.7988 -66.3369 -89.2471 -124.869 -149.651 -168.554
c-49.0527 -35.4727 -104.625 -65.71 -163.196 -84.0283c-16.9121 -97.6387 -25.2256 -196.691 -31.0479 -295.619c2.90527 -29.5596 5.87695 -59.9531 -1.0459 -88.7969c-4.13086 -17.2178 -33.7969 -29.1533 -44.749 -12.0889
c-18.3018 28.5186 -21.6572 66.9551 -26.6533 99.9375c-4.95312 32.7002 -9.49512 65.4941 -12.8311 98.4023c-6.10449 60.165 -10.7285 120.476 -14.0332 180.86c-52.6631 3.94336 -104.218 22.9658 -137.611 65.4121c-19.6689 24.998 -31.7607 58.6699 -29.5166 90.6816
c2.00879 28.7373 10.9521 61.4141 27.2695 85.3662c31.6904 46.5234 83.7344 55.2285 135.445 53.5176c1.46875 45.5088 4.06836 90.9355 8.08594 136.15c2.69043 30.2725 75.4453 49.3301 74.4395 12.2363c-3.33984 -123.205 -6.42188 -245.913 -3.01172 -369.056
c16.5596 2.44727 33.0488 6.39453 49.3262 11.6221c11.2734 51.1553 25.374 101.676 43.2061 151.214c25.4795 70.7852 57.1035 142.561 108.764 198.415zM1.93164 360.426c8.7168 -57.4404 67.8281 -99.7461 121.271 -111.059
c1.22559 -0.262695 2.45898 -0.442383 3.68457 -0.681641c-2.4668 67.9385 -3.1875 136.154 -1.37793 204.226c-29.3369 1.86035 -60.0322 0.845703 -84.9092 -14.4062c-24.6221 -15.0947 -43.1475 -48.5625 -38.668 -78.0791zM219.117 15.4482
c5.06348 56.6924 11.7793 113.255 21.2715 169.262c-10.6787 -2.78809 -21.4395 -5.14551 -32.2627 -7.06836c2.56055 -54.1348 6.19434 -108.215 10.9912 -162.193zM551.909 623.732c-24.998 28.46 -61.541 27.7324 -92.3506 9.24219
c-56.0029 -33.6006 -90.9277 -100.403 -116.58 -158.188c-27.9775 -63.0244 -48.6797 -129.228 -64.4326 -196.301c-0.923828 -3.94336 -1.77344 -7.90234 -2.66602 -11.8496c63.5879 24.7041 123.037 66.7314 170.179 107.385
c46.2725 39.9014 86.6826 88.7852 111.219 145.023c15.3809 35.2422 22.1904 73.3154 -5.36816 104.688z" />
    <glyph glyph-name="Q" unicode="Q" horiz-adv-x="430" 
d="M149.663 639.16c77.1602 14.8721 125.349 -48.3428 149.653 -112.862c29.8652 -79.2783 38.6719 -164.817 35.3984 -249.041c-1.84082 -47.334 -6.60254 -95.2041 -14.2773 -142.538c48.1836 6.1084 94.2363 22.6562 137.157 47.2236
c9.9502 5.69336 19.7549 -5.67773 9.44434 -12.624c-42.7871 -28.8281 -95.376 -47.5928 -150.071 -54.9697c-5.96387 -32.998 -13.3604 -65.6592 -22.2256 -97.6074c-18.5176 -66.7402 -48.7471 -148.45 -121.024 -172.826
c-14.0146 -4.72656 -28.248 -6.66504 -42.3213 -6.28125c-0.274414 -4.51074 -0.442383 -9.03711 -0.407227 -13.5947c0.0585938 -7.0166 0.602539 -14.582 1.71094 -22.3115c23.209 1.6875 46.2998 0.701172 69.0625 -6.80566
c19.5674 -6.45312 43.8291 -20.2793 46.9385 -42.877c2.74121 -19.915 -13.2979 -35.6133 -30.6172 -42.3096c-50.126 -19.375 -90.1367 25.0957 -101.743 69.5352c-0.211914 0.818359 -0.391602 1.63672 -0.591797 2.45508
c-33.7305 -3.74316 -66.9873 -12.0293 -101.09 -12.668c-16.5986 -0.30957 -7.94043 19.4531 4.69531 19.6094c30.793 0.375977 61.9932 7.0918 93.0918 11.0039c-1.68359 13.3682 -1.69531 26.7051 -0.454102 39.9639c-19.375 3.50879 -38.0957 11.3203 -55.1094 22.5195
c-35.6885 23.4863 -55.7646 58.1992 -66.9951 98.708c-25.5498 92.1494 -13.4502 191.292 0.944336 284.342c0.978516 6.32812 4.11914 11.9941 8.56738 16.8379c-29.4072 69.6416 -18.0791 154.52 7.16992 223.382c24.4932 66.8066 67.4453 139.154 143.094 153.736z
M141.68 -216.492c-1.75 -0.03125 -3.49805 -0.112305 -5.24023 -0.178711c7.66309 -28.793 24.1602 -55.7686 54.1504 -61.5361c6.68457 -1.28418 14.2969 -1.53125 20.9219 0.55957c8.72852 2.75293 18.3496 12.4209 18.7529 22.085
c0.504883 12.1699 -16.5947 22.4404 -25.5576 26.8535c-19.5 9.60547 -41.5068 12.6084 -63.0273 12.2168zM292.355 105.774c0.375977 2.05566 0.735352 4.12012 1.10352 6.17969c-84.333 -6.26172 -171.016 14.5664 -232.642 67.499
c-7.35742 -64.9346 -11.418 -130.12 1.68066 -194.922c7.12305 -35.2383 23.7412 -70.8555 54.5938 -91.2178c1.63281 -1.07715 3.30078 -2.06738 4.96875 -3.0498c6.84863 23.6943 16.0195 46.9229 24.9434 69.3838c2.74121 6.90723 20.4561 8.19922 17.0176 -0.806641
c-9.53906 -24.998 -19.1875 -50.4229 -25.5781 -76.498c29.0625 -11.0781 60.6787 -7.80078 82.4619 18.5596c45.2891 54.8086 58.998 136.977 71.4502 204.872zM267.583 541.238c-13.3252 28.4287 -32.1611 57.3955 -60.832 72.2598
c-34.4785 17.8867 -75.249 8.77051 -104.828 -14.4893c-55.6152 -43.7354 -81.2207 -125.496 -83.8086 -193.708c-1.46875 -38.7031 1.38574 -85.25 14.7383 -126.307c20.2676 3.13672 39.5801 -4.69434 36.5928 -29.0381
c-1.28809 -10.498 -2.61914 -21.0078 -3.93848 -31.5293c3.21094 -3.71191 6.59766 -7.25977 10.2197 -10.5762c47.6582 -43.6758 122.853 -72.1514 187.157 -75.3936c11.4854 -0.579102 22.8682 -0.485352 34.1572 0.129883
c10.6865 64.3359 17.2451 129.514 15.4004 194.766c-2.05176 72.5625 -13.834 147.687 -44.8584 213.886z" />
    <glyph glyph-name="R" unicode="R" horiz-adv-x="481" 
d="M241.624 582.785c28.0645 37.0781 67.4766 76.3838 116.576 80.3662c44.585 3.61426 79.8271 -29.2666 89.3623 -71.2861c25.0332 -110.346 -49.75 -211.09 -125.946 -281.647c-41.9062 -38.8047 -90.3359 -70.377 -142.055 -94.6309
c-1.71875 -0.806641 -3.45703 -1.50391 -5.17969 -2.26758c15.1855 -49.6982 29.1104 -99.6553 50.001 -147.447c19.2031 -43.9307 40.752 -92.6191 82.5449 -119.423c11.0693 -7.09961 21.6182 -12.041 34.8613 -8.83398c14.1943 3.43457 27.6963 11.5947 39.3145 20.1504
c20.3584 14.9932 37.1807 34.4424 51.082 55.4541c13.0391 19.708 23.792 40.873 33.4209 62.4258c10.6865 23.917 18.3066 49.499 32.8965 71.4189c5.15332 7.74121 25.3936 9.02148 18.6621 -3.08203c-14.6172 -26.2705 -23.3145 -55.7598 -36.0059 -83.0137
c-11.6182 -24.9434 -25.1318 -49.002 -41.8408 -70.918c-33.6406 -44.1309 -82.3447 -75.5977 -138.536 -80.1084c-65.3887 -5.25098 -118.228 45.4229 -149.049 97.7451c-19.2344 32.6494 -34.5918 68.6035 -46.5156 105.525
c-9.28809 -72.6523 -14.7783 -145.854 -19.0068 -218.256c2.90527 -29.5752 5.88086 -59.9814 -1.04199 -88.8408c-4.13086 -17.2178 -33.7969 -29.1533 -44.749 -12.0889c-18.3057 28.5186 -21.6611 66.9551 -26.6572 99.9375
c-4.95312 32.7002 -9.49512 65.4941 -12.8311 98.4023c-6.81738 67.2178 -11.8887 134.615 -15.2168 202.1c-6.71582 136.197 -7.2207 273.996 4.85938 409.884c2.69043 30.2725 75.4453 49.3301 74.4385 12.2363c-3.32031 -122.562 -6.39844 -244.64 -3.07031 -367.144
c1.5625 0.579102 3.11328 1.11523 4.62891 1.56152c15.0674 4.4248 30.4287 7.90625 45.6377 11.834c0.0429688 0.191406 0.078125 0.382812 0.121094 0.570312c24.5869 110.079 60.3418 228.276 129.294 319.376zM75.6357 15.334
c4.25684 47.6074 9.69043 95.0938 16.9541 142.302c-2.2207 8.9707 -4.27246 17.9414 -6.12109 26.8848c-4.65625 -1.3584 -9.32031 -2.74414 -13.9883 -4.19336c-2.47852 -0.771484 -5.1416 -1.31152 -7.89062 -1.64844
c2.56055 -54.5186 6.21387 -108.982 11.0459 -163.345zM292.23 615.328c-38.543 -34.4111 -65.5156 -81.8232 -87.1113 -128.139c-32.665 -70.0645 -55.9521 -143.461 -72.9619 -218.562c3.05078 1.12793 8.05859 2.89746 9.28027 3.40234
c5.87402 2.42773 11.7324 4.90625 17.5391 7.49414c45.8809 20.4365 88.6328 47.5605 127.9 78.8203c35.8135 28.5146 67.9033 62.0449 95.5176 98.5596c31.3027 41.3936 63.4082 98.5439 37.3213 149.974c-12.5264 24.6963 -36.9102 42.3018 -65.4521 39.8154
c-23.4785 -2.04785 -44.8584 -16.0312 -62.0332 -31.3652z" />
    <glyph glyph-name="S" unicode="S" horiz-adv-x="411" 
d="M450.049 160.257c-23.1025 -26.7207 -55.4414 -41.5938 -86.9551 -56.0938c-13.3682 -6.15527 -26.8779 -11.9893 -40.4033 -17.7803c14.1592 -17.3584 26.0234 -36.373 34.0977 -57.6943c13.4072 -35.4219 13.5674 -65.8359 -2.14258 -100.165
c-12.7656 -27.8916 -29.834 -50.8066 -54.7461 -68.9951c-44.7334 -32.665 -110.737 -53.4775 -162.488 -24.3604c-45.6025 25.6602 -68.1025 81.9727 -38.8164 128.241c28.7295 45.3838 82.1484 76.04 131.158 99.8047c-46.9424 39.6826 -101.383 69.8965 -149.241 108.463
c-53.2812 42.9365 -92.0742 99.7852 -107.4 166.851c-28.71 125.656 46.1787 265.941 173.699 297.977c50.5127 12.6875 129.811 14.2031 153.297 -43.4443c22.9111 -56.2266 -16.2969 -109.888 -62.334 -138.903c-11.125 -7.00879 -26.5293 3.48145 -13.0439 12.0723
c32.5244 20.7139 61.6924 52.8076 58.1211 94.0635c-3.86914 44.7139 -41.124 61.9863 -81.6641 63.2119c-80.9775 2.44727 -159.065 -48.6807 -182.133 -127.638c-18.8154 -64.4023 10.3809 -129.271 47.6113 -181.299c40.1602 -56.1201 95.2158 -96.2842 150.291 -136.421
c32.1836 -23.4551 66.3252 -48.4258 94.0684 -78.3809c10.9521 4.68359 21.9043 9.35547 32.8369 14.0703c31.9521 13.7832 67.2686 26.8574 91.0059 53.3516c6.87598 7.6748 24.2188 3.52441 15.1816 -6.93066zM322.671 -93.1709
c10.4434 19.4062 0.246094 34.915 -8.62305 52.2148c-16.2461 31.6865 -36.0518 58.4707 -61.5742 83.5703c-2.96387 2.91309 -5.98242 5.75977 -9.0332 8.56738c-30.9814 -15.0361 -61.0312 -32.0576 -88.042 -53.5547
c-30.3311 -24.1406 -59.4834 -56.7393 -44.7959 -98.0781c27.0732 -76.2041 119.395 -69.6025 174.681 -30.6836c14.2891 10.0596 28.9844 22.3477 37.3877 37.9639z" />
    <glyph glyph-name="T" unicode="T" horiz-adv-x="504" 
d="M318.934 661.734c-64.2812 18.8193 -129.662 34.5293 -196.441 19.8291c-54.625 -12.0176 -105.354 -39.4082 -139.088 -84.8271c-7.6084 -10.2393 -35.0107 -7.9873 -25.3701 7.57422c65.8633 106.293 196.309 117.872 309.513 107.107
c98.3086 -9.34668 190.692 -48.6533 286.918 -67.7109c3.46191 3.85742 6.98633 7.66309 10.6436 11.3477c34.999 35.2656 84.6973 66.5566 136.396 63.71c22.4336 -1.2373 47.667 -15.1182 47.1582 -40.5352c-0.43457 -21.8418 -21.5957 -37.8418 -38.7666 -47.7178
c-48.6416 -27.9824 -108.553 -29.7324 -163.55 -24.6064c-4.43262 -6.31641 -8.67383 -12.7148 -12.6875 -19.1367c-63.709 -102.028 -95.998 -222.813 -118.976 -339.765c-18.1299 -92.2939 -32.3008 -185.853 -39.3213 -279.814
c2.65137 -45.9746 4.84375 -92.1377 2.94824 -137.709c-1.11621 -26.792 -49.6484 -47.2598 -58.0908 -15.4834c-17.5312 65.9883 -22.1914 137.545 -26.3691 205.503c-4.26855 69.3672 -6.26172 138.923 -6.6377 208.42c-0.751953 139.143 4.56934 279.428 23.0869 417.415
c0.837891 6.2334 4.10742 11.7354 8.63379 16.3994zM648.135 692.782c-28.8555 -10.8389 -53.4229 -29.9199 -74.3525 -52.5879c21.8379 -3.6416 43.9033 -6.1084 66.3135 -6.7666c26.6543 -0.783203 61.3242 3.18359 79.5869 25.5029
c18.8584 23.0439 -5.67383 42.5518 -29.1016 42.6455c-14.3867 0.0585938 -29.0625 -3.7666 -42.4463 -8.79395zM472.568 508.421c15.1465 34.3291 32.4268 68.5498 53.916 99.6562c-48.3672 6.06152 -95.2031 19.3906 -141.738 33.6201
c-9.22168 -132.105 -17.832 -263.964 -18.1963 -396.5c-0.128906 -48.6729 0.755859 -97.3223 2.40039 -145.956c10.2354 75.1592 24.457 149.773 42.0977 222.774c15.3887 63.6699 35.0576 126.42 61.5205 186.405z" />
    <glyph glyph-name="U" unicode="U" horiz-adv-x="636" 
d="M258.295 419.538c-4.91016 -59.3232 -18.2588 -117.393 -28.3457 -175.952c-10.1182 -58.7129 -16.9043 -117.034 -16.6299 -176.683c0.125 -26.8389 4.05664 -53.6895 12.7344 -79.0908c5.76367 -16.8809 28.4316 -41.3623 47.0156 -42.6152
c28.3066 -1.90723 51.2764 33.7812 65.209 53.8574c16.5557 23.8506 30.6445 49.3535 42.9795 75.6162c24.0625 51.2217 41.2021 105.321 57.4639 159.417c28.2168 93.8643 55.9756 187.869 83.7461 281.87c6.53516 42.1729 14.6719 84.04 26.0273 125.375
c4.4209 16.0859 42.5957 32.1484 45.2393 7.43652c8.33691 -77.9316 3.23438 -156.109 -1.58984 -234.139c-4.89844 -79.2197 -10.8975 -158.282 -16.6807 -237.432c-5.52539 -75.5586 -9.22949 -152.146 -0.204102 -227.606
c3.59863 -30.1006 8.83008 -60.5967 18.7725 -89.3262c5.17676 -14.9502 11.6768 -30.4922 20.9961 -43.3906c7.17383 -9.93066 37.2197 -37.1104 36.3701 -6.31738c-0.321289 11.5908 23.3965 20.1934 24.8613 6.625c2.87402 -26.6074 -21.7324 -45.3643 -45.5635 -50.0244
c-33.292 -6.50781 -62.3701 12.7773 -84.9717 35.2891c-44.7529 44.5732 -63.083 105.275 -69.1836 166.89c-7.31836 73.9062 0.673828 149.257 7.91797 222.826c5.88965 59.7861 12.5859 119.446 19.5283 179.099c-18.9678 -65.6279 -38.4482 -131.096 -59.5303 -195.964
c-17.5781 -54.084 -38.2295 -107.729 -67.5391 -156.653c-26.1221 -43.6055 -57.7578 -92.0586 -111.999 -99.2754c-53.0273 -7.05664 -107.006 21.4229 -126.733 71.9912c-22.7188 58.2354 -15.1768 122.971 -6.75391 183.359
c17.8281 127.821 59.7812 251.383 85.1123 377.76c5.77539 28.8008 1.3584 66.6973 -36.8711 67.0225c-32.5596 0.274414 -65.9805 -26.5332 -90.082 -45.916c-22.8994 -18.416 -42.8584 -40.0586 -65.4053 -58.8037c-17.832 -14.8291 -38.5703 -25.7305 -62.21 -20.7109
c-11.4971 2.44336 -0.603516 16.2539 7.90527 14.4844c34.6074 -7.20117 65.1934 36.4473 88.249 57.0791c23.4707 21.0078 48.6572 40.8135 76.7881 55.2549c21.0938 10.8311 48.0303 19.8369 71.3408 10.5449c21.9521 -8.75195 30.2148 -30.2969 38.7979 -50.5293
c21.125 -49.8008 17.5928 -108.752 13.2383 -161.368z" />
    <glyph glyph-name="U" unicode="&#xdc;" horiz-adv-x="636" 
d="M258.295 419.538c-4.91016 -59.3232 -18.2588 -117.393 -28.3457 -175.952c-10.1182 -58.7129 -16.9043 -117.034 -16.6299 -176.683c0.125 -26.8389 4.05664 -53.6895 12.7344 -79.0908c5.76367 -16.8809 28.4316 -41.3623 47.0156 -42.6152
c28.3066 -1.90723 51.2764 33.7812 65.209 53.8574c16.5557 23.8506 30.6445 49.3535 42.9795 75.6162c24.0625 51.2217 41.2021 105.321 57.4639 159.417c28.2168 93.8643 55.9756 187.869 83.7461 281.87c6.53516 42.1729 14.6719 84.04 26.0273 125.375
c4.4209 16.0859 42.5957 32.1484 45.2393 7.43652c8.33691 -77.9316 3.23438 -156.109 -1.58984 -234.139c-4.89844 -79.2197 -10.8975 -158.282 -16.6807 -237.432c-5.52539 -75.5586 -9.22949 -152.146 -0.204102 -227.606
c3.59863 -30.1006 8.83008 -60.5967 18.7725 -89.3262c5.17676 -14.9502 11.6768 -30.4922 20.9961 -43.3906c7.17383 -9.93066 37.2197 -37.1104 36.3701 -6.31738c-0.321289 11.5908 23.3965 20.1934 24.8613 6.625c2.87402 -26.6074 -21.7324 -45.3643 -45.5635 -50.0244
c-33.292 -6.50781 -62.3701 12.7773 -84.9717 35.2891c-44.7529 44.5732 -63.083 105.275 -69.1836 166.89c-7.31836 73.9062 0.673828 149.257 7.91797 222.826c5.88965 59.7861 12.5859 119.446 19.5283 179.099c-18.9678 -65.6279 -38.4482 -131.096 -59.5303 -195.964
c-17.5781 -54.084 -38.2295 -107.729 -67.5391 -156.653c-26.1221 -43.6055 -57.7578 -92.0586 -111.999 -99.2754c-53.0273 -7.05664 -107.006 21.4229 -126.733 71.9912c-22.7188 58.2354 -15.1768 122.971 -6.75391 183.359
c17.8281 127.821 59.7812 251.383 85.1123 377.76c5.77539 28.8008 1.3584 66.6973 -36.8711 67.0225c-32.5596 0.274414 -65.9805 -26.5332 -90.082 -45.916c-22.8994 -18.416 -42.8584 -40.0586 -65.4053 -58.8037c-17.832 -14.8291 -38.5703 -25.7305 -62.21 -20.7109
c-11.4971 2.44336 -0.603516 16.2539 7.90527 14.4844c34.6074 -7.20117 65.1934 36.4473 88.249 57.0791c23.4707 21.0078 48.6572 40.8135 76.7881 55.2549c21.0938 10.8311 48.0303 19.8369 71.3408 10.5449c21.9521 -8.75195 30.2148 -30.2969 38.7979 -50.5293
c21.125 -49.8008 17.5928 -108.752 13.2383 -161.368z" />
    <glyph glyph-name="U" unicode="&#xdb;" horiz-adv-x="636" 
d="M258.295 419.538c-4.91016 -59.3232 -18.2588 -117.393 -28.3457 -175.952c-10.1182 -58.7129 -16.9043 -117.034 -16.6299 -176.683c0.125 -26.8389 4.05664 -53.6895 12.7344 -79.0908c5.76367 -16.8809 28.4316 -41.3623 47.0156 -42.6152
c28.3066 -1.90723 51.2764 33.7812 65.209 53.8574c16.5557 23.8506 30.6445 49.3535 42.9795 75.6162c24.0625 51.2217 41.2021 105.321 57.4639 159.417c28.2168 93.8643 55.9756 187.869 83.7461 281.87c6.53516 42.1729 14.6719 84.04 26.0273 125.375
c4.4209 16.0859 42.5957 32.1484 45.2393 7.43652c8.33691 -77.9316 3.23438 -156.109 -1.58984 -234.139c-4.89844 -79.2197 -10.8975 -158.282 -16.6807 -237.432c-5.52539 -75.5586 -9.22949 -152.146 -0.204102 -227.606
c3.59863 -30.1006 8.83008 -60.5967 18.7725 -89.3262c5.17676 -14.9502 11.6768 -30.4922 20.9961 -43.3906c7.17383 -9.93066 37.2197 -37.1104 36.3701 -6.31738c-0.321289 11.5908 23.3965 20.1934 24.8613 6.625c2.87402 -26.6074 -21.7324 -45.3643 -45.5635 -50.0244
c-33.292 -6.50781 -62.3701 12.7773 -84.9717 35.2891c-44.7529 44.5732 -63.083 105.275 -69.1836 166.89c-7.31836 73.9062 0.673828 149.257 7.91797 222.826c5.88965 59.7861 12.5859 119.446 19.5283 179.099c-18.9678 -65.6279 -38.4482 -131.096 -59.5303 -195.964
c-17.5781 -54.084 -38.2295 -107.729 -67.5391 -156.653c-26.1221 -43.6055 -57.7578 -92.0586 -111.999 -99.2754c-53.0273 -7.05664 -107.006 21.4229 -126.733 71.9912c-22.7188 58.2354 -15.1768 122.971 -6.75391 183.359
c17.8281 127.821 59.7812 251.383 85.1123 377.76c5.77539 28.8008 1.3584 66.6973 -36.8711 67.0225c-32.5596 0.274414 -65.9805 -26.5332 -90.082 -45.916c-22.8994 -18.416 -42.8584 -40.0586 -65.4053 -58.8037c-17.832 -14.8291 -38.5703 -25.7305 -62.21 -20.7109
c-11.4971 2.44336 -0.603516 16.2539 7.90527 14.4844c34.6074 -7.20117 65.1934 36.4473 88.249 57.0791c23.4707 21.0078 48.6572 40.8135 76.7881 55.2549c21.0938 10.8311 48.0303 19.8369 71.3408 10.5449c21.9521 -8.75195 30.2148 -30.2969 38.7979 -50.5293
c21.125 -49.8008 17.5928 -108.752 13.2383 -161.368z" />
    <glyph glyph-name="U" unicode="&#xda;" horiz-adv-x="636" 
d="M258.295 419.538c-4.91016 -59.3232 -18.2588 -117.393 -28.3457 -175.952c-10.1182 -58.7129 -16.9043 -117.034 -16.6299 -176.683c0.125 -26.8389 4.05664 -53.6895 12.7344 -79.0908c5.76367 -16.8809 28.4316 -41.3623 47.0156 -42.6152
c28.3066 -1.90723 51.2764 33.7812 65.209 53.8574c16.5557 23.8506 30.6445 49.3535 42.9795 75.6162c24.0625 51.2217 41.2021 105.321 57.4639 159.417c28.2168 93.8643 55.9756 187.869 83.7461 281.87c6.53516 42.1729 14.6719 84.04 26.0273 125.375
c4.4209 16.0859 42.5957 32.1484 45.2393 7.43652c8.33691 -77.9316 3.23438 -156.109 -1.58984 -234.139c-4.89844 -79.2197 -10.8975 -158.282 -16.6807 -237.432c-5.52539 -75.5586 -9.22949 -152.146 -0.204102 -227.606
c3.59863 -30.1006 8.83008 -60.5967 18.7725 -89.3262c5.17676 -14.9502 11.6768 -30.4922 20.9961 -43.3906c7.17383 -9.93066 37.2197 -37.1104 36.3701 -6.31738c-0.321289 11.5908 23.3965 20.1934 24.8613 6.625c2.87402 -26.6074 -21.7324 -45.3643 -45.5635 -50.0244
c-33.292 -6.50781 -62.3701 12.7773 -84.9717 35.2891c-44.7529 44.5732 -63.083 105.275 -69.1836 166.89c-7.31836 73.9062 0.673828 149.257 7.91797 222.826c5.88965 59.7861 12.5859 119.446 19.5283 179.099c-18.9678 -65.6279 -38.4482 -131.096 -59.5303 -195.964
c-17.5781 -54.084 -38.2295 -107.729 -67.5391 -156.653c-26.1221 -43.6055 -57.7578 -92.0586 -111.999 -99.2754c-53.0273 -7.05664 -107.006 21.4229 -126.733 71.9912c-22.7188 58.2354 -15.1768 122.971 -6.75391 183.359
c17.8281 127.821 59.7812 251.383 85.1123 377.76c5.77539 28.8008 1.3584 66.6973 -36.8711 67.0225c-32.5596 0.274414 -65.9805 -26.5332 -90.082 -45.916c-22.8994 -18.416 -42.8584 -40.0586 -65.4053 -58.8037c-17.832 -14.8291 -38.5703 -25.7305 -62.21 -20.7109
c-11.4971 2.44336 -0.603516 16.2539 7.90527 14.4844c34.6074 -7.20117 65.1934 36.4473 88.249 57.0791c23.4707 21.0078 48.6572 40.8135 76.7881 55.2549c21.0938 10.8311 48.0303 19.8369 71.3408 10.5449c21.9521 -8.75195 30.2148 -30.2969 38.7979 -50.5293
c21.125 -49.8008 17.5928 -108.752 13.2383 -161.368z" />
    <glyph glyph-name="V" unicode="V" horiz-adv-x="492" 
d="M269.935 -144.549c27.0693 12.6318 37.2314 56.2695 44.374 82.1094c15.5732 56.3672 27.9668 113.701 41.2334 170.644c26.623 114.281 53.4814 228.812 91.6875 339.898c18.874 54.875 40.2383 109.144 65.2988 161.505c21.2432 44.3848 42.7207 93.6133 85.626 121.16
c23.3613 14.9971 42.917 -9.35449 17.3906 -23.252c-28.9531 -15.7646 -48.0654 -45.6377 -63.2354 -73.9131c-16.0742 -29.959 -30.75 -60.6543 -44.2676 -91.8428c-28.4404 -65.624 -50.5605 -134.009 -70.1826 -202.73
c-34.2549 -119.986 -59.9814 -242.173 -90.0391 -363.232c-11.2695 -45.3994 -22.5273 -114.078 -69.6455 -137.153c-43.9736 -21.5361 -102.569 5.67871 -131.378 40.5879c-34.4902 41.7969 -49.3076 95.9238 -64.8848 146.816
c-19.5361 63.835 -34.3574 129.498 -47.7412 194.859c-26.7402 130.57 -52.502 263.412 -67.002 395.968c-4.29199 39.2393 74.2852 66.5322 83.0098 22.1279c13.8613 -70.5576 22.5898 -142.29 33.9805 -213.286c11.4062 -71.1025 23.7451 -142.063 37.9395 -212.664
c12.4521 -61.9316 25.5547 -123.687 38.915 -185.43c10.3301 -47.7373 23.9648 -92.7412 49.5508 -134.69c10.7256 -17.5859 36.2793 -48.2578 59.3701 -37.4814z" />
    <glyph glyph-name="W" unicode="W" horiz-adv-x="734" 
d="M325.865 281.398c-7.75684 -47.6855 -16.9854 -95.0986 -28.2783 -141.954c-10.7139 -44.3926 -23.3691 -88.5078 -39.3809 -131.303c-12.0098 -32.0938 -28.5029 -64.6182 -60.5381 -80.7236c-77.4062 -38.9189 -158.039 33.417 -185.508 101.214
c-17.3467 42.8145 -24.3398 90.6924 -29.2539 136.318c-5.11816 47.5684 -6.73926 95.415 -5.52539 143.23c2.51758 98.9473 13.9199 197.757 27.4297 295.732c5.05957 36.6826 83.0693 51.3867 77.5049 4.6875c-11.54 -96.8486 -25.124 -193.45 -27.5947 -291.098
c-2.08691 -82.5479 -0.763672 -169.688 19.8604 -250.157c8.79883 -34.3252 21.7559 -70.1465 46.3662 -96.5508c12.5967 -13.5176 32.6338 -32.7598 52.5215 -31.6396c20.3389 1.14746 36.4209 19.0977 46.0615 35.3125c20.3389 34.2119 30.8838 76.3691 41.7422 114.371
c11.332 39.6465 20.6826 79.8418 28.7021 120.283c12.6123 63.5996 21.3447 127.774 30.4805 191.906c-0.375977 19.0811 -0.563477 38.127 -0.563477 57.0947c0 36.5498 76.3574 61.9707 77.3477 20.6162c2.89746 -121.095 7.6123 -240.964 25.9424 -360.899
c7.45215 -48.7314 16.7285 -98.5635 33.4961 -145.039c13.1963 -36.5732 47.416 -111.791 96.085 -76.1533c40.0742 29.3447 40.6611 93.3516 47.5762 137.787c8.19922 52.6904 16.7861 105.322 25.4434 157.938c17.2451 104.781 34.4551 209.609 62.0889 312.229
c22.7783 84.584 51.1719 169.544 112.994 234.182c7.98438 8.34863 24.7793 16.0742 35.6299 7.92578c11.4141 -8.57129 4.70605 -21.1914 -4.06543 -28.6592c-42.7441 -36.4043 -66.9121 -89.584 -84.6074 -141.754c-19.2188 -56.6689 -32.1836 -115.084 -47.6074 -172.817
c-30.3818 -113.717 -52.416 -228.793 -71.2119 -344.934c-7.68262 -47.4668 -9.08789 -104.417 -35.7656 -146.076c-23.498 -36.6904 -57.9688 -48.4219 -99.7148 -43.8447c-53.0938 5.82227 -80.332 46.9922 -101.606 92.125
c-22.2607 47.2275 -34.1729 97.752 -43.9619 148.813c-10.8193 56.4375 -17.793 114.015 -22.0889 171.835z" />
    <glyph glyph-name="X" unicode="X" horiz-adv-x="434" 
d="M579.803 -90.5234c-32.751 -51.0459 -107.157 -66.25 -162.439 -48.375c-67.5625 21.8418 -114.778 80.9854 -148.571 140.567c-38.1201 67.2061 -63.7881 141.617 -86.6328 215.183c-7.54199 24.2773 -14.8291 48.6328 -22.0068 73.0205
c-5.02734 -4.92578 -10.0273 -9.87891 -14.9883 -14.8711c-82.501 -83.0371 -184.796 -196.19 -157.723 -323.127c2.31055 -10.8271 -20.499 -18.6113 -23.3496 -6.22559c-15.7412 68.4199 6.78613 136.934 43.3945 194.762
c40.2188 63.5371 91.8828 118.589 146.516 170.449c-13.6074 46.7148 -26.8623 93.5312 -40.4932 140.238c-22.8369 78.252 -47.9482 155.74 -71.8223 233.66c-12.3975 40.4648 64.707 80.46 81.7988 39.8965c32.0469 -76.0479 54.3311 -156.117 76.4551 -235.521
c10.083 -36.1895 19.876 -72.5469 29.7402 -108.912c5.87012 5.27832 11.7285 10.5527 17.5713 15.8232c45.0156 40.6143 89.8818 81.5264 131.193 125.966c40.6377 43.7119 84.0439 91.6719 96.5039 151.802c2.00098 9.65234 23.0869 13.5645 20.7256 1.25293
c-11.9824 -62.5537 -55.4395 -113.099 -97.3105 -158.705c-51.0225 -55.5723 -107.476 -105.545 -163.216 -156.266c25.7812 -94.6553 52.5371 -189.201 86.7998 -280.9c21.29 -56.9824 48.4102 -119.133 92.3604 -162.547
c19.1162 -18.8818 43.7852 -33.7383 70.4824 -38.8135c28.2363 -5.36816 59.915 11.7119 75.3311 34.8936c5.62695 8.46191 27.3125 8.6416 19.6807 -3.25098z" />
    <glyph glyph-name="Y" unicode="Y" horiz-adv-x="567" 
d="M186.389 278.681c7.75684 -28.8164 24.834 -69.5967 59.5234 -72.2002c37.1875 -2.79199 54.5693 52.0596 66.4336 78.6006c17.4834 39.1182 33.0215 79.0703 47.2588 119.48c26.9014 76.3652 49.2363 154.226 71.5127 232.035
c0.344727 7.95703 0.728516 15.9375 1.13184 23.9766c0.697266 13.8848 31.957 33.1738 37.7998 14.1396c12.6992 -41.374 21.5254 -81.1074 27.3955 -124.005c5.58398 -40.8057 10.0439 -81.9326 12.2881 -123.071c4.64062 -85.0537 5.36914 -170.476 -2.07422 -255.385
c-1.46094 -16.665 -3.12891 -33.7568 -5.17676 -51.0371c30.2295 4.53809 60.1025 11.9385 89.4238 23.459c14.2412 5.5957 22.2881 -10.2393 7.78027 -15.9482c-32.751 -12.8906 -65.9883 -21.0078 -99.5381 -25.8594
c-15.6592 -116.333 -51.2451 -237.717 -160.157 -295.799c-119.242 -63.5918 -258.373 11.4297 -326.612 114.872c-29.0469 44.0283 -49.127 109.84 -19.6689 158.587c31.3145 51.8174 99.2881 52.0166 152.676 51.0576c91.002 -1.63672 184.987 -17.5547 277.102 -16.3994
c5.9209 45.7363 9.27246 91.7812 10.9053 137.89c2.36133 66.6699 0.250977 133.3 -1.2959 199.962c-0.791016 34.2783 -1.66406 68.5684 -2.85449 102.831c-0.128906 3.67285 -0.210938 7.33008 -0.28125 10.9834c-18.502 -65.6787 -38.0176 -131.075 -61.3086 -195.23
c-13.4854 -37.1445 -28.1729 -73.874 -44.5723 -109.836c-12.1348 -26.6152 -25.4287 -57.1191 -50.2314 -74.3799c-27.2852 -18.9951 -62.5781 -17.9492 -92.2207 -5.37207c-33.6602 14.2842 -54.9307 42.791 -68.7061 75.7617
c-30.1436 72.1514 -33.1074 154.899 -45.4072 231.296c-6.25781 38.8643 -14.0264 77.6846 -23.0635 115.996c-2.65137 11.2461 -7.13867 32.8887 -19.1953 38.0771c-16.168 6.95801 -29.8066 -16.043 -37.125 -26.7178
c-6.99707 -10.2041 -34.043 -13.0938 -25.4678 4.20605c16.752 33.7891 38.7666 66.4072 80.7979 65.7764c39.0127 -0.583008 61.9668 -35.9541 77.3672 -67.4326c34.2432 -70.002 35.2529 -153.74 45.7041 -229.545c5.09082 -36.9297 10.1543 -74.7129 19.8574 -110.77z
M414.321 56.041c2.49805 13.5645 4.66797 27.1768 6.65332 40.8076c-81.6904 -1.34277 -164.521 9.94629 -246.297 14.0264c-51.4922 2.57227 -145.814 14.6406 -164.767 -50.1729c-15.918 -54.4326 16.5283 -111.626 54.0684 -148.786
c40.1484 -39.7451 102.221 -67.2568 157.613 -75.3232c54.0879 -7.875 96.8477 12.7646 130.496 54.3887c37.2109 46.0332 51.7461 108.176 62.2324 165.06z" />
    <glyph glyph-name="Y" unicode="&#x178;" horiz-adv-x="567" 
d="M186.389 278.681c7.75684 -28.8164 24.834 -69.5967 59.5234 -72.2002c37.1875 -2.79199 54.5693 52.0596 66.4336 78.6006c17.4834 39.1182 33.0215 79.0703 47.2588 119.48c26.9014 76.3652 49.2363 154.226 71.5127 232.035
c0.344727 7.95703 0.728516 15.9375 1.13184 23.9766c0.697266 13.8848 31.957 33.1738 37.7998 14.1396c12.6992 -41.374 21.5254 -81.1074 27.3955 -124.005c5.58398 -40.8057 10.0439 -81.9326 12.2881 -123.071c4.64062 -85.0537 5.36914 -170.476 -2.07422 -255.385
c-1.46094 -16.665 -3.12891 -33.7568 -5.17676 -51.0371c30.2295 4.53809 60.1025 11.9385 89.4238 23.459c14.2412 5.5957 22.2881 -10.2393 7.78027 -15.9482c-32.751 -12.8906 -65.9883 -21.0078 -99.5381 -25.8594
c-15.6592 -116.333 -51.2451 -237.717 -160.157 -295.799c-119.242 -63.5918 -258.373 11.4297 -326.612 114.872c-29.0469 44.0283 -49.127 109.84 -19.6689 158.587c31.3145 51.8174 99.2881 52.0166 152.676 51.0576c91.002 -1.63672 184.987 -17.5547 277.102 -16.3994
c5.9209 45.7363 9.27246 91.7812 10.9053 137.89c2.36133 66.6699 0.250977 133.3 -1.2959 199.962c-0.791016 34.2783 -1.66406 68.5684 -2.85449 102.831c-0.128906 3.67285 -0.210938 7.33008 -0.28125 10.9834c-18.502 -65.6787 -38.0176 -131.075 -61.3086 -195.23
c-13.4854 -37.1445 -28.1729 -73.874 -44.5723 -109.836c-12.1348 -26.6152 -25.4287 -57.1191 -50.2314 -74.3799c-27.2852 -18.9951 -62.5781 -17.9492 -92.2207 -5.37207c-33.6602 14.2842 -54.9307 42.791 -68.7061 75.7617
c-30.1436 72.1514 -33.1074 154.899 -45.4072 231.296c-6.25781 38.8643 -14.0264 77.6846 -23.0635 115.996c-2.65137 11.2461 -7.13867 32.8887 -19.1953 38.0771c-16.168 6.95801 -29.8066 -16.043 -37.125 -26.7178
c-6.99707 -10.2041 -34.043 -13.0938 -25.4678 4.20605c16.752 33.7891 38.7666 66.4072 80.7979 65.7764c39.0127 -0.583008 61.9668 -35.9541 77.3672 -67.4326c34.2432 -70.002 35.2529 -153.74 45.7041 -229.545c5.09082 -36.9297 10.1543 -74.7129 19.8574 -110.77z
M414.321 56.041c2.49805 13.5645 4.66797 27.1768 6.65332 40.8076c-81.6904 -1.34277 -164.521 9.94629 -246.297 14.0264c-51.4922 2.57227 -145.814 14.6406 -164.767 -50.1729c-15.918 -54.4326 16.5283 -111.626 54.0684 -148.786
c40.1484 -39.7451 102.221 -67.2568 157.613 -75.3232c54.0879 -7.875 96.8477 12.7646 130.496 54.3887c37.2109 46.0332 51.7461 108.176 62.2324 165.06z" />
    <glyph glyph-name="Y" unicode="&#xdd;" horiz-adv-x="567" 
d="M186.389 278.681c7.75684 -28.8164 24.834 -69.5967 59.5234 -72.2002c37.1875 -2.79199 54.5693 52.0596 66.4336 78.6006c17.4834 39.1182 33.0215 79.0703 47.2588 119.48c26.9014 76.3652 49.2363 154.226 71.5127 232.035
c0.344727 7.95703 0.728516 15.9375 1.13184 23.9766c0.697266 13.8848 31.957 33.1738 37.7998 14.1396c12.6992 -41.374 21.5254 -81.1074 27.3955 -124.005c5.58398 -40.8057 10.0439 -81.9326 12.2881 -123.071c4.64062 -85.0537 5.36914 -170.476 -2.07422 -255.385
c-1.46094 -16.665 -3.12891 -33.7568 -5.17676 -51.0371c30.2295 4.53809 60.1025 11.9385 89.4238 23.459c14.2412 5.5957 22.2881 -10.2393 7.78027 -15.9482c-32.751 -12.8906 -65.9883 -21.0078 -99.5381 -25.8594
c-15.6592 -116.333 -51.2451 -237.717 -160.157 -295.799c-119.242 -63.5918 -258.373 11.4297 -326.612 114.872c-29.0469 44.0283 -49.127 109.84 -19.6689 158.587c31.3145 51.8174 99.2881 52.0166 152.676 51.0576c91.002 -1.63672 184.987 -17.5547 277.102 -16.3994
c5.9209 45.7363 9.27246 91.7812 10.9053 137.89c2.36133 66.6699 0.250977 133.3 -1.2959 199.962c-0.791016 34.2783 -1.66406 68.5684 -2.85449 102.831c-0.128906 3.67285 -0.210938 7.33008 -0.28125 10.9834c-18.502 -65.6787 -38.0176 -131.075 -61.3086 -195.23
c-13.4854 -37.1445 -28.1729 -73.874 -44.5723 -109.836c-12.1348 -26.6152 -25.4287 -57.1191 -50.2314 -74.3799c-27.2852 -18.9951 -62.5781 -17.9492 -92.2207 -5.37207c-33.6602 14.2842 -54.9307 42.791 -68.7061 75.7617
c-30.1436 72.1514 -33.1074 154.899 -45.4072 231.296c-6.25781 38.8643 -14.0264 77.6846 -23.0635 115.996c-2.65137 11.2461 -7.13867 32.8887 -19.1953 38.0771c-16.168 6.95801 -29.8066 -16.043 -37.125 -26.7178
c-6.99707 -10.2041 -34.043 -13.0938 -25.4678 4.20605c16.752 33.7891 38.7666 66.4072 80.7979 65.7764c39.0127 -0.583008 61.9668 -35.9541 77.3672 -67.4326c34.2432 -70.002 35.2529 -153.74 45.7041 -229.545c5.09082 -36.9297 10.1543 -74.7129 19.8574 -110.77z
M414.321 56.041c2.49805 13.5645 4.66797 27.1768 6.65332 40.8076c-81.6904 -1.34277 -164.521 9.94629 -246.297 14.0264c-51.4922 2.57227 -145.814 14.6406 -164.767 -50.1729c-15.918 -54.4326 16.5283 -111.626 54.0684 -148.786
c40.1484 -39.7451 102.221 -67.2568 157.613 -75.3232c54.0879 -7.875 96.8477 12.7646 130.496 54.3887c37.2109 46.0332 51.7461 108.176 62.2324 165.06z" />
    <glyph glyph-name="Z" unicode="Z" horiz-adv-x="483" 
d="M499.732 -71.4893c7.70215 -7.55762 -9.78809 -19.2344 -16.4727 -12.4521c-28.7842 29.2158 -67.624 41.6367 -106.684 50.6152c-42.0547 9.66797 -84.8457 16.2695 -127.837 19.9736c-38.1904 -42.2275 -81.123 -79.8496 -131.616 -107.256
c-38.9346 -21.1289 -81.7881 -35.6445 -126.099 -39.2744c-34.5996 -2.83496 -79.0156 0.0820312 -104.374 27.4219c-56.0771 60.4668 76.2207 110.165 116.036 120.62c54.918 14.4258 113.142 19.332 170.883 18.7529c58.8223 60.7412 109.21 131.636 150.521 206.571
c-8.83789 0.563477 -17.6914 0.966797 -26.5801 1.05273c-13.999 0.136719 -6.72363 16.6416 3.95898 16.5361c10.5293 -0.101562 20.9883 -0.59082 31.416 -1.31934c16.6533 31.4277 31.7568 63.459 45.207 95.6777c27.1357 65.0127 54.6865 140.606 53.8564 211.842
c-0.375977 32.2734 -8.15625 68.8467 -32.7588 91.5498c-27.4336 25.3154 -65.6279 32.3516 -101.817 31.999c-63.3721 -0.623047 -125.977 -19.1758 -180.574 -51.0771c-27.6885 -16.1758 -53.709 -35.9971 -75.8408 -59.2295
c-11.9355 -12.5264 -62.124 -62.1934 -45.8389 -81.7686c10.7178 -12.8789 -13.7441 -26.9521 -24.583 -18.5723c-33.2842 25.7344 15.0166 73.001 32.959 92.709c27.4258 30.124 59.2881 56.5908 93.9893 77.8965c69.293 42.5488 155.447 68.0361 237.169 58.9043
c76.9092 -8.59082 131.439 -69.9697 144.8 -144.455c15.0361 -83.8359 -14.708 -177.234 -45.0586 -254.52c-8.20703 -20.8945 -17.3896 -41.4092 -27.3672 -61.5518c13.9912 -3.04688 27.9043 -6.60645 41.7305 -10.8193
c11.1445 -3.39844 -4.35352 -17.7148 -13.2539 -15.0049c-12.1426 3.7002 -24.3984 6.87598 -36.7334 9.60938c-27.3594 -52.416 -60.0244 -102.229 -95.3213 -149.362c-13.126 -17.5234 -26.7607 -34.7686 -41.041 -51.4375
c0.555664 -0.0546875 1.11914 -0.0976562 1.67871 -0.148438c46.8086 -4.4248 93.833 -11.877 139.307 -23.9844c35.5938 -9.48047 69.6807 -23.3418 96.3389 -49.499zM-14.3535 -110.929c64.0967 10.0088 120.517 52.4893 166.226 96.1895
c1.87207 1.78906 3.68555 3.66113 5.54199 5.4707c-55.2197 -0.121094 -110.917 -5.61133 -162.719 -20.7461c-17.499 -5.11426 -34.5088 -11.6807 -50.6689 -20.1348c-13.2627 -6.93848 -36.6084 -18.6387 -42.2705 -33.7217
c-14.3203 -38.1436 66.8184 -29.7246 83.8906 -27.0576z" />
    <glyph glyph-name="bracketleft" unicode="[" horiz-adv-x="273" 
d="M213.581 -109.489c14.8135 -9.69141 10.3838 -27.2031 0.833008 -38.9893c-24.6885 -30.4844 -72.7031 -43.5273 -108.109 -24.5166c-32.7744 17.6016 -46.4951 53.1016 -50.168 88.3594c-7.44727 71.4072 -6.12402 145.012 -5.91211 216.732
c0.211914 72.7393 2.50684 145.239 6.4502 217.868c4.04883 74.54 14.1865 148.704 17.6094 223.213c1.37793 29.9902 -2.83105 65.9404 28.5225 82.0615c21.251 10.9248 44.6943 7.63574 59.5117 -11.3945c8.35254 -10.7256 -7.61621 -20.6836 -17.374 -19.6064
c-5.30566 0.583008 -9.625 0.078125 -14.2773 -0.736328c-0.0859375 -0.321289 -0.136719 -0.587891 -0.242188 -0.952148c-0.0976562 -2.57617 -0.195312 -5.14844 -0.292969 -7.7207c-1.02246 -17.9346 -1.77441 -36.0527 -1.79785 -54.0186
c-0.046875 -35.4883 1.62891 -71.0742 2.66699 -106.547c2.05957 -70.2207 2.21973 -140.724 2.49023 -210.979c0.270508 -70.7812 1.63672 -141.594 3.97852 -212.336c1.12012 -33.8125 0.03125 -69.1445 5.68945 -102.573
c2.06348 -12.1816 6.14355 -25.1113 15.0947 -34.043c-1.01465 1.00977 6.13574 -4.73438 9.68359 -6.90723c-1.03418 -0.677734 -1.28906 -0.936523 0.100586 -0.0634766c1.24121 -0.751953 2.0166 -1.0459 1.78125 -0.395508
c0.458008 -1.26465 3.62988 2.9248 0.912109 1.97363c13.0352 7.16211 30.2842 9.79395 42.8496 1.57129z" />
    <glyph glyph-name="backslash" unicode="\" horiz-adv-x="435" 
d="M382.519 -80.8887c16.1055 -38.9033 -63.4463 -76.377 -78.585 -38.332c-45.4619 114.277 -82.6143 231.647 -119.086 349.034c-18.2705 58.8105 -36.0088 117.684 -57.0049 175.609c-20.8477 57.5146 -46.9229 113.013 -75.8525 166.89
c-12.4014 23.1025 36.7061 47.126 49.6318 24.207c59.7109 -105.874 109.421 -219.251 153.23 -332.557c44.2168 -114.359 80.7393 -231.515 127.666 -344.852z" />
    <glyph glyph-name="bracketright" unicode="]" horiz-adv-x="273" 
d="M201.503 549.394c14.668 -144.264 22.2168 -288.388 21.4727 -433.423c-0.1875 -37.3643 -1.28027 -74.7402 -2.62305 -112.081c-1.18262 -32.7471 0.606445 -68.8037 -8.81055 -100.49c-10.1064 -34.0039 -33.0293 -62.8672 -65.9961 -77.0811
c-28.6904 -12.3701 -68.7324 -12.374 -89.2002 14.7148c-25.9414 34.333 34.2471 67.6641 62.6162 47.3135c5.5293 -3.96289 3.6377 -0.532227 3.11719 -1.02148c7.62793 7.1582 8.50879 23.9883 9.62891 33.6211c3.93555 33.8086 3.5166 68.6826 4.53125 102.687
c2.16113 72.3633 2.84668 144.715 3.54004 217.102c0.701172 72.9268 1.15918 145.92 3.08594 218.819c0.966797 36.5459 2.69727 73.2051 1.37012 109.751c-0.282227 7.74121 -0.568359 15.4863 -0.858398 23.2275c-0.243164 6.46875 1.77734 19.7979 -1.94629 25.6406
c-4.3623 6.84473 -14.7197 6.89941 -21.8545 5.90137c-9.72266 -1.3584 -14.3828 9.19043 -7.78516 15.9648c17.7891 18.2705 51.4053 31.9678 73.6387 12.6162c12.0449 -10.4863 11.7314 -27.0029 12.4248 -41.6904c0.966797 -20.5459 1.56543 -41.0996 3.64844 -61.5713z
" />
    <glyph glyph-name="asciicircum" unicode="^" horiz-adv-x="229" 
d="M177.186 465.209c5.31348 -16.8691 -6.16211 -31.4131 -21.1279 -38.708c-11.3789 -5.55273 -38.2725 -9.44922 -43.5117 7.18066c-2.29102 7.25977 -4.70703 16.4268 -7.73438 25.7227c-4.86328 -10.4902 -10.4902 -20.4404 -18.792 -27.1367
c-7.57324 -6.1084 -19.042 -7.76074 -27.0576 -1.91016c-15.001 10.9482 -7.81934 39.7529 -2.41992 54.457c7.23242 19.6846 18.29 43.332 36.6865 54.6758c51.042 31.4785 72.4961 -37.9043 83.957 -74.2812z" />
    <glyph glyph-name="underscore" unicode="_" horiz-adv-x="321" 
d="M242.942 -19.8896c15.8037 1.93066 31.043 -9.6748 27.5029 -26.3086c-3.9082 -18.3887 -24.2266 -28.2764 -41.0957 -30.4609c-52.1543 -6.75098 -108.545 -15.5928 -161.114 -10.1025c-14.7549 1.53906 -21.4512 15.2715 -16.748 28.0996
c5.79102 15.792 22.2842 23.1572 37.7393 25.5225c50.4854 7.72949 102.847 7.04004 153.716 13.25z" />
    <glyph glyph-name="grave" unicode="`" horiz-adv-x="199" 
d="M145.409 470.582c16.2383 -21.6973 -26.3301 -45.7822 -40.7754 -24.9736c-12.9414 18.6543 -25.3154 37.6729 -36.9062 57.2002c-9.45605 15.9336 -24.9541 34.373 -13.9121 52.2207c3.62988 5.87012 9.72656 8.32129 16.3916 7.99609
c19.3906 -0.951172 27.4023 -22.1631 36.8945 -37.0352c12.0801 -18.9326 24.8496 -37.4307 38.3076 -55.4082z" />
    <glyph glyph-name="a" unicode="a" horiz-adv-x="279" 
d="M283.18 136.95c3.03125 7.7334 21.8242 11.1592 18.1318 1.0957c-15.6631 -42.6191 -32.7666 -85.0381 -53.2305 -125.605c-15.6592 -31.04 -33.2295 -59.0137 -71.4902 -58.3477c-49.2129 0.857422 -59.3701 49.5146 -60.0166 89.6045
c-0.211914 13.1104 0.105469 26.4004 0.791016 39.7451c-8.41895 -22.2178 -17.8555 -43.8916 -28.9092 -64.2852c-10.7256 -19.7861 -23.6553 -28.749 -45.6152 -32.6768c-23.9326 -4.28418 -46.8164 11.1162 -54.9883 33.6123
c-9.69141 26.6777 -5.79883 58.6729 0.580078 85.7539c6.66504 28.3027 17.2568 60.3535 37.5322 82.0586c18.1025 19.3789 43.4023 33.374 70.5107 31.0244c16.2656 -1.40918 28.4902 -8.68457 39.1016 -18.7598c19.5078 26.6426 77.0498 33.0488 73.0713 -8.5791
c-6.25391 -65.4043 -20.5938 -132.082 -15.7969 -198.012c0.379883 -5.22363 -1.28809 -19.6416 9.01074 -16.8496c5.41113 1.46875 12.1816 14.2578 15.126 18.8271c8.5166 13.2236 15.4863 27.418 22.3857 41.5303c15.9727 32.6689 30.5391 66.0039 43.8057 99.8633z
M126.48 167.915c0.243164 1.52344 0.496094 3.03613 0.743164 4.55176c-3.85742 4.13867 -7.87891 8.12891 -12.5625 11.3477c-10.9365 7.51465 -17.0059 7.16992 -23.5684 -3.75098c-8.34863 -13.8975 -15.6904 -29.1338 -21.5762 -44.2373
c-12.3467 -31.6904 -19.4033 -68.3418 -16.7793 -102.236c0.481445 -6.19824 -0.0976562 -16.1562 4.32715 -21.3018c0.407227 -5.6582 1.98145 -5.66992 4.72656 -0.0390625c3.08203 4.20117 5.80762 8.62207 8.17676 13.2588
c8.00391 14.4727 14.1514 30.0928 20.4561 45.3447c13.1924 31.9209 25.1006 64.3232 36.0566 97.0625z" />
    <glyph glyph-name="a" unicode="&#xe5;" horiz-adv-x="279" 
d="M283.18 136.95c3.03125 7.7334 21.8242 11.1592 18.1318 1.0957c-15.6631 -42.6191 -32.7666 -85.0381 -53.2305 -125.605c-15.6592 -31.04 -33.2295 -59.0137 -71.4902 -58.3477c-49.2129 0.857422 -59.3701 49.5146 -60.0166 89.6045
c-0.211914 13.1104 0.105469 26.4004 0.791016 39.7451c-8.41895 -22.2178 -17.8555 -43.8916 -28.9092 -64.2852c-10.7256 -19.7861 -23.6553 -28.749 -45.6152 -32.6768c-23.9326 -4.28418 -46.8164 11.1162 -54.9883 33.6123
c-9.69141 26.6777 -5.79883 58.6729 0.580078 85.7539c6.66504 28.3027 17.2568 60.3535 37.5322 82.0586c18.1025 19.3789 43.4023 33.374 70.5107 31.0244c16.2656 -1.40918 28.4902 -8.68457 39.1016 -18.7598c19.5078 26.6426 77.0498 33.0488 73.0713 -8.5791
c-6.25391 -65.4043 -20.5938 -132.082 -15.7969 -198.012c0.379883 -5.22363 -1.28809 -19.6416 9.01074 -16.8496c5.41113 1.46875 12.1816 14.2578 15.126 18.8271c8.5166 13.2236 15.4863 27.418 22.3857 41.5303c15.9727 32.6689 30.5391 66.0039 43.8057 99.8633z
M126.48 167.915c0.243164 1.52344 0.496094 3.03613 0.743164 4.55176c-3.85742 4.13867 -7.87891 8.12891 -12.5625 11.3477c-10.9365 7.51465 -17.0059 7.16992 -23.5684 -3.75098c-8.34863 -13.8975 -15.6904 -29.1338 -21.5762 -44.2373
c-12.3467 -31.6904 -19.4033 -68.3418 -16.7793 -102.236c0.481445 -6.19824 -0.0976562 -16.1562 4.32715 -21.3018c0.407227 -5.6582 1.98145 -5.66992 4.72656 -0.0390625c3.08203 4.20117 5.80762 8.62207 8.17676 13.2588
c8.00391 14.4727 14.1514 30.0928 20.4561 45.3447c13.1924 31.9209 25.1006 64.3232 36.0566 97.0625z" />
    <glyph glyph-name="a" unicode="&#xe4;" horiz-adv-x="279" 
d="M283.18 136.95c3.03125 7.7334 21.8242 11.1592 18.1318 1.0957c-15.6631 -42.6191 -32.7666 -85.0381 -53.2305 -125.605c-15.6592 -31.04 -33.2295 -59.0137 -71.4902 -58.3477c-49.2129 0.857422 -59.3701 49.5146 -60.0166 89.6045
c-0.211914 13.1104 0.105469 26.4004 0.791016 39.7451c-8.41895 -22.2178 -17.8555 -43.8916 -28.9092 -64.2852c-10.7256 -19.7861 -23.6553 -28.749 -45.6152 -32.6768c-23.9326 -4.28418 -46.8164 11.1162 -54.9883 33.6123
c-9.69141 26.6777 -5.79883 58.6729 0.580078 85.7539c6.66504 28.3027 17.2568 60.3535 37.5322 82.0586c18.1025 19.3789 43.4023 33.374 70.5107 31.0244c16.2656 -1.40918 28.4902 -8.68457 39.1016 -18.7598c19.5078 26.6426 77.0498 33.0488 73.0713 -8.5791
c-6.25391 -65.4043 -20.5938 -132.082 -15.7969 -198.012c0.379883 -5.22363 -1.28809 -19.6416 9.01074 -16.8496c5.41113 1.46875 12.1816 14.2578 15.126 18.8271c8.5166 13.2236 15.4863 27.418 22.3857 41.5303c15.9727 32.6689 30.5391 66.0039 43.8057 99.8633z
M126.48 167.915c0.243164 1.52344 0.496094 3.03613 0.743164 4.55176c-3.85742 4.13867 -7.87891 8.12891 -12.5625 11.3477c-10.9365 7.51465 -17.0059 7.16992 -23.5684 -3.75098c-8.34863 -13.8975 -15.6904 -29.1338 -21.5762 -44.2373
c-12.3467 -31.6904 -19.4033 -68.3418 -16.7793 -102.236c0.481445 -6.19824 -0.0976562 -16.1562 4.32715 -21.3018c0.407227 -5.6582 1.98145 -5.66992 4.72656 -0.0390625c3.08203 4.20117 5.80762 8.62207 8.17676 13.2588
c8.00391 14.4727 14.1514 30.0928 20.4561 45.3447c13.1924 31.9209 25.1006 64.3232 36.0566 97.0625z" />
    <glyph glyph-name="a" unicode="&#xe3;" horiz-adv-x="279" 
d="M283.18 136.95c3.03125 7.7334 21.8242 11.1592 18.1318 1.0957c-15.6631 -42.6191 -32.7666 -85.0381 -53.2305 -125.605c-15.6592 -31.04 -33.2295 -59.0137 -71.4902 -58.3477c-49.2129 0.857422 -59.3701 49.5146 -60.0166 89.6045
c-0.211914 13.1104 0.105469 26.4004 0.791016 39.7451c-8.41895 -22.2178 -17.8555 -43.8916 -28.9092 -64.2852c-10.7256 -19.7861 -23.6553 -28.749 -45.6152 -32.6768c-23.9326 -4.28418 -46.8164 11.1162 -54.9883 33.6123
c-9.69141 26.6777 -5.79883 58.6729 0.580078 85.7539c6.66504 28.3027 17.2568 60.3535 37.5322 82.0586c18.1025 19.3789 43.4023 33.374 70.5107 31.0244c16.2656 -1.40918 28.4902 -8.68457 39.1016 -18.7598c19.5078 26.6426 77.0498 33.0488 73.0713 -8.5791
c-6.25391 -65.4043 -20.5938 -132.082 -15.7969 -198.012c0.379883 -5.22363 -1.28809 -19.6416 9.01074 -16.8496c5.41113 1.46875 12.1816 14.2578 15.126 18.8271c8.5166 13.2236 15.4863 27.418 22.3857 41.5303c15.9727 32.6689 30.5391 66.0039 43.8057 99.8633z
M126.48 167.915c0.243164 1.52344 0.496094 3.03613 0.743164 4.55176c-3.85742 4.13867 -7.87891 8.12891 -12.5625 11.3477c-10.9365 7.51465 -17.0059 7.16992 -23.5684 -3.75098c-8.34863 -13.8975 -15.6904 -29.1338 -21.5762 -44.2373
c-12.3467 -31.6904 -19.4033 -68.3418 -16.7793 -102.236c0.481445 -6.19824 -0.0976562 -16.1562 4.32715 -21.3018c0.407227 -5.6582 1.98145 -5.66992 4.72656 -0.0390625c3.08203 4.20117 5.80762 8.62207 8.17676 13.2588
c8.00391 14.4727 14.1514 30.0928 20.4561 45.3447c13.1924 31.9209 25.1006 64.3232 36.0566 97.0625z" />
    <glyph glyph-name="a" unicode="&#xe2;" horiz-adv-x="279" 
d="M283.18 136.95c3.03125 7.7334 21.8242 11.1592 18.1318 1.0957c-15.6631 -42.6191 -32.7666 -85.0381 -53.2305 -125.605c-15.6592 -31.04 -33.2295 -59.0137 -71.4902 -58.3477c-49.2129 0.857422 -59.3701 49.5146 -60.0166 89.6045
c-0.211914 13.1104 0.105469 26.4004 0.791016 39.7451c-8.41895 -22.2178 -17.8555 -43.8916 -28.9092 -64.2852c-10.7256 -19.7861 -23.6553 -28.749 -45.6152 -32.6768c-23.9326 -4.28418 -46.8164 11.1162 -54.9883 33.6123
c-9.69141 26.6777 -5.79883 58.6729 0.580078 85.7539c6.66504 28.3027 17.2568 60.3535 37.5322 82.0586c18.1025 19.3789 43.4023 33.374 70.5107 31.0244c16.2656 -1.40918 28.4902 -8.68457 39.1016 -18.7598c19.5078 26.6426 77.0498 33.0488 73.0713 -8.5791
c-6.25391 -65.4043 -20.5938 -132.082 -15.7969 -198.012c0.379883 -5.22363 -1.28809 -19.6416 9.01074 -16.8496c5.41113 1.46875 12.1816 14.2578 15.126 18.8271c8.5166 13.2236 15.4863 27.418 22.3857 41.5303c15.9727 32.6689 30.5391 66.0039 43.8057 99.8633z
M126.48 167.915c0.243164 1.52344 0.496094 3.03613 0.743164 4.55176c-3.85742 4.13867 -7.87891 8.12891 -12.5625 11.3477c-10.9365 7.51465 -17.0059 7.16992 -23.5684 -3.75098c-8.34863 -13.8975 -15.6904 -29.1338 -21.5762 -44.2373
c-12.3467 -31.6904 -19.4033 -68.3418 -16.7793 -102.236c0.481445 -6.19824 -0.0976562 -16.1562 4.32715 -21.3018c0.407227 -5.6582 1.98145 -5.66992 4.72656 -0.0390625c3.08203 4.20117 5.80762 8.62207 8.17676 13.2588
c8.00391 14.4727 14.1514 30.0928 20.4561 45.3447c13.1924 31.9209 25.1006 64.3232 36.0566 97.0625z" />
    <glyph glyph-name="a" unicode="&#xe1;" horiz-adv-x="279" 
d="M283.18 136.95c3.03125 7.7334 21.8242 11.1592 18.1318 1.0957c-15.6631 -42.6191 -32.7666 -85.0381 -53.2305 -125.605c-15.6592 -31.04 -33.2295 -59.0137 -71.4902 -58.3477c-49.2129 0.857422 -59.3701 49.5146 -60.0166 89.6045
c-0.211914 13.1104 0.105469 26.4004 0.791016 39.7451c-8.41895 -22.2178 -17.8555 -43.8916 -28.9092 -64.2852c-10.7256 -19.7861 -23.6553 -28.749 -45.6152 -32.6768c-23.9326 -4.28418 -46.8164 11.1162 -54.9883 33.6123
c-9.69141 26.6777 -5.79883 58.6729 0.580078 85.7539c6.66504 28.3027 17.2568 60.3535 37.5322 82.0586c18.1025 19.3789 43.4023 33.374 70.5107 31.0244c16.2656 -1.40918 28.4902 -8.68457 39.1016 -18.7598c19.5078 26.6426 77.0498 33.0488 73.0713 -8.5791
c-6.25391 -65.4043 -20.5938 -132.082 -15.7969 -198.012c0.379883 -5.22363 -1.28809 -19.6416 9.01074 -16.8496c5.41113 1.46875 12.1816 14.2578 15.126 18.8271c8.5166 13.2236 15.4863 27.418 22.3857 41.5303c15.9727 32.6689 30.5391 66.0039 43.8057 99.8633z
M126.48 167.915c0.243164 1.52344 0.496094 3.03613 0.743164 4.55176c-3.85742 4.13867 -7.87891 8.12891 -12.5625 11.3477c-10.9365 7.51465 -17.0059 7.16992 -23.5684 -3.75098c-8.34863 -13.8975 -15.6904 -29.1338 -21.5762 -44.2373
c-12.3467 -31.6904 -19.4033 -68.3418 -16.7793 -102.236c0.481445 -6.19824 -0.0976562 -16.1562 4.32715 -21.3018c0.407227 -5.6582 1.98145 -5.66992 4.72656 -0.0390625c3.08203 4.20117 5.80762 8.62207 8.17676 13.2588
c8.00391 14.4727 14.1514 30.0928 20.4561 45.3447c13.1924 31.9209 25.1006 64.3232 36.0566 97.0625z" />
    <glyph glyph-name="b" unicode="b" horiz-adv-x="336" 
d="M345.478 134.037c9.90332 7.79199 23.8301 -2.05078 12.1807 -11.2725c-31.8193 -25.21 -65.8037 -46.8916 -101.602 -65.2412c-0.160156 -1.00684 -0.304688 -2.04102 -0.46875 -3.03125c-12.7695 -76.7012 -59.3516 -178.766 -151.305 -177.638
c-40.5166 0.49707 -65.3193 32.6729 -53.6387 71.7988c9.99707 33.4951 38.5273 56.5352 68.9805 71.1836c18.4863 8.89258 37.8418 15.6787 57.2168 22.4492c2.38086 7.17383 4.69141 14.3711 6.9707 21.5801c10.2666 32.4541 16.0146 64.8604 18.8184 98.6846
c1.52734 18.3848 6.13184 43.7041 -18.2676 49.002c-18.1299 3.93555 -33.041 -11.8018 -43.2256 -24.5205c-40.3359 -50.3799 -59.2529 -114.422 -77.6885 -175.167c-0.0625 -0.199219 -0.175781 -0.382812 -0.253906 -0.578125
c-1.03418 -6.00684 -2.49121 -11.8135 -4.53516 -17.3154c-7.00488 -18.8467 -37.1641 -34.0908 -51.3076 -13.8584c-13.0117 18.6152 -12.6709 46.4404 -14.3232 68.4199c-1.8252 24.3203 -1.89551 48.833 -2.23242 73.2129
c-0.626953 45.5205 -1.42188 91.1152 -0.00878906 136.624c2.44727 78.9141 7.70215 163.498 39.5762 236.793c14.1904 32.6299 38.7617 63.2627 69.5869 81.5332c26.2744 15.5732 64.7314 23.6123 89.5732 0.697266c22.0889 -20.3779 21.9873 -57.957 19.25 -85.2695
c-3.54004 -35.2734 -16.6426 -68.7334 -32.7754 -100.052c-26.1689 -50.8027 -62.0996 -110.929 -111.332 -144.573c-0.329102 -16.2383 -0.512695 -32.4805 -0.704102 -48.7031c-0.411133 -34.7363 -0.873047 -69.4844 -0.481445 -104.225
c0.078125 -6.97363 0.430664 -14.3154 0.810547 -21.8301c8.52051 24.5908 18.1533 48.7666 30.2764 71.8105c16.458 31.2832 40.25 73.6279 77.7314 82.082c34.0518 7.67871 52.6982 -21.6699 68.7803 -46.9424c18.2744 -28.7139 20.7373 -67.8438 17.4521 -102.675
c30.6055 16.3838 59.5938 35.5078 86.9453 57.0205zM76.3145 398.089c-5.9209 -35.7314 -8.80664 -71.7773 -10.3457 -107.912c12.0332 10.3496 24.0586 20.7383 34.9834 32.2822c22.3076 23.5693 39.9678 50.0088 53.9785 79.2793
c14.0889 29.4346 26.8193 62.9297 25.8994 96.0762c-0.575195 20.7539 -13.3525 69.8965 -44.2402 53.2432c-20.2598 -10.9248 -31.7373 -44.9609 -38.7656 -65.2207c-9.87598 -28.4756 -16.5918 -58.0508 -21.5098 -87.748zM153.521 -17.1729
c5.94043 12.3428 11.0771 25.001 15.7842 37.8291c-24.2266 -8.50879 -49.5381 -17.3271 -68.792 -34.4189c-12.123 -10.7686 -25.0684 -28.9375 -17.957 -45.8105c4.66016 -11.0498 18.5449 -19.8838 30.002 -14.2451c18.5684 9.13965 32.54 39.1465 40.9629 56.6455z" />
    <glyph glyph-name="c" unicode="c" horiz-adv-x="225" 
d="M224.918 138.321c3.66113 9.45996 26.8965 14.3223 22.5811 1.37305c-20.0918 -60.3027 -46.9229 -119.736 -87.0244 -169.541c-29.9043 -37.1367 -84.9092 -69.9785 -132.317 -43.8682c-51.1436 28.1738 -49.7305 106.825 -42.4355 156.305
c8.53613 57.8789 28.7295 125.543 80.0967 159.551c19.5635 12.9492 52.9102 26.126 74.0635 8.89648c18.7998 -15.3105 14.4609 -52.1543 10.0049 -73.041c-2.62012 -12.2793 -28.4404 -17.8672 -26.6631 -1.61328c0.724609 6.60156 0.736328 44.71 -10.2705 41.7578
c-5.61133 -1.50391 -11.5869 -18.8076 -13.748 -23.4834c-9.84766 -21.3018 -18.376 -43.3125 -24.9424 -65.8633c-13.251 -45.5049 -19.8252 -96.8125 -11.7588 -143.888c3.9043 -22.7744 18.1104 -50.1768 45.5947 -36.5889
c21.8223 10.7881 38.2725 35.5078 51.418 55.1025c28.002 41.7422 47.3301 88.2217 65.4014 134.901z" />
    <glyph glyph-name="d" unicode="d" horiz-adv-x="362" 
d="M363.38 133.712c2.5293 9.1748 23.2197 13.2324 20.3496 1.23047c-12.9609 -54.2646 -36.0205 -106.203 -68.7246 -151.524c-25.3232 -35.0889 -69.6025 -63.0469 -111.254 -36.5957c-40.2578 25.5664 -54.6328 79.1807 -62.6211 123.123
c-3.86133 21.2393 -6.08984 42.6777 -7.26855 64.1982c-12.6279 -39.6387 -27.0459 -79.2734 -46.4092 -114.993c-10.7256 -19.7861 -23.6553 -28.749 -45.6152 -32.6768c-23.9326 -4.28418 -46.8164 11.1162 -54.9883 33.6123
c-9.69141 26.6777 -5.79883 58.6729 0.580078 85.7539c6.66504 28.3027 17.2568 60.3535 37.5322 82.0586c18.1025 19.3789 43.4023 33.374 70.5107 31.0244c15.4629 -1.33887 27.2842 -7.97559 37.5312 -17.2832c0.231445 11.3906 0.587891 22.7734 1.00293 34.125
c3.82129 104.214 13.5283 225.395 84.3447 308.213c23.7061 27.7236 74.3604 65.9766 112.05 39.6162c35.9541 -25.1465 24.3008 -90.3633 15.8467 -125.993c-22.7188 -95.7637 -68.874 -186.93 -129.83 -264.043c-0.794922 -31.9131 -0.55957 -63.9121 1.73145 -95.6924
c2.62793 -36.5029 4.71094 -79.4551 18.6982 -113.655c8.07031 -19.7275 23.5254 -30.0615 42.082 -13.5527c14.5352 12.9297 25.249 30.3857 35.2266 46.9062c21.877 36.2207 37.998 75.3936 49.2246 116.148zM217.659 228.896
c-0.00390625 -0.144531 -0.00878906 -0.286133 -0.0166016 -0.43457c45.7949 64.6016 82.043 136.922 101.794 213.564c6.1123 23.7178 10.5137 48.0898 9.46777 72.6689c-0.567383 13.3604 -3.07324 51.5977 -24.9697 48.7354
c-11.7119 -1.52734 -26.6621 -28.8867 -31.7998 -38.4648c-7.58887 -14.1396 -13.0713 -29.2861 -17.5312 -44.667c-23.7998 -82.0898 -33.127 -166.313 -36.9443 -251.402zM89.4258 70.8516c13.7246 33.2051 26.0498 66.9404 37.3623 101.027
c-4.02539 4.35449 -8.21875 8.56348 -13.125 11.9346c-10.9365 7.51465 -17.0059 7.16992 -23.5684 -3.75098c-8.34863 -13.8975 -15.6904 -29.1338 -21.5762 -44.2373c-12.3467 -31.6904 -19.4033 -68.3418 -16.7793 -102.236
c0.481445 -6.19824 -0.0976562 -16.1562 4.32715 -21.3018c0.407227 -5.6582 1.98145 -5.66992 4.72656 -0.0390625c3.08203 4.20117 5.80762 8.62207 8.17676 13.2588c8.00391 14.4727 14.1514 30.0928 20.4561 45.3447z" />
    <glyph glyph-name="e" unicode="e" horiz-adv-x="218" 
d="M224.693 137.146c3.52441 8.42676 21.4746 8.58008 16.9561 -2.79883c-25.3662 -63.9404 -53.8418 -140.822 -116.396 -177.725c-21.9004 -12.9219 -55.4619 -24.6533 -80.9141 -18.5176c-29.2979 7.06836 -45.7793 33.292 -53.8223 60.4238
c-19.1123 64.4727 -4.7998 143.638 30.2617 200.471c18.4785 29.9512 48.3555 61.2969 85.3672 64.7861c23.6279 2.22852 48.9902 -13.959 55.1064 -37.1602c12.7031 -48.1914 -42.2461 -80.8408 -86.666 -83.167c-11.6143 -32.8613 -17.167 -67.5898 -19.1602 -103.125
c-1.29199 -23.04 -5.86914 -54.127 13.8818 -71.1133c23.3848 -20.1074 55.29 4.54199 72.6992 21.998c39.6787 39.7842 61.3877 94.9961 82.6855 145.928zM97.5879 192.418c-3.82617 -6.32031 -7.31152 -12.7539 -10.5303 -19.2734
c23.7803 0.623047 50.7715 2.78027 49.7812 31.6943c-0.411133 12.0371 -9.67969 25.0332 -20.0762 14.3867c-7.80762 -7.99609 -13.415 -17.2959 -19.1748 -26.8076z" />
    <glyph glyph-name="e" unicode="&#xeb;" horiz-adv-x="218" 
d="M224.693 137.146c3.52441 8.42676 21.4746 8.58008 16.9561 -2.79883c-25.3662 -63.9404 -53.8418 -140.822 -116.396 -177.725c-21.9004 -12.9219 -55.4619 -24.6533 -80.9141 -18.5176c-29.2979 7.06836 -45.7793 33.292 -53.8223 60.4238
c-19.1123 64.4727 -4.7998 143.638 30.2617 200.471c18.4785 29.9512 48.3555 61.2969 85.3672 64.7861c23.6279 2.22852 48.9902 -13.959 55.1064 -37.1602c12.7031 -48.1914 -42.2461 -80.8408 -86.666 -83.167c-11.6143 -32.8613 -17.167 -67.5898 -19.1602 -103.125
c-1.29199 -23.04 -5.86914 -54.127 13.8818 -71.1133c23.3848 -20.1074 55.29 4.54199 72.6992 21.998c39.6787 39.7842 61.3877 94.9961 82.6855 145.928zM97.5879 192.418c-3.82617 -6.32031 -7.31152 -12.7539 -10.5303 -19.2734
c23.7803 0.623047 50.7715 2.78027 49.7812 31.6943c-0.411133 12.0371 -9.67969 25.0332 -20.0762 14.3867c-7.80762 -7.99609 -13.415 -17.2959 -19.1748 -26.8076z" />
    <glyph glyph-name="e" unicode="&#xea;" horiz-adv-x="218" 
d="M224.693 137.146c3.52441 8.42676 21.4746 8.58008 16.9561 -2.79883c-25.3662 -63.9404 -53.8418 -140.822 -116.396 -177.725c-21.9004 -12.9219 -55.4619 -24.6533 -80.9141 -18.5176c-29.2979 7.06836 -45.7793 33.292 -53.8223 60.4238
c-19.1123 64.4727 -4.7998 143.638 30.2617 200.471c18.4785 29.9512 48.3555 61.2969 85.3672 64.7861c23.6279 2.22852 48.9902 -13.959 55.1064 -37.1602c12.7031 -48.1914 -42.2461 -80.8408 -86.666 -83.167c-11.6143 -32.8613 -17.167 -67.5898 -19.1602 -103.125
c-1.29199 -23.04 -5.86914 -54.127 13.8818 -71.1133c23.3848 -20.1074 55.29 4.54199 72.6992 21.998c39.6787 39.7842 61.3877 94.9961 82.6855 145.928zM97.5879 192.418c-3.82617 -6.32031 -7.31152 -12.7539 -10.5303 -19.2734
c23.7803 0.623047 50.7715 2.78027 49.7812 31.6943c-0.411133 12.0371 -9.67969 25.0332 -20.0762 14.3867c-7.80762 -7.99609 -13.415 -17.2959 -19.1748 -26.8076z" />
    <glyph glyph-name="e" unicode="&#xe9;" horiz-adv-x="218" 
d="M224.693 137.146c3.52441 8.42676 21.4746 8.58008 16.9561 -2.79883c-25.3662 -63.9404 -53.8418 -140.822 -116.396 -177.725c-21.9004 -12.9219 -55.4619 -24.6533 -80.9141 -18.5176c-29.2979 7.06836 -45.7793 33.292 -53.8223 60.4238
c-19.1123 64.4727 -4.7998 143.638 30.2617 200.471c18.4785 29.9512 48.3555 61.2969 85.3672 64.7861c23.6279 2.22852 48.9902 -13.959 55.1064 -37.1602c12.7031 -48.1914 -42.2461 -80.8408 -86.666 -83.167c-11.6143 -32.8613 -17.167 -67.5898 -19.1602 -103.125
c-1.29199 -23.04 -5.86914 -54.127 13.8818 -71.1133c23.3848 -20.1074 55.29 4.54199 72.6992 21.998c39.6787 39.7842 61.3877 94.9961 82.6855 145.928zM97.5879 192.418c-3.82617 -6.32031 -7.31152 -12.7539 -10.5303 -19.2734
c23.7803 0.623047 50.7715 2.78027 49.7812 31.6943c-0.411133 12.0371 -9.67969 25.0332 -20.0762 14.3867c-7.80762 -7.99609 -13.415 -17.2959 -19.1748 -26.8076z" />
    <glyph glyph-name="f" unicode="f" horiz-adv-x="208" 
d="M232.321 151.117c-17.9814 -33.3389 -45.6797 -60.2344 -73.2227 -85.7412c-19.4883 -18.0439 -39.9014 -34.8975 -61.1406 -50.7012c39.3652 0.728516 77.7861 -18.5684 92.0869 -59.2686c14.79 -42.0947 -3.16016 -97.6553 -50.7715 -108.009
c-27.4766 -5.97168 -57.4717 0.40332 -81.123 15.001c-25.002 15.4316 -40.3477 44.126 -49.9219 71.0664c-23.1582 65.1582 -21.9951 136.479 -17.8877 204.633c4.35449 72.2646 11.8418 144.831 22.8525 216.384c6.16309 40.0537 90.0928 56.4922 84.9277 5.13672
c-11.3789 -113.142 -29.3564 -226.733 -24.0391 -340.592c22.6641 15.957 44.541 33.0137 65.4199 51.2646c28.0488 24.5166 57.0254 50.9365 75.5156 83.6797c4.47949 7.93359 23.2441 8.16113 17.3037 -2.85352zM170.043 -96.7051
c12.3623 56.8838 -41.6787 102.165 -94.3887 90.6094c0.798828 -10.2158 1.77734 -20.4316 3.00684 -30.6475c3.26562 -27.0967 11.168 -53.2148 26.5801 -76.0205c8.07812 -11.9512 20.5225 -23.8984 35.751 -20.2178c16.0859 3.88477 25.7422 21.0557 29.0508 36.2764z
" />
    <glyph glyph-name="g" unicode="g" horiz-adv-x="282" 
d="M296.714 152.723c12.542 4.69141 15.248 -11.5771 4.35449 -16.0371c-30.335 -12.4092 -59.1787 -30.5312 -86.5537 -50.7832c-1.79688 -58.0859 -6.44531 -116.23 -14.5586 -172.841c-7.0127 -48.9277 -19.1514 -98.5244 -45.54 -140.881
c-20.6709 -33.1777 -51.374 -68.6738 -90.8682 -78.7139c-36.2988 -9.22949 -70.7969 10.2666 -84.4824 44.627c-16.2695 40.8486 -1.46777 88.0645 14.5127 126.627c29.1914 70.4404 79.125 127.074 136.342 176.057c0.869141 0.744141 1.75 1.49609 2.62305 2.24023
c0.167969 28.1934 0.105469 56.3867 -0.03125 84.5801c-12.127 -37.4463 -26.0039 -74.6934 -44.3018 -108.447c-10.7256 -19.7861 -23.6553 -28.749 -45.6152 -32.6768c-23.9326 -4.28418 -46.8164 11.1162 -54.9883 33.6123
c-9.69141 26.6777 -5.79883 58.6729 0.580078 85.7539c6.66504 28.3027 17.2568 60.3535 37.5322 82.0586c18.1025 19.3789 43.4023 33.374 70.5107 31.0244c15.3887 -1.33105 27.1709 -7.91309 37.3828 -17.1504c10.6748 33.5107 78.918 53.4258 80.4297 12.9092
c1.30762 -35.0693 1.67969 -70.6084 1.02148 -106.25c25.8477 17.9102 53.0029 33.5693 81.6504 44.291zM90.1816 70.8535c13.7207 33.2051 26.0498 66.9404 37.3623 101.027c-4.02539 4.35449 -8.21875 8.56348 -13.125 11.9346
c-10.9365 7.51465 -17.0059 7.16992 -23.5684 -3.75098c-8.34863 -13.8975 -15.6904 -29.1338 -21.5762 -44.2373c-12.3467 -31.6904 -19.4033 -68.3418 -16.7793 -102.236c0.481445 -6.19824 -0.0976562 -16.1562 4.32715 -21.3018
c0.407227 -5.6582 1.98145 -5.66992 4.72656 -0.0390625c3.08203 4.20117 5.80762 8.62207 8.17676 13.2588c8.00391 14.4727 14.1514 30.0928 20.4561 45.3447zM131.53 -27.5557c0.379883 15.2754 0.625 30.5508 0.796875 45.8262
c-45.3682 -40.4932 -84.2676 -86.5186 -110.417 -142.22c-17.2959 -36.8398 -35.79 -86.6172 -20.0215 -126.82c18.4277 -46.9893 74.9121 -49.8555 97.5723 -4.49121c17.2256 34.4785 23.8584 77.6182 27.9033 115.593c3.97461 37.3291 3.23828 74.6621 4.16602 112.112z
" />
    <glyph glyph-name="h" unicode="h" horiz-adv-x="298" 
d="M303.285 139.543c1.92285 8.3291 20.2275 11.9092 18.1133 1.10547c-5.05957 -26.0518 -15.7383 -51.0186 -25.2695 -75.6953c-7.67871 -19.876 -15.7178 -39.7949 -26.0479 -58.4648c-16.125 -29.1445 -46.0801 -70.7607 -84.2783 -66.9668
c-48.2578 4.79297 -54.1045 61.5557 -55.1465 99.5146c-1.40527 51.2021 3.0625 104.621 15.0996 154.559c-18.1143 -16.4971 -31.2441 -40.1602 -41.0137 -60.7217c-16.6143 -34.9717 -28.585 -71.9834 -39.9912 -108.96
c-0.845703 -10.5215 -2.64648 -20.6631 -6.09277 -29.9355c-7.00488 -18.8467 -37.1641 -34.0908 -51.3076 -13.8584c-13.0117 18.6152 -12.6709 46.4404 -14.3232 68.4199c-1.8252 24.3203 -1.89551 48.833 -2.23242 73.2129
c-0.626953 45.5205 -1.42188 91.1152 -0.0078125 136.624c2.44727 78.9141 7.70215 163.498 39.5762 236.793c14.1904 32.6299 38.7617 63.2627 69.5869 81.5332c26.2744 15.5732 64.7314 23.6123 89.5732 0.697266c22.0928 -20.3779 21.9912 -57.957 19.2539 -85.2695
c-3.54004 -35.2734 -16.6426 -68.7334 -32.7754 -100.052c-26.1729 -50.8027 -62.1035 -110.929 -111.336 -144.573c-0.329102 -16.2383 -0.512695 -32.4805 -0.704102 -48.7031c-0.411133 -34.7363 -0.873047 -69.4844 -0.481445 -104.225
c0.0546875 -5.14551 0.270508 -10.4941 0.525391 -15.957c9.67188 28.2871 21.0078 55.9561 35.9268 81.9053c19.25 33.4834 51.2256 64.543 91.3154 69.1797c1.38184 0.160156 2.49805 0.0898438 3.46094 -0.09375c16.8574 0.900391 30.7471 -6.97852 27.1289 -27.9551
c-6.68457 -38.7656 -13.2822 -77.0146 -16.2031 -116.298c-1.42578 -19.1797 -1.83301 -38.3281 -2.80371 -57.5195c-0.794922 -15.6943 -2.65918 -31.4941 0.668945 -47.0205c0.650391 -3.01953 2.68262 -16.1924 6.94727 -16.7871
c6.05371 -0.845703 18.7646 16.5127 22.5156 21.0977c11.8643 14.5156 20.7295 31.2637 28.6865 48.1562c15.874 33.707 33.2559 69.8965 41.6357 106.258zM76.3193 398.089c-5.91699 -35.7314 -8.80762 -71.7773 -10.3467 -107.912
c12.0332 10.3496 24.0586 20.7383 34.9834 32.2822c22.3076 23.5693 39.9678 50.0088 53.9785 79.2793c14.0889 29.4346 26.8193 62.9297 25.8994 96.0762c-0.575195 20.7539 -13.3525 69.8965 -44.2402 53.2432c-20.2598 -10.9248 -31.7363 -44.9609 -38.7646 -65.2207
c-9.87598 -28.4756 -16.5918 -58.0508 -21.5098 -87.748z" />
    <glyph glyph-name="i" unicode="i" horiz-adv-x="148" 
d="M151.678 136.95c3.03125 7.7334 21.8271 11.1592 18.1309 1.0957c-15.6592 -42.6191 -32.7666 -85.0381 -53.2305 -125.605c-15.6592 -31.04 -33.2295 -59.0137 -71.4902 -58.3477c-49.2129 0.857422 -59.3701 49.5146 -60.0166 89.6045
c-0.763672 47.2158 4.78516 96.6641 13.083 143.116c6.60547 36.9844 83.5732 52.6943 78.9922 4.77734c-6.25391 -65.4043 -20.5938 -132.082 -15.7969 -198.012c0.379883 -5.22363 -1.28809 -19.6416 9.01074 -16.8496c5.41113 1.46875 12.1816 14.2578 15.126 18.8271
c8.5166 13.2236 15.4863 27.418 22.3857 41.5303c15.9727 32.6689 30.5391 66.0039 43.8057 99.8633zM50.3027 267.731c-3.75488 -5.96777 -15.4805 -8.95605 -19.9795 -2.75781c-12.252 16.8809 -38.8125 72.7197 -10.8428 87.1104
c15.4746 7.96484 23.2275 -6.97363 27.4766 -25.1543c3.19141 4.80078 6.8252 9.30762 10.9248 13.4072c8.41895 8.41504 27.7041 21.9053 40.3877 14.3711c14.3633 -8.52441 -1.38184 -29.6777 -6.93848 -38.4727c-11.4453 -18.126 -25.3262 -34.0117 -41.0283 -48.5039z
" />
    <glyph glyph-name="i" unicode="&#xef;" horiz-adv-x="148" 
d="M151.678 136.95c3.03125 7.7334 21.8271 11.1592 18.1309 1.0957c-15.6592 -42.6191 -32.7666 -85.0381 -53.2305 -125.605c-15.6592 -31.04 -33.2295 -59.0137 -71.4902 -58.3477c-49.2129 0.857422 -59.3701 49.5146 -60.0166 89.6045
c-0.763672 47.2158 4.78516 96.6641 13.083 143.116c6.60547 36.9844 83.5732 52.6943 78.9922 4.77734c-6.25391 -65.4043 -20.5938 -132.082 -15.7969 -198.012c0.379883 -5.22363 -1.28809 -19.6416 9.01074 -16.8496c5.41113 1.46875 12.1816 14.2578 15.126 18.8271
c8.5166 13.2236 15.4863 27.418 22.3857 41.5303c15.9727 32.6689 30.5391 66.0039 43.8057 99.8633zM50.3027 267.731c-3.75488 -5.96777 -15.4805 -8.95605 -19.9795 -2.75781c-12.252 16.8809 -38.8125 72.7197 -10.8428 87.1104
c15.4746 7.96484 23.2275 -6.97363 27.4766 -25.1543c3.19141 4.80078 6.8252 9.30762 10.9248 13.4072c8.41895 8.41504 27.7041 21.9053 40.3877 14.3711c14.3633 -8.52441 -1.38184 -29.6777 -6.93848 -38.4727c-11.4453 -18.126 -25.3262 -34.0117 -41.0283 -48.5039z
" />
    <glyph glyph-name="i" unicode="&#xee;" horiz-adv-x="148" 
d="M151.678 136.95c3.03125 7.7334 21.8271 11.1592 18.1309 1.0957c-15.6592 -42.6191 -32.7666 -85.0381 -53.2305 -125.605c-15.6592 -31.04 -33.2295 -59.0137 -71.4902 -58.3477c-49.2129 0.857422 -59.3701 49.5146 -60.0166 89.6045
c-0.763672 47.2158 4.78516 96.6641 13.083 143.116c6.60547 36.9844 83.5732 52.6943 78.9922 4.77734c-6.25391 -65.4043 -20.5938 -132.082 -15.7969 -198.012c0.379883 -5.22363 -1.28809 -19.6416 9.01074 -16.8496c5.41113 1.46875 12.1816 14.2578 15.126 18.8271
c8.5166 13.2236 15.4863 27.418 22.3857 41.5303c15.9727 32.6689 30.5391 66.0039 43.8057 99.8633zM50.3027 267.731c-3.75488 -5.96777 -15.4805 -8.95605 -19.9795 -2.75781c-12.252 16.8809 -38.8125 72.7197 -10.8428 87.1104
c15.4746 7.96484 23.2275 -6.97363 27.4766 -25.1543c3.19141 4.80078 6.8252 9.30762 10.9248 13.4072c8.41895 8.41504 27.7041 21.9053 40.3877 14.3711c14.3633 -8.52441 -1.38184 -29.6777 -6.93848 -38.4727c-11.4453 -18.126 -25.3262 -34.0117 -41.0283 -48.5039z
" />
    <glyph glyph-name="i" unicode="&#xed;" horiz-adv-x="148" 
d="M151.678 136.95c3.03125 7.7334 21.8271 11.1592 18.1309 1.0957c-15.6592 -42.6191 -32.7666 -85.0381 -53.2305 -125.605c-15.6592 -31.04 -33.2295 -59.0137 -71.4902 -58.3477c-49.2129 0.857422 -59.3701 49.5146 -60.0166 89.6045
c-0.763672 47.2158 4.78516 96.6641 13.083 143.116c6.60547 36.9844 83.5732 52.6943 78.9922 4.77734c-6.25391 -65.4043 -20.5938 -132.082 -15.7969 -198.012c0.379883 -5.22363 -1.28809 -19.6416 9.01074 -16.8496c5.41113 1.46875 12.1816 14.2578 15.126 18.8271
c8.5166 13.2236 15.4863 27.418 22.3857 41.5303c15.9727 32.6689 30.5391 66.0039 43.8057 99.8633zM50.3027 267.731c-3.75488 -5.96777 -15.4805 -8.95605 -19.9795 -2.75781c-12.252 16.8809 -38.8125 72.7197 -10.8428 87.1104
c15.4746 7.96484 23.2275 -6.97363 27.4766 -25.1543c3.19141 4.80078 6.8252 9.30762 10.9248 13.4072c8.41895 8.41504 27.7041 21.9053 40.3877 14.3711c14.3633 -8.52441 -1.38184 -29.6777 -6.93848 -38.4727c-11.4453 -18.126 -25.3262 -34.0117 -41.0283 -48.5039z
" />
    <glyph glyph-name="j" unicode="j" horiz-adv-x="148" 
d="M162.714 152.723c12.542 4.69141 15.248 -11.5801 4.35059 -16.0361c-30.335 -12.4092 -59.1787 -30.5312 -86.5537 -50.7832c-1.79688 -58.0859 -6.44531 -116.23 -14.5586 -172.841c-7.0127 -48.9277 -19.1514 -98.5244 -45.54 -140.881
c-20.6709 -33.1777 -51.374 -68.6738 -90.8682 -78.7139c-36.2949 -9.22949 -70.793 10.2666 -84.4785 44.627c-16.2695 40.8486 -1.46777 88.0645 14.5127 126.627c29.1914 70.4404 79.125 127.074 136.342 176.057c0.869141 0.744141 1.75 1.49609 2.62305 2.24023
c0.297852 49.9453 -0.144531 99.8945 -0.379883 149.84c-0.179688 38.5586 80.2383 65.8242 81.8789 21.8232c1.30762 -35.0693 1.67969 -70.6084 1.02148 -106.25c25.8477 17.9102 53.0029 33.5693 81.6504 44.291zM-2.46777 -27.5605
c0.379883 15.2754 0.625 30.5498 0.800781 45.8252c-45.3682 -40.4932 -84.2676 -86.5186 -110.417 -142.22c-17.2959 -36.8389 -35.79 -86.6162 -20.0215 -126.819c18.4277 -46.9893 74.9121 -49.8555 97.5723 -4.49121c17.2217 34.4785 23.8545 77.6182 27.8994 115.593
c3.97461 37.3291 3.23828 74.6621 4.16602 112.112zM45.04 266.93c-3.5791 -5.79102 -14.4961 -9.8584 -18.7607 -4.88574c-13.541 15.7607 -45.8496 69.2305 -19.5869 86.3379c15.0596 9.80859 24.2539 -4.28027 30.1514 -22.1318
c1.93848 3.47754 4.04102 6.87988 6.47656 10.1143c8.17969 10.8701 24.25 25.5459 39.4238 22.0762c32.998 -7.54199 -27.1279 -80.2305 -37.1289 -90.999c-0.175781 -0.191406 -0.387695 -0.335938 -0.575195 -0.511719z" />
    <glyph glyph-name="k" unicode="k" horiz-adv-x="319" 
d="M326.244 135.364c3.72363 8.30566 21.666 8.52734 16.959 -2.80078c-27.5625 -66.4229 -61.2148 -141.543 -139.953 -154.535c-67.3076 -11.1055 -108.674 53.1211 -121.796 114.191c-5.9209 -18.709 -11.1562 -37.626 -16.1289 -56.4297
c-0.301758 -14.7314 -1.93066 -29.0947 -6.66113 -41.8213c-7.00488 -18.8467 -37.1641 -34.0908 -51.3076 -13.8584c-13.0156 18.6152 -12.6709 46.4404 -14.3232 68.4199c-1.8291 24.3203 -1.89941 48.833 -2.23633 73.2129
c-0.626953 45.5205 -1.42188 91.1152 -0.0078125 136.624c2.44727 78.9141 7.70215 163.498 39.5762 236.793c14.1904 32.6299 38.7617 63.2627 69.5869 81.5332c26.2744 15.5732 64.7314 23.6123 89.5732 0.697266c22.0928 -20.3779 21.9912 -57.957 19.2539 -85.2695
c-3.54004 -35.2734 -16.6426 -68.7334 -32.7754 -100.052c-26.1689 -50.8027 -62.0996 -110.929 -111.332 -144.573c-0.325195 -16.2383 -0.512695 -32.4805 -0.704102 -48.7031c-0.375977 -31.9717 -0.767578 -63.9512 -0.52832 -95.9268
c7.39258 21.9395 15.7529 43.5312 25.8438 64.4258c19.8291 41.0527 48.79 92.5684 95.8184 106.117c17.1748 4.94531 43.25 6.36719 54.5859 -10.5605c11.9199 -17.8008 -0.43457 -40.0068 -10.9365 -55.0508c-16.752 -23.9961 -45.2119 -44.8906 -75.7236 -56.4229
c8.47363 -48.5283 17.3193 -103.791 59.0732 -135.869c48.4727 -37.2422 99.5889 87.3887 114.144 119.858zM76.3174 398.086c-5.91699 -35.7314 -8.80762 -71.7773 -10.3467 -107.912c12.0332 10.3496 24.0586 20.7383 34.9834 32.2822
c22.3076 23.5693 39.9678 50.0088 53.9785 79.2793c14.0889 29.4346 26.8193 62.9297 25.8994 96.0762c-0.575195 20.7539 -13.3525 69.8965 -44.2402 53.2432c-20.2598 -10.9248 -31.7363 -44.9609 -38.7646 -65.2207
c-9.87598 -28.4756 -16.5918 -58.0508 -21.5098 -87.748zM118.791 182.362c28.4521 10.4707 60.4492 13.209 85.6865 30.9121c8.88477 6.2334 18.2432 17.1113 17.2959 28.9053c-1.30762 16.2461 -19.5781 17.7148 -32.2061 14.708
c-19.6963 -4.69141 -34.3057 -20.6641 -46.0605 -36.1748c-9.2373 -12.1895 -17.3818 -25.0449 -24.7158 -38.3506z" />
    <glyph glyph-name="l" unicode="l" horiz-adv-x="216" 
d="M217.641 133.712c2.52539 9.1748 23.2178 13.2324 20.3438 1.23047c-12.9609 -54.2646 -36.0205 -106.203 -68.7246 -151.524c-25.3232 -35.0889 -69.6025 -63.0469 -111.254 -36.5957c-40.2578 25.5654 -54.6328 79.1797 -62.6211 123.122
c-9.92676 54.6133 -9.15137 110.542 -7.12305 165.824c3.82227 104.214 13.5293 225.395 84.3457 308.213c23.7061 27.7236 74.3604 65.9766 112.05 39.6162c35.9541 -25.1465 24.3008 -90.3633 15.8467 -125.993c-22.7188 -95.7676 -68.874 -186.93 -129.83 -264.047
c-0.794922 -31.9131 -0.55957 -63.9121 1.73145 -95.6924c2.62793 -36.5029 4.71094 -79.4551 18.6982 -113.655c8.07031 -19.7275 23.5254 -30.0615 42.082 -13.5527c14.5352 12.9297 25.249 30.3857 35.2266 46.9062c21.8809 36.2207 38.0059 75.3936 49.2285 116.148z
M71.918 228.896c-0.0078125 -0.144531 -0.0126953 -0.286133 -0.0205078 -0.43457c45.7949 64.6016 82.043 136.922 101.794 213.564c6.1123 23.7178 10.5137 48.0898 9.46777 72.6689c-0.567383 13.3604 -3.07324 51.5977 -24.9697 48.7354
c-11.7119 -1.52734 -26.6621 -28.8867 -31.7998 -38.4648c-7.58496 -14.1396 -13.0674 -29.2861 -17.5273 -44.667c-23.7998 -82.0898 -33.127 -166.313 -36.9443 -251.402z" />
    <glyph glyph-name="m" unicode="m" horiz-adv-x="441" 
d="M446.614 139.543c1.91895 8.3291 20.2285 11.9092 18.1143 1.10156c-5.05957 -26.0518 -15.7383 -51.0186 -25.2695 -75.6953c-7.67871 -19.876 -15.7178 -39.7949 -26.0479 -58.4648c-16.125 -29.1445 -46.0801 -70.7607 -84.2783 -66.9668
c-48.2578 4.79297 -54.1045 61.5557 -55.1465 99.5146c-1.40137 51.1396 3.05469 104.487 15.0566 154.37c-15.4941 -14.1396 -27.3584 -33.3584 -36.208 -50.7871c-17.3467 -34.1689 -29.6221 -70.6797 -41.1777 -107.147
c-4.22461 -35.2539 -77.042 -52.5186 -75.2529 -16.0664c1.85254 37.7676 4.79688 75.6172 9.84473 113.103c2.4082 17.8711 5.12598 35.8291 8.25488 53.5752c2.44727 13.8613 4.61621 60.4746 -21.627 31.9365c-23.0127 -25.0254 -33.5889 -62.3701 -43.3467 -94.0488
c-10.5527 -34.2627 -21.251 -68.96 -26.1572 -104.554c-0.262695 -1.91895 -1.2334 -3.61816 -2.61133 -5.05566c-1.12012 -5.37207 -2.6123 -10.5918 -4.66406 -15.5527c-4.91406 -11.876 -26.8223 -21.4229 -38.542 -14.6172
c-30.5234 17.7188 -29.5527 62.7422 -30.293 94.3467c-0.869141 37.0586 0.239258 74.2383 6.16406 110.862c2.85449 17.6406 23.7139 29.4385 39.541 32.1289c12.1738 2.07129 36.4199 -2.28711 35.2686 -19.8301c-1.96582 -29.9473 -4.77734 -59.8125 -5.72461 -89.8076
c4.79688 15.3457 9.99707 30.4922 15.4443 45.2393c11.4531 30.9971 28.4121 76.2744 62.9336 88.4287c34.9521 12.3076 49.7109 -34.2939 56.2383 -59.9189c7.98828 -31.3457 11.1992 -64.5273 12.9062 -97.4629c21.8535 64.2227 56.3867 133.652 124.548 141.531
c1.38184 0.160156 2.49805 0.0898438 3.46094 -0.09375c16.8574 0.900391 30.7461 -6.97852 27.1279 -27.9551c-6.68457 -38.7656 -13.2822 -77.0146 -16.2031 -116.298c-1.42578 -19.1797 -1.83301 -38.3281 -2.80371 -57.5195
c-0.794922 -15.6943 -2.65918 -31.4941 0.668945 -47.0205c0.646484 -3.01953 2.67871 -16.1924 6.94336 -16.7871c6.05371 -0.845703 18.7686 16.5127 22.5156 21.0977c11.8643 14.5156 20.7295 31.2637 28.6865 48.1562c15.874 33.707 33.2559 69.8965 41.6357 106.258z
" />
    <glyph glyph-name="n" unicode="n" horiz-adv-x="298" 
d="M302.378 139.543c1.92285 8.3291 20.2305 11.9102 18.1201 1.09863c-5.05957 -26.0518 -15.7383 -51.0186 -25.2695 -75.6953c-7.6748 -19.876 -15.7139 -39.7949 -26.0439 -58.4648c-16.125 -29.1445 -46.0801 -70.7607 -84.2783 -66.9668
c-48.2578 4.79297 -54.1045 61.5557 -55.1465 99.5146c-1.40527 51.2021 3.0625 104.621 15.0996 154.559c-18.1143 -16.4971 -31.2441 -40.1602 -41.0137 -60.7217c-18.3135 -38.5469 -30.9844 -79.5762 -43.4795 -120.304
c-1.07715 -4.73828 -2.44727 -9.35059 -4.26855 -13.7559c-4.91406 -11.876 -26.8223 -21.4229 -38.542 -14.6172c-30.5234 17.7188 -29.5527 62.7422 -30.293 94.3457c-0.869141 37.0586 0.239258 74.2383 6.16406 110.862c2.85449 17.6406 23.7139 29.4385 39.541 32.1289
c12.1738 2.07129 36.4199 -2.28711 35.2686 -19.8301c-2.25586 -34.3955 -5.63477 -68.6855 -6.01855 -103.184c-0.0742188 -6.78613 0.165039 -13.8818 0.466797 -21.1143c9.76172 28.7139 21.2148 56.8018 36.3496 83.127c19.25 33.4834 51.2256 64.543 91.3154 69.1797
c1.38574 0.160156 2.49805 0.0898438 3.46094 -0.09375c16.8574 0.900391 30.7461 -6.97852 27.1279 -27.9551c-6.68457 -38.7656 -13.2783 -77.0146 -16.2031 -116.298c-1.42969 -19.1797 -1.83301 -38.3281 -2.80762 -57.5195
c-0.794922 -15.6943 -2.65918 -31.4941 0.668945 -47.0205c0.646484 -3.01953 2.67871 -16.1924 6.94336 -16.7871c6.05371 -0.845703 18.7646 16.5127 22.5156 21.0977c11.8643 14.5156 20.7295 31.2637 28.6865 48.1562c15.874 33.707 33.2559 69.8965 41.6357 106.258z
" />
    <glyph glyph-name="o" unicode="o" horiz-adv-x="219" 
d="M231.019 153.299c8.94727 5.7207 21.4287 -1.99121 10.6875 -9.89355c-17.124 -12.5967 -40.8145 -25.3857 -66.3887 -34.1963c-0.195312 -2.42773 -0.367188 -4.87109 -0.618164 -7.2793c-3.60254 -34.415 -15.5264 -64.5703 -30.0967 -95.5674
c-13.1807 -28.041 -35.375 -52.3574 -67.4375 -56.8525c-33.8789 -4.75 -69.9746 12.7812 -84.9209 43.9824c-17.2764 36.0684 -9.96191 74.9199 -8.2041 113.169c1.07324 23.3809 25.958 40.0977 47.749 42.5879c-14.7002 47.0166 26.5088 107.064 77.3311 106.881
c30.8057 -0.109375 48.3838 -29.2695 57.1279 -55.4072c7.90234 -23.6357 10.6318 -49.1387 10.0371 -74.2617c19.418 6.63672 38.0684 16.1836 54.7334 26.8379zM108.031 -4.11621c29.4775 25.3389 42.8428 66.377 46.457 107.194
c-32.501 -7.90234 -65.9648 -7.94922 -91.5664 7.72168c-3.93164 -27.8408 -10.8584 -58.0586 -3.17969 -85.332c6.32422 -22.457 24.4268 -50.0986 48.2891 -29.584zM155.515 120.621c0.356445 15.6865 -0.614258 30.999 -2.58008 44.998
c-3.75488 26.7637 -19.1865 82.4688 -57.2637 71.6104c-31.8115 -9.06934 -51.8252 -50.7959 -40.5986 -81.2256c11.7041 -31.7178 49.0918 -40.9473 79.3643 -38.5742c7.03223 0.551758 14.0771 1.66016 21.0781 3.19141z" />
    <glyph glyph-name="o" unicode="&#xf6;" horiz-adv-x="219" 
d="M231.019 153.299c8.94727 5.7207 21.4287 -1.99121 10.6875 -9.89355c-17.124 -12.5967 -40.8145 -25.3857 -66.3887 -34.1963c-0.195312 -2.42773 -0.367188 -4.87109 -0.618164 -7.2793c-3.60254 -34.415 -15.5264 -64.5703 -30.0967 -95.5674
c-13.1807 -28.041 -35.375 -52.3574 -67.4375 -56.8525c-33.8789 -4.75 -69.9746 12.7812 -84.9209 43.9824c-17.2764 36.0684 -9.96191 74.9199 -8.2041 113.169c1.07324 23.3809 25.958 40.0977 47.749 42.5879c-14.7002 47.0166 26.5088 107.064 77.3311 106.881
c30.8057 -0.109375 48.3838 -29.2695 57.1279 -55.4072c7.90234 -23.6357 10.6318 -49.1387 10.0371 -74.2617c19.418 6.63672 38.0684 16.1836 54.7334 26.8379zM108.031 -4.11621c29.4775 25.3389 42.8428 66.377 46.457 107.194
c-32.501 -7.90234 -65.9648 -7.94922 -91.5664 7.72168c-3.93164 -27.8408 -10.8584 -58.0586 -3.17969 -85.332c6.32422 -22.457 24.4268 -50.0986 48.2891 -29.584zM155.515 120.621c0.356445 15.6865 -0.614258 30.999 -2.58008 44.998
c-3.75488 26.7637 -19.1865 82.4688 -57.2637 71.6104c-31.8115 -9.06934 -51.8252 -50.7959 -40.5986 -81.2256c11.7041 -31.7178 49.0918 -40.9473 79.3643 -38.5742c7.03223 0.551758 14.0771 1.66016 21.0781 3.19141z" />
    <glyph glyph-name="o" unicode="&#xf5;" horiz-adv-x="219" 
d="M231.019 153.299c8.94727 5.7207 21.4287 -1.99121 10.6875 -9.89355c-17.124 -12.5967 -40.8145 -25.3857 -66.3887 -34.1963c-0.195312 -2.42773 -0.367188 -4.87109 -0.618164 -7.2793c-3.60254 -34.415 -15.5264 -64.5703 -30.0967 -95.5674
c-13.1807 -28.041 -35.375 -52.3574 -67.4375 -56.8525c-33.8789 -4.75 -69.9746 12.7812 -84.9209 43.9824c-17.2764 36.0684 -9.96191 74.9199 -8.2041 113.169c1.07324 23.3809 25.958 40.0977 47.749 42.5879c-14.7002 47.0166 26.5088 107.064 77.3311 106.881
c30.8057 -0.109375 48.3838 -29.2695 57.1279 -55.4072c7.90234 -23.6357 10.6318 -49.1387 10.0371 -74.2617c19.418 6.63672 38.0684 16.1836 54.7334 26.8379zM108.031 -4.11621c29.4775 25.3389 42.8428 66.377 46.457 107.194
c-32.501 -7.90234 -65.9648 -7.94922 -91.5664 7.72168c-3.93164 -27.8408 -10.8584 -58.0586 -3.17969 -85.332c6.32422 -22.457 24.4268 -50.0986 48.2891 -29.584zM155.515 120.621c0.356445 15.6865 -0.614258 30.999 -2.58008 44.998
c-3.75488 26.7637 -19.1865 82.4688 -57.2637 71.6104c-31.8115 -9.06934 -51.8252 -50.7959 -40.5986 -81.2256c11.7041 -31.7178 49.0918 -40.9473 79.3643 -38.5742c7.03223 0.551758 14.0771 1.66016 21.0781 3.19141z" />
    <glyph glyph-name="o" unicode="&#xf4;" horiz-adv-x="219" 
d="M231.019 153.299c8.94727 5.7207 21.4287 -1.99121 10.6875 -9.89355c-17.124 -12.5967 -40.8145 -25.3857 -66.3887 -34.1963c-0.195312 -2.42773 -0.367188 -4.87109 -0.618164 -7.2793c-3.60254 -34.415 -15.5264 -64.5703 -30.0967 -95.5674
c-13.1807 -28.041 -35.375 -52.3574 -67.4375 -56.8525c-33.8789 -4.75 -69.9746 12.7812 -84.9209 43.9824c-17.2764 36.0684 -9.96191 74.9199 -8.2041 113.169c1.07324 23.3809 25.958 40.0977 47.749 42.5879c-14.7002 47.0166 26.5088 107.064 77.3311 106.881
c30.8057 -0.109375 48.3838 -29.2695 57.1279 -55.4072c7.90234 -23.6357 10.6318 -49.1387 10.0371 -74.2617c19.418 6.63672 38.0684 16.1836 54.7334 26.8379zM108.031 -4.11621c29.4775 25.3389 42.8428 66.377 46.457 107.194
c-32.501 -7.90234 -65.9648 -7.94922 -91.5664 7.72168c-3.93164 -27.8408 -10.8584 -58.0586 -3.17969 -85.332c6.32422 -22.457 24.4268 -50.0986 48.2891 -29.584zM155.515 120.621c0.356445 15.6865 -0.614258 30.999 -2.58008 44.998
c-3.75488 26.7637 -19.1865 82.4688 -57.2637 71.6104c-31.8115 -9.06934 -51.8252 -50.7959 -40.5986 -81.2256c11.7041 -31.7178 49.0918 -40.9473 79.3643 -38.5742c7.03223 0.551758 14.0771 1.66016 21.0781 3.19141z" />
    <glyph glyph-name="o" unicode="&#xf3;" horiz-adv-x="219" 
d="M231.019 153.299c8.94727 5.7207 21.4287 -1.99121 10.6875 -9.89355c-17.124 -12.5967 -40.8145 -25.3857 -66.3887 -34.1963c-0.195312 -2.42773 -0.367188 -4.87109 -0.618164 -7.2793c-3.60254 -34.415 -15.5264 -64.5703 -30.0967 -95.5674
c-13.1807 -28.041 -35.375 -52.3574 -67.4375 -56.8525c-33.8789 -4.75 -69.9746 12.7812 -84.9209 43.9824c-17.2764 36.0684 -9.96191 74.9199 -8.2041 113.169c1.07324 23.3809 25.958 40.0977 47.749 42.5879c-14.7002 47.0166 26.5088 107.064 77.3311 106.881
c30.8057 -0.109375 48.3838 -29.2695 57.1279 -55.4072c7.90234 -23.6357 10.6318 -49.1387 10.0371 -74.2617c19.418 6.63672 38.0684 16.1836 54.7334 26.8379zM108.031 -4.11621c29.4775 25.3389 42.8428 66.377 46.457 107.194
c-32.501 -7.90234 -65.9648 -7.94922 -91.5664 7.72168c-3.93164 -27.8408 -10.8584 -58.0586 -3.17969 -85.332c6.32422 -22.457 24.4268 -50.0986 48.2891 -29.584zM155.515 120.621c0.356445 15.6865 -0.614258 30.999 -2.58008 44.998
c-3.75488 26.7637 -19.1865 82.4688 -57.2637 71.6104c-31.8115 -9.06934 -51.8252 -50.7959 -40.5986 -81.2256c11.7041 -31.7178 49.0918 -40.9473 79.3643 -38.5742c7.03223 0.551758 14.0771 1.66016 21.0781 3.19141z" />
    <glyph glyph-name="p" unicode="p" horiz-adv-x="285" 
d="M293.573 136.833c4.1582 7.4873 21.7471 7.78223 16.2764 -2.69238c-9.14746 -17.5508 -26.3691 -27.9277 -42.6699 -38.1904c-14.8447 -9.34668 -30.1787 -17.7539 -45.9238 -25.3818c-24.4971 -46.5938 -75.7695 -88.457 -129.736 -93.9941
c-9.46875 -78.0332 -13.8584 -156.963 -19.1445 -235.337c0.407227 -6.91895 0.787109 -13.8379 1.08105 -20.7686c0.986328 -23.1543 4.40039 -48.1445 -6.14062 -69.4111c-6.48047 -13.0742 -28.3926 -21.3643 -40.375 -11.1094
c-17.1826 14.708 -19.583 44.5537 -23.7529 65.6943c-4.64844 23.5811 -7.33496 47.4355 -9.92676 71.3174c-5.19238 47.874 -7.02148 96.2295 -7.79688 144.362c-1.5625 97.0986 0.0664062 197.628 18.3447 293.263c3.35938 17.5859 23.2119 29.2275 39.3408 31.9688
c12.2051 2.07129 36.1299 -2.2793 35.0957 -19.7314c-3.95117 -66.7402 -10.0635 -132.967 -13.165 -199.511c3.36328 1.94629 6.9502 3.49707 10.5996 4.61719c14.6133 102.589 45.6533 227.732 111.829 188.889c20.8125 -12.2168 36.2832 -42.9785 42.7246 -65.2705
c6.08887 -21.0625 6.03027 -42.6582 -0.0195312 -63.1689c5.37598 2.68652 10.7207 5.44336 15.9873 8.36816c16.293 9.04492 37.9551 19.124 47.3721 36.0869zM63.6787 -82.585c0.861328 9.89941 2.42188 31.5576 5.25684 59.0381
c-1.49219 0.144531 -2.98047 0.285156 -4.46875 0.488281c-0.364258 0.0507812 -0.701172 0.136719 -1.05371 0.199219c-0.243164 -12.9531 -0.336914 -25.9219 -0.219727 -38.9219c0.0664062 -7.18555 0.270508 -14.3633 0.426758 -21.5449zM190.728 141.783
c2.80762 16.4268 3.30371 34.875 -6.42285 49.1797c-3.91992 5.76367 -10.1777 12.6709 -16.7988 15.1221c-14.5898 5.40723 -21.54 -5.18848 -27.3428 -15.3848c-16.2969 -28.6357 -22.7305 -64.2891 -29.4932 -96.2061
c-4.13477 -19.5244 -7.68652 -39.166 -10.8584 -58.8779c46.9229 10.001 83.2451 61.2852 90.916 106.167z" />
    <glyph glyph-name="q" unicode="q" horiz-adv-x="307" 
d="M331.014 148.772c-46.2334 -71.5527 -89.9297 -147.071 -123.018 -225.727c-10.4824 -24.916 -6.30078 -39.2207 7.49414 -60.7412c8.14844 -12.7109 15.001 -26.1494 20.0762 -40.3867c9.96191 -27.9541 17.5156 -63.0703 5.63086 -91.5303
c-9.48047 -22.6992 -32.2227 -35.7344 -56.1992 -37.8721c-33.041 -2.94434 -57.4912 19.1289 -65.2441 49.9424c-9.59766 38.1201 -8.82227 79.4434 -8.77148 118.511c0.0507812 39.9287 1.8916 79.8027 4.21777 119.657c2.33789 40.0029 5.36914 79.9668 8.95605 119.88
c0.175781 1.96191 0.339844 3.94336 0.511719 5.90918c-10.4512 -30.2139 -22.375 -59.8877 -37.2158 -87.2627c-10.7256 -19.7861 -23.6553 -28.749 -45.6152 -32.6768c-23.9326 -4.28418 -46.8164 11.1162 -54.9883 33.6123
c-9.69141 26.6777 -5.79883 58.6729 0.580078 85.7539c6.66504 28.3027 17.2568 60.3535 37.5322 82.0586c18.1025 19.3789 43.4023 33.374 70.5107 31.0244c16.5674 -1.43359 28.9453 -8.95605 39.6943 -19.3252c1.46094 8.13281 3.08984 16.2188 5.08691 24.1836
c4.30371 17.167 21.8857 28.3662 38.3555 31.166c12.6748 2.15332 34.2432 -2.25195 34.2119 -19.2344c-0.0703125 -40.8652 -7.19336 -82.2393 -11.2891 -122.865c-3.87695 -38.4766 -7.10352 -77.0078 -9.65625 -115.594
c-1.46875 -22.1904 -2.91406 -44.4004 -4.15527 -66.6221c7.20898 16.7754 16.8027 33.124 24.207 48.082c29.6387 59.8604 63.1689 117.535 100.083 173.193c5.44336 8.20703 26.3848 8.28906 19.0039 -3.13672zM89.4238 70.8535
c13.7246 33.2051 26.0498 66.9404 37.3623 101.027c-4.02539 4.35449 -8.21875 8.56348 -13.125 11.9346c-10.9365 7.51465 -17.0059 7.16992 -23.5684 -3.75098c-8.34863 -13.8975 -15.6904 -29.1338 -21.5762 -44.2373
c-12.3467 -31.6904 -19.4072 -68.3418 -16.7793 -102.236c0.481445 -6.19824 -0.0976562 -16.1562 4.32715 -21.3018c0.407227 -5.6582 1.98145 -5.66992 4.72656 -0.0390625c3.08203 4.20117 5.80762 8.62207 8.17676 13.2588
c8.00391 14.4727 14.1514 30.0928 20.4561 45.3447zM208.723 -176.848c-6.01855 14.0029 -16.6348 27.2773 -23.7969 41.4209c-0.662109 -27.0967 -0.634766 -54.2012 0.52832 -81.2939c0.677734 -15.749 1.45312 -31.6426 5.93652 -46.8164
c4.70312 -15.9219 15.5107 -28.7148 26.8936 -5.77637c13.251 26.7051 1.41016 66.9277 -9.56152 92.4658z" />
    <glyph glyph-name="r" unicode="r" horiz-adv-x="291" 
d="M291.645 143.553c3.00293 9.44824 24.7803 13.2637 21.0918 1.27734c-16.5557 -53.9395 -36.377 -106.837 -59.7188 -158.22c-16.3682 -36.0244 -36.1348 -94.6904 -78.8398 -106.595c-20.0801 -5.5957 -42.0557 -2.35352 -57.4639 12.585
c-17.0332 16.5127 -19.4844 45.2148 -22.2959 67.4287c-7.23242 57.1855 -2.81152 114.923 10.6738 170.867c-41.8867 -16.6963 -94.9414 -24.25 -117.672 19.877c-13.3369 25.8906 -8.1875 61.6182 -2.50195 88.668c6.46484 30.75 19.1836 60.3135 45.873 78.6514
c21.3447 14.6641 49.6787 18.9834 73.2637 6.85254c22.6758 -11.665 30.6602 -34.0166 30.9111 -58.3486c0.52832 -51.2412 -31.2832 -93.3789 -76.373 -113.627c3.54785 -5.43945 8.3291 -9.85254 14.7041 -11.7441c13.5645 -4.02148 32.043 5.58789 46.4648 13.584
c9.0332 7.50684 20.8545 12.1592 31.7441 12.75c16.9043 0.919922 35.3555 -10.1416 30.6289 -29.3018c-10.8936 -44.1699 -17.3662 -88.9854 -20.1387 -134.381c-1.29199 -21.1572 -1.74609 -42.6621 -0.37207 -63.8271c0.55957 -8.59863 1.84375 -18.2432 4.7334 -26.458
c3.12109 -8.87305 5.99902 -14.4961 14.1787 -10.6035c16.5127 7.85547 27.9736 38.7822 35.7812 54.3359c9.78516 19.4883 19.0225 39.2549 27.7705 59.2334c18.1533 41.4521 33.8711 83.8711 47.5566 126.995zM50.6279 174.415
c0.34082 -1.89941 0.78418 -3.88086 1.32422 -5.88574c37.0078 15.0439 61.2344 51.75 60.4629 92.0508c-0.254883 13.2393 -6.9082 46.6211 -27.4541 40.5908c-9.94238 -2.91699 -15.9805 -21.0117 -19.7822 -29.2031
c-13.3643 -28.7969 -20.2051 -66.0352 -14.5508 -97.5527z" />
    <glyph glyph-name="s" unicode="s" horiz-adv-x="197" 
d="M203.511 153.428c11.418 7.5459 27.2236 -3.38086 13.4678 -12.4658c-32.4502 -21.4424 -65.0371 -44.5059 -93.7041 -71.376c22.0381 -42.9561 38.0068 -97.0752 8.45117 -136.895c-13.1416 -17.707 -23.5967 -36.7217 -47.5771 -40.3438
c-18.8271 -2.84668 -38.1201 6.79395 -48.0078 22.9463c-20.2676 33.1035 -3.29297 71.8418 18.4082 103.266c-33.2686 50 -80.7314 99.0098 -73.8828 162.257c3.45801 31.9053 21.752 63.5254 50.8887 78.4912c23.6748 12.1621 50.7637 12.2754 69.9668 -7.91797
c10.3965 -10.9326 -10.7998 -21.7637 -20.0449 -18.4707c-13.9209 4.96094 -27.7432 -0.348633 -32.0117 -14.5039c-4.4834 -14.8604 2.03613 -30.5273 9.09277 -43.4102c15.1426 -27.6494 33.8516 -53.1758 50.3643 -79.999
c1.80859 -2.94043 3.63379 -5.9873 5.45117 -9.12012c27.582 25.084 58.0742 47.0195 89.1377 67.542zM100.035 -81.3818c4.38184 7.63574 4.06934 14.3438 -0.93457 20.1309c-2.7334 8.39941 -7.82031 16.877 -11.9473 24.6689
c-6.58984 12.4365 -13.7871 24.5361 -21.0117 36.6084c-8.32129 -13.999 -15.5381 -29.2236 -15.9883 -45.7715c-0.485352 -17.8281 8.57129 -40.4883 28.4629 -43.875c8.91211 -1.46094 16.0508 1.28418 21.4189 8.23828z" />
    <glyph glyph-name="t" unicode="t" horiz-adv-x="191" 
d="M197.527 140.964c2.91309 7.17773 21.3799 8.49902 17.7227 -0.84375c-13.4619 -34.4668 -27.1436 -68.8467 -41.1152 -103.113c-12.3193 -30.2178 -22.6416 -64.1436 -42.1025 -90.708c-15.6396 -21.3486 -38.1162 -30.9424 -64.6689 -26.0205
c-33.041 6.12793 -52.4668 28.0166 -61.3867 59.4248c-20.8242 73.3223 -17.4648 156.845 -14.4502 232.293c1.51953 37.9824 3.77148 76 6.77051 113.963c-7.80762 0.0976562 -15.6113 0.191406 -23.4189 0.285156c-14.2529 0.171875 -6.85645 17.0254 4.0332 16.8457
c6.93066 -0.113281 13.8574 -0.226562 20.7881 -0.339844c2.91309 34.2744 6.41797 68.4863 10.6152 102.565c2.31445 18.8076 25.9189 31.5967 42.3105 34.3809c13.0078 2.21191 38.9971 -2.44824 37.7402 -21.2207c-2.6123 -39.1064 -5.69824 -78.1035 -8.60352 -117.069
c13.8145 -0.227539 27.6289 -0.451172 41.4395 -0.678711c13.7363 -0.227539 6.59766 -16.3564 -3.88477 -16.2314c-12.9219 0.15625 -25.8398 0.3125 -38.7617 0.46875c-6.1748 -84.5918 -11.0811 -169.102 -8.03809 -254.379
c1.11621 -31.3145 -0.136719 -62.9268 5.80371 -93.7988c1.80859 -9.40137 3.68848 -27.3037 13.0742 -33.1377c16.4189 -10.2041 29.0078 17.3545 34.6621 28.4326c27.6104 54.1074 48.6494 112.624 71.4707 168.882z" />
    <glyph glyph-name="u" unicode="u" horiz-adv-x="310" 
d="M314.345 141.176c2.8584 8.2666 22.3262 11.8564 18.8682 1.15039c-15.7764 -48.9434 -31.6621 -98.4111 -55.9238 -143.951c-19.708 -36.9883 -47.6309 -71.4434 -94.0674 -68.8867c-50.5605 2.78418 -56.3086 80.249 -57.8789 117.668
c-0.360352 8.6377 -0.500977 17.3154 -0.536133 26.0049c-10.0557 -32.8223 -24.1406 -80.1201 -61.2305 -89.8193c-49.2988 -12.8906 -67.8438 38.0254 -74.0146 76.4229c-7.72168 48.0498 -1.29199 98.2695 4.43262 146.159
c4.06055 33.9805 76.7207 47.4189 71.5674 4.32617c-4.22461 -35.332 -9.02539 -70.8633 -8.48926 -106.517c0.258789 -17.0879 1.20996 -34.4111 3.64941 -51.3389c0.927734 -6.42188 1.51855 -13.6934 3.60547 -19.8447
c2.48242 -7.31445 4.73828 -14.2217 12.1777 -12.1426c12.9062 3.60254 20.5771 39.4434 24.1875 50.4893c5.16113 15.7959 9.5 31.8545 13.6699 47.9365c8.10156 31.252 15.3574 62.7422 22.5938 94.209c0.442383 2.58789 0.837891 5.19141 1.30371 7.76758
c6.51172 36.0527 83.4014 51.1953 77.1357 4.66406c-5.92871 -44.0635 -10.5693 -87.9199 -13.0557 -132.324c-2.15332 -38.3975 -4.62012 -81.999 3.50488 -119.825c0.927734 -4.31934 3.27344 -16.9473 8.14844 -19.1875c7.92188 -3.6377 22.4219 15.4785 25.8682 20.209
c11.7041 16.0625 21.082 34.2354 29.708 52.0908c17.8906 37.0234 31.3486 75.9385 44.7754 114.739z" />
    <glyph glyph-name="u" unicode="&#xfc;" horiz-adv-x="310" 
d="M314.345 141.176c2.8584 8.2666 22.3262 11.8564 18.8682 1.15039c-15.7764 -48.9434 -31.6621 -98.4111 -55.9238 -143.951c-19.708 -36.9883 -47.6309 -71.4434 -94.0674 -68.8867c-50.5605 2.78418 -56.3086 80.249 -57.8789 117.668
c-0.360352 8.6377 -0.500977 17.3154 -0.536133 26.0049c-10.0557 -32.8223 -24.1406 -80.1201 -61.2305 -89.8193c-49.2988 -12.8906 -67.8438 38.0254 -74.0146 76.4229c-7.72168 48.0498 -1.29199 98.2695 4.43262 146.159
c4.06055 33.9805 76.7207 47.4189 71.5674 4.32617c-4.22461 -35.332 -9.02539 -70.8633 -8.48926 -106.517c0.258789 -17.0879 1.20996 -34.4111 3.64941 -51.3389c0.927734 -6.42188 1.51855 -13.6934 3.60547 -19.8447
c2.48242 -7.31445 4.73828 -14.2217 12.1777 -12.1426c12.9062 3.60254 20.5771 39.4434 24.1875 50.4893c5.16113 15.7959 9.5 31.8545 13.6699 47.9365c8.10156 31.252 15.3574 62.7422 22.5938 94.209c0.442383 2.58789 0.837891 5.19141 1.30371 7.76758
c6.51172 36.0527 83.4014 51.1953 77.1357 4.66406c-5.92871 -44.0635 -10.5693 -87.9199 -13.0557 -132.324c-2.15332 -38.3975 -4.62012 -81.999 3.50488 -119.825c0.927734 -4.31934 3.27344 -16.9473 8.14844 -19.1875c7.92188 -3.6377 22.4219 15.4785 25.8682 20.209
c11.7041 16.0625 21.082 34.2354 29.708 52.0908c17.8906 37.0234 31.3486 75.9385 44.7754 114.739z" />
    <glyph glyph-name="u" unicode="&#xfb;" horiz-adv-x="310" 
d="M314.345 141.176c2.8584 8.2666 22.3262 11.8564 18.8682 1.15039c-15.7764 -48.9434 -31.6621 -98.4111 -55.9238 -143.951c-19.708 -36.9883 -47.6309 -71.4434 -94.0674 -68.8867c-50.5605 2.78418 -56.3086 80.249 -57.8789 117.668
c-0.360352 8.6377 -0.500977 17.3154 -0.536133 26.0049c-10.0557 -32.8223 -24.1406 -80.1201 -61.2305 -89.8193c-49.2988 -12.8906 -67.8438 38.0254 -74.0146 76.4229c-7.72168 48.0498 -1.29199 98.2695 4.43262 146.159
c4.06055 33.9805 76.7207 47.4189 71.5674 4.32617c-4.22461 -35.332 -9.02539 -70.8633 -8.48926 -106.517c0.258789 -17.0879 1.20996 -34.4111 3.64941 -51.3389c0.927734 -6.42188 1.51855 -13.6934 3.60547 -19.8447
c2.48242 -7.31445 4.73828 -14.2217 12.1777 -12.1426c12.9062 3.60254 20.5771 39.4434 24.1875 50.4893c5.16113 15.7959 9.5 31.8545 13.6699 47.9365c8.10156 31.252 15.3574 62.7422 22.5938 94.209c0.442383 2.58789 0.837891 5.19141 1.30371 7.76758
c6.51172 36.0527 83.4014 51.1953 77.1357 4.66406c-5.92871 -44.0635 -10.5693 -87.9199 -13.0557 -132.324c-2.15332 -38.3975 -4.62012 -81.999 3.50488 -119.825c0.927734 -4.31934 3.27344 -16.9473 8.14844 -19.1875c7.92188 -3.6377 22.4219 15.4785 25.8682 20.209
c11.7041 16.0625 21.082 34.2354 29.708 52.0908c17.8906 37.0234 31.3486 75.9385 44.7754 114.739z" />
    <glyph glyph-name="u" unicode="&#xfa;" horiz-adv-x="310" 
d="M314.345 141.176c2.8584 8.2666 22.3262 11.8564 18.8682 1.15039c-15.7764 -48.9434 -31.6621 -98.4111 -55.9238 -143.951c-19.708 -36.9883 -47.6309 -71.4434 -94.0674 -68.8867c-50.5605 2.78418 -56.3086 80.249 -57.8789 117.668
c-0.360352 8.6377 -0.500977 17.3154 -0.536133 26.0049c-10.0557 -32.8223 -24.1406 -80.1201 -61.2305 -89.8193c-49.2988 -12.8906 -67.8438 38.0254 -74.0146 76.4229c-7.72168 48.0498 -1.29199 98.2695 4.43262 146.159
c4.06055 33.9805 76.7207 47.4189 71.5674 4.32617c-4.22461 -35.332 -9.02539 -70.8633 -8.48926 -106.517c0.258789 -17.0879 1.20996 -34.4111 3.64941 -51.3389c0.927734 -6.42188 1.51855 -13.6934 3.60547 -19.8447
c2.48242 -7.31445 4.73828 -14.2217 12.1777 -12.1426c12.9062 3.60254 20.5771 39.4434 24.1875 50.4893c5.16113 15.7959 9.5 31.8545 13.6699 47.9365c8.10156 31.252 15.3574 62.7422 22.5938 94.209c0.442383 2.58789 0.837891 5.19141 1.30371 7.76758
c6.51172 36.0527 83.4014 51.1953 77.1357 4.66406c-5.92871 -44.0635 -10.5693 -87.9199 -13.0557 -132.324c-2.15332 -38.3975 -4.62012 -81.999 3.50488 -119.825c0.927734 -4.31934 3.27344 -16.9473 8.14844 -19.1875c7.92188 -3.6377 22.4219 15.4785 25.8682 20.209
c11.7041 16.0625 21.082 34.2354 29.708 52.0908c17.8906 37.0234 31.3486 75.9385 44.7754 114.739z" />
    <glyph glyph-name="v" unicode="v" horiz-adv-x="299" 
d="M316.254 148.142c13.0469 2.2832 12.2158 -12.0557 1.24805 -14.8086c-21.3447 -5.33301 -47.4277 -11.0615 -69.2773 -7.39648c-8.14453 1.36621 -16.0039 3.74707 -23.6865 6.65625c-6.61328 -29.9668 -14.4014 -59.6914 -24.0537 -88.7773
c-12.1543 -36.6279 -26.3135 -77.8564 -56.0029 -104.232c-26.8389 -23.8467 -62.9229 -24.3789 -91.5312 -3.8291c-35.0342 25.167 -49.8164 72.3555 -58.1533 112.707c-9.18262 44.4473 -11.4541 90.6104 -8.69727 135.825
c1.15137 18.8975 15.6709 32.6182 33.707 37.3799c13.9443 3.68457 37.5957 0.411133 38.3516 -18.1689c2.9248 -72.1045 -1.29199 -143.763 26.7451 -212.022c5.38379 -13.1025 10.9092 -26.9961 20.6318 -37.5449c3.42188 -3.70801 9.50684 -10.2588 14.3115 -9.90625
c6.55859 0.481445 13.959 9.87109 18.0117 14.8203c21.125 25.7969 32.2383 59.1396 42.2744 90.4658c9.61328 30.0146 17.7578 60.8037 24.458 91.918c-5.50977 2.5918 -10.9805 5.24707 -16.4434 7.7959c-41.3154 19.2852 -54.7109 72.25 -48.375 114.113
c4.86719 32.1758 20.7217 79.4854 52.1299 95.168c34.0986 17.0293 50.96 -12.1113 54.3271 -42.165c4.95703 -44.2402 -4.05664 -91.9658 -12.002 -135.353c-1.49219 -8.13281 -3.07031 -16.2578 -4.69531 -24.375c10.7607 -4.75781 23.2754 -5.99121 34.6504 -7.96094
c17.9971 -3.11719 33.8555 -3.49707 52.0713 -0.30957zM221.272 244.658c1.93066 18.1221 3.74023 36.583 2.62793 54.8223c-0.579102 9.55469 -1.78516 19.4697 -4.96484 28.5391c-0.567383 1.62109 -1.41699 5.61523 -2.79492 6.73145
c-2.64746 2.14551 -16.6855 2.16504 -20.7969 -0.455078c-10.3574 -6.60547 -13.8701 -34.6621 -14.4932 -45.9316c-0.736328 -13.2861 0.352539 -27.2383 1.75391 -40.4736c2.74121 -25.8359 10.4629 -55.8184 28.0293 -76.54
c4.47168 24.3838 8.03125 48.8848 10.6387 73.3076z" />
    <glyph glyph-name="w" unicode="w" horiz-adv-x="422" 
d="M434.151 152.3c12.6631 6.88379 19.417 -7.77441 7.15723 -14.6699c-29.7363 -16.7441 -70.1855 -15.793 -103.509 -7.61719c-2.06348 -11.2461 -4.27148 -22.457 -6.57422 -33.6133c-8.56738 -41.4756 -19.2344 -84.9287 -39.0557 -122.681
c-15.0752 -28.7139 -45.6104 -53.5283 -79.1016 -54.5625c-43.0303 -1.32715 -66.8496 38.6094 -76.9834 74.8184c-6.53906 23.3535 -9.62891 47.3926 -11.0107 71.584c-4.35059 -10.7529 -8.99512 -21.2705 -13.8662 -31.2988
c-13.1416 -27.0654 -28.6602 -51.793 -59.8887 -58.9277c-82.3838 -18.8154 -67.7354 131.577 -63.7334 175.062c2.8584 31.0479 69.9434 43.2686 65.2598 3.94629c-3.34766 -28.0957 -6.72656 -56.5596 -5.47754 -84.9092
c0.615234 -13.9131 2.4082 -27.8926 5.03223 -41.5625c1.09277 -5.67773 3.00391 -24.6064 8.80664 -27.6846c17.5898 -9.32715 50.165 91.6406 63.0947 130.771c0.329102 19.1562 16.7324 33.4131 34.4082 38.0811c13.1689 3.47363 39.8975 0.537109 39.1572 -18.5518
c-1.37012 -35.3555 -2.62695 -70.9453 1.58594 -106.163c3.34766 -27.9854 7.31836 -67.8672 30.5781 -87.2422c28.5381 -23.7725 48.1562 32.3281 55.7061 52.6904c10.6943 28.8438 18.2129 58.8223 24.4072 88.9229c2.52539 12.2715 5.13672 24.8252 7.62305 37.5439
c-32.2109 12.6201 -56.5674 36.8154 -65.9492 71.5127c-10.0127 37.0273 -3.8418 78.585 16.3281 111.262c12.7773 20.7021 41.0332 40.9971 62.9492 19.5508c26.1885 -25.6289 21.6738 -78.1943 19.5049 -111.079c-1.6875 -25.5859 -4.98047 -51.1475 -9.16602 -76.5527
c2.87012 -0.873047 5.77148 -1.67578 8.70801 -2.36523c26.4316 -6.19434 59.4453 -9.61621 84.0088 3.73633zM321.952 158.735c7.59277 43.332 12.2529 87.9492 5.50977 130.114c-1.35449 8.47754 -3.17578 17.3857 -6.91113 25.166
c-1.25293 2.60742 -2.60742 5.93555 -4.80371 7.88574c-4.01367 3.56348 -16.4189 4.45215 -21.917 1.02539c-10.2275 -6.37109 -15.9326 -30.5391 -18.5566 -41.2607c-6.8877 -28.1387 -5.67773 -59.2256 7.76074 -85.2969
c8.79883 -17.0723 22.6328 -29.3203 38.918 -37.6338z" />
    <glyph glyph-name="x" unicode="x" horiz-adv-x="252" 
d="M256.843 142.182c3.63379 8.7832 22.3818 8.90234 17.6396 -2.91113c-18.8896 -47.0713 -38.5039 -96.2021 -67.1123 -138.355c-23.2402 -34.2432 -51.8018 -57.7217 -95.458 -53.9121c-42.7793 3.73535 -70.5654 41.7969 -85.4883 79.9014
c-11.5635 -14.2529 -23.3496 -28.2676 -35.3086 -42.0234c-8.5166 -9.79688 -30.2412 -4.17773 -18.917 8.63477c16.2344 18.3652 31.749 37.1533 46.7031 56.3018c-14.2178 50.9639 -25.0449 106.505 -22.9111 159.398c1.36621 33.9023 66.6143 61.9355 75.0801 20.0137
c5.90918 -29.2666 8.19238 -60.4668 11.1602 -91.7031c18.3848 27.3633 36.0801 55.2744 53.3799 83.6475c4.86719 7.98438 24.5127 8.97852 18.3223 -3.02734c-20.0215 -38.8438 -43.1123 -76.376 -68.2432 -112.558c5.25098 -41.3232 14.332 -81.5615 37.4385 -116.235
c4.11914 -6.18262 10.5957 -15.623 17.6914 -18.7949c12.1309 -5.42676 22.9463 4.48047 31.04 13.0713c13.458 14.2842 23.999 31.3955 33.5107 48.4678c19.6885 35.3398 36.0293 72.7354 51.4727 110.084z" />
    <glyph glyph-name="y" unicode="y" horiz-adv-x="303" 
d="M317.826 152.723c12.542 4.69141 15.2432 -11.5762 4.3457 -16.0439c-30.335 -12.4092 -59.1787 -30.5312 -86.5537 -50.7832c-1.79688 -58.0859 -6.44531 -116.23 -14.5586 -172.841c-7.00879 -48.9277 -19.1514 -98.5244 -45.54 -140.881
c-20.6709 -33.1777 -51.374 -68.6738 -90.8682 -78.7139c-36.2949 -9.22949 -70.793 10.2666 -84.4785 44.627c-16.2695 40.8486 -1.46777 88.0645 14.5127 126.627c29.1924 70.4404 79.126 127.074 136.343 176.057c0.869141 0.744141 1.75 1.49609 2.62305 2.24023
c0.167969 28.7334 0.105469 57.4707 -0.0390625 86.2041c-7.08008 -19.9668 -14.9111 -39.6553 -23.9248 -58.8818c-13.2236 -28.2129 -30.1787 -71.3877 -64.4141 -78.8867c-98.833 -21.6465 -83.9844 155.689 -70.6514 208.857
c5.62305 22.4258 62.0215 44.667 63.208 10.3926c1.22168 -35.1982 -5.90527 -70.4951 -5.54883 -105.901c0.195312 -19.4102 -2.76074 -71.6621 19.4844 -82.3447c8.95508 -4.2959 10.6621 4.64355 14.5 10.7949c5.01172 8.03516 9.59277 16.3721 13.9863 24.7559
c6.60156 12.5928 12.6084 25.4912 18.1885 38.5654c13.376 31.3496 24.0898 63.8623 34.835 96.1943v0.0976562c-0.179688 38.5586 80.2383 65.8242 81.8789 21.8232c1.30762 -35.0693 1.67969 -70.6084 1.02148 -106.25c25.8477 17.9102 53.0029 33.5693 81.6504 44.291z
M152.644 -27.5566c0.379883 15.2754 0.621094 30.5498 0.800781 45.8252c-45.3682 -40.4932 -84.2676 -86.5186 -110.417 -142.22c-17.2959 -36.8389 -35.79 -86.6162 -20.0215 -126.819c18.4277 -46.9893 74.9121 -49.8555 97.5723 -4.49121
c17.2217 34.4785 23.8545 77.6182 27.8994 115.593c3.97461 37.3291 3.23828 74.6621 4.16602 112.112z" />
    <glyph glyph-name="y" unicode="&#xff;" horiz-adv-x="303" 
d="M317.826 152.723c12.542 4.69141 15.2432 -11.5762 4.3457 -16.0439c-30.335 -12.4092 -59.1787 -30.5312 -86.5537 -50.7832c-1.79688 -58.0859 -6.44531 -116.23 -14.5586 -172.841c-7.00879 -48.9277 -19.1514 -98.5244 -45.54 -140.881
c-20.6709 -33.1777 -51.374 -68.6738 -90.8682 -78.7139c-36.2949 -9.22949 -70.793 10.2666 -84.4785 44.627c-16.2695 40.8486 -1.46777 88.0645 14.5127 126.627c29.1924 70.4404 79.126 127.074 136.343 176.057c0.869141 0.744141 1.75 1.49609 2.62305 2.24023
c0.167969 28.7334 0.105469 57.4707 -0.0390625 86.2041c-7.08008 -19.9668 -14.9111 -39.6553 -23.9248 -58.8818c-13.2236 -28.2129 -30.1787 -71.3877 -64.4141 -78.8867c-98.833 -21.6465 -83.9844 155.689 -70.6514 208.857
c5.62305 22.4258 62.0215 44.667 63.208 10.3926c1.22168 -35.1982 -5.90527 -70.4951 -5.54883 -105.901c0.195312 -19.4102 -2.76074 -71.6621 19.4844 -82.3447c8.95508 -4.2959 10.6621 4.64355 14.5 10.7949c5.01172 8.03516 9.59277 16.3721 13.9863 24.7559
c6.60156 12.5928 12.6084 25.4912 18.1885 38.5654c13.376 31.3496 24.0898 63.8623 34.835 96.1943v0.0976562c-0.179688 38.5586 80.2383 65.8242 81.8789 21.8232c1.30762 -35.0693 1.67969 -70.6084 1.02148 -106.25c25.8477 17.9102 53.0029 33.5693 81.6504 44.291z
M152.644 -27.5566c0.379883 15.2754 0.621094 30.5498 0.800781 45.8252c-45.3682 -40.4932 -84.2676 -86.5186 -110.417 -142.22c-17.2959 -36.8389 -35.79 -86.6162 -20.0215 -126.819c18.4277 -46.9893 74.9121 -49.8555 97.5723 -4.49121
c17.2217 34.4785 23.8545 77.6182 27.8994 115.593c3.97461 37.3291 3.23828 74.6621 4.16602 112.112z" />
    <glyph glyph-name="y" unicode="&#xfd;" horiz-adv-x="303" 
d="M317.826 152.723c12.542 4.69141 15.2432 -11.5762 4.3457 -16.0439c-30.335 -12.4092 -59.1787 -30.5312 -86.5537 -50.7832c-1.79688 -58.0859 -6.44531 -116.23 -14.5586 -172.841c-7.00879 -48.9277 -19.1514 -98.5244 -45.54 -140.881
c-20.6709 -33.1777 -51.374 -68.6738 -90.8682 -78.7139c-36.2949 -9.22949 -70.793 10.2666 -84.4785 44.627c-16.2695 40.8486 -1.46777 88.0645 14.5127 126.627c29.1924 70.4404 79.126 127.074 136.343 176.057c0.869141 0.744141 1.75 1.49609 2.62305 2.24023
c0.167969 28.7334 0.105469 57.4707 -0.0390625 86.2041c-7.08008 -19.9668 -14.9111 -39.6553 -23.9248 -58.8818c-13.2236 -28.2129 -30.1787 -71.3877 -64.4141 -78.8867c-98.833 -21.6465 -83.9844 155.689 -70.6514 208.857
c5.62305 22.4258 62.0215 44.667 63.208 10.3926c1.22168 -35.1982 -5.90527 -70.4951 -5.54883 -105.901c0.195312 -19.4102 -2.76074 -71.6621 19.4844 -82.3447c8.95508 -4.2959 10.6621 4.64355 14.5 10.7949c5.01172 8.03516 9.59277 16.3721 13.9863 24.7559
c6.60156 12.5928 12.6084 25.4912 18.1885 38.5654c13.376 31.3496 24.0898 63.8623 34.835 96.1943v0.0976562c-0.179688 38.5586 80.2383 65.8242 81.8789 21.8232c1.30762 -35.0693 1.67969 -70.6084 1.02148 -106.25c25.8477 17.9102 53.0029 33.5693 81.6504 44.291z
M152.644 -27.5566c0.379883 15.2754 0.621094 30.5498 0.800781 45.8252c-45.3682 -40.4932 -84.2676 -86.5186 -110.417 -142.22c-17.2959 -36.8389 -35.79 -86.6162 -20.0215 -126.819c18.4277 -46.9893 74.9121 -49.8555 97.5723 -4.49121
c17.2217 34.4785 23.8545 77.6182 27.8994 115.593c3.97461 37.3291 3.23828 74.6621 4.16602 112.112z" />
    <glyph glyph-name="z" unicode="z" horiz-adv-x="231" 
d="M239.655 128.402c11.6143 7.06055 23.5518 -7.27441 11.127 -14.8906c-21.9043 -13.4463 -41.0127 -31.5918 -59.4951 -49.9531c21.9199 -34.1768 24.7393 -76.3457 20.7959 -116.114c-7.07227 -71.2979 -32.3955 -158.956 -91.0303 -205.451
c-43.8877 -34.8027 -145.004 -64.4727 -151.712 19.207c-2.86621 35.7705 12.9023 73.1934 28.5029 104.57c16.5205 33.2256 39.2041 63.252 63.0625 91.5117c21.2705 25.1943 44.041 49.0605 67.4492 72.2734c-11.1445 16.8457 -30.3477 30.8838 -50.9951 25.0967
c-11.3945 -3.19531 -28.0439 -1.63672 -33.8984 10.3652c-6.25391 12.8203 3.89551 25.002 12.7021 33.0918c18.29 16.8027 34.8809 36.2363 49.6162 56.1914c14.8213 20.0723 46.4492 58.0195 21.3379 81.6279c-24.2148 22.7666 -61.5049 -0.378906 -79.6387 -19.8711
c-7.85938 -8.4502 -14.3008 -18.1494 -19.1992 -28.5889c-0.748047 -1.59375 -11.6689 -32.8691 -9.99316 -38.3828c7.38867 1.68359 15.8154 -2.05566 8.7002 -9.64844c-7.69824 -8.21875 -21.7363 -11.3203 -27.4258 0.830078
c-6.42188 13.7129 2.7998 35.0537 8.49316 47.7568c15.6592 34.9209 49.1074 66.1338 87.5723 73.0293c16.9434 3.03516 35.8955 0.102539 48.9072 -11.9697c15.0361 -13.9521 13.626 -33.7461 11.0771 -52.334c-4.2959 -31.3496 -14.7588 -60.373 -29.3916 -87.54
c20.0801 -4.47168 38.8252 -14.9658 53.0039 -30.0605c18.792 18.1611 38.249 35.7627 60.4316 49.2529zM144.813 -60.3359c2.29492 23.4277 1.26465 48.4238 -6.96582 70.7432c-15.416 -15.7061 -30.5312 -31.7021 -45.0156 -48.2773
c-39.1221 -44.7646 -77.8525 -97.1924 -83.9102 -158.228c-2.29883 -23.1621 -4.38184 -68.0605 27.9111 -71.1699c25.9336 -2.49805 43.8994 27.3164 55.8623 46.2646c29.3174 46.4365 46.793 106.371 52.1182 160.667z" />
    <glyph glyph-name="braceleft" unicode="{" horiz-adv-x="350" 
d="M272.114 -88.4854c16.1836 9.78516 37.5469 -4.80566 23.1992 -21.7256c-27.0068 -31.8271 -77.5752 -36.6826 -113.287 -16.7988c-40.4893 22.543 -55.5137 66.5674 -66.1523 108.92c-12.9141 51.418 -13.5449 105.157 -16.8496 157.824
c-1.54688 24.626 -3.37598 49.2598 -6.59473 73.7334c-2.00488 15.2285 -3.12109 54.4014 -20.1504 55.8193c-26.2002 2.18457 -27.4727 31.2197 -13.2393 47.0586c54.75 60.9248 85.3594 144.737 106.653 222.657c10.7373 39.2988 14.8057 86.8359 35.7861 122.348
c8.9707 15.1855 25.0215 27.6924 42.8418 29.6465c13.7441 1.50391 19.8291 -6.28418 29.3721 -14.0762c8.95898 -7.31836 -9.2334 -20.5771 -16.9746 -15.6436c-0.642578 0.293945 -1.28125 0.583984 -1.92383 0.874023
c-8.00391 -6.66113 -12.0723 -13.377 -15.7451 -25.8604c-5.25098 -17.8516 -9.39746 -36.0791 -13.583 -54.2051c-8.31348 -36.0088 -13.7803 -72.3857 -21.208 -108.563c-11.332 -55.1885 -29.4424 -107.444 -59.707 -154.022
c4.65234 -4.01367 8.87305 -8.87695 12.585 -14.7979c12.3545 -19.7119 14.332 -46.8281 17.1982 -69.3906c5.9248 -46.6094 6.94336 -93.6377 10.166 -140.462c2.99902 -43.5977 4.37305 -92.6504 19.0137 -134.157c9.2334 -26.1807 35.4609 -69.2148 68.5996 -49.1777z
" />
    <glyph glyph-name="verticalbar" unicode="|" horiz-adv-x="197" 
d="M147.373 -73.9658c2.77637 -40.1055 -78.5879 -68.8896 -85.2764 -22.7266c-18.6621 128.914 -11.6416 262.214 -5.81152 391.876c2.95996 65.7842 6.20605 131.553 9.38574 197.325c1.5625 32.3008 2.84277 64.6172 3.64551 96.9492
c0.810547 32.6221 -1.12793 65.8711 2.06738 98.3213c2.02441 20.5459 44.127 32.1523 48.9824 8.05469c6.39062 -31.7061 5.84277 -66.2041 7.44043 -98.4814c1.56641 -31.6553 2.66699 -63.3301 3.50098 -95.0088c1.67578 -63.541 1.05664 -127.105 1.20508 -190.662
c0.305664 -129.044 5.95996 -256.964 14.8604 -385.647z" />
    </font>
</defs>
</svg>
